<svg width="50" height="50" fill="none" xmlns="http://www.w3.org/2000/svg"><g clip-path="url(#clip0)"><path d="M36.738 25.098H12.793v6.142h23.945v-6.142z" fill="url(#paint0_linear)"/><path d="M36.738 31.24H12.793v6.143h23.945V31.24z" fill="url(#paint1_linear)"/><path d="M36.738 37.373H12.793v6.143h23.945v-6.143z" fill="url(#paint2_linear)"/><path d="M45.108 46.582c.01-.01.01-.01.01-.02s.01-.01.01-.01c.009-.009.009-.019.019-.019l.01-.02c0-.01.01-.01.01-.019l.009-.02c0-.01.01-.01.01-.019 0-.01.01-.02.01-.02 0-.01 0-.01.01-.019 0-.01 0-.02.01-.02v-.117l-1.974-33.584-.02-.097.284-.088-.283.078-.04-.088c0-.01-.009-.01-.009-.02l-.01-.01c0-.01-.01-.01-.02-.019l-.009-.01c-.01-.01-.01-.02-.02-.029l-.01-.01s-.009-.01-.019-.01l-.01-.01c-.01-.009-.02-.019-.029-.019h-.01c-.01-.01-.02-.02-.039-.02l-.01-.009c-.01 0-.019-.01-.029-.01h-.01c-.01 0-.019-.01-.029-.01l-.02-.01c-.01 0-.01 0-.019-.01h-.01c-.02 0-.029 0-.039-.009H32.353V6.211A5.885 5.885 0 0026.476.332a5.898 5.898 0 00-5.381 3.506l-.04.098-.097.048a5.923 5.923 0 00-3.33 5.303v3.008h-7.5l-.166.049-.068.049c-.01.01-.03.02-.04.029L6.886 15.4l-.02.02-.01.02c-.009.01-.009.01-.009.019l-.01.02s-.01.01-.01.019c0 .01-.01.01-.01.02s-.01.01-.01.02c0 .009-.009.009-.009.019l-.01.039c0 .01 0 .02-.01.02v.078L4.806 49.286a.448.448 0 00.117.332.46.46 0 00.322.137h36.592l.126-.03.108-.058.029-.03.01-.01 2.968-2.968c.02-.068.02-.068.03-.078zm-3.399-33.438l-2.07 2.07H29.405v-2.07h12.304zM22.735 2.9a4.985 4.985 0 013.75-1.709 4.993 4.993 0 014.99 4.99v6.075h-2.07V9.248a5.885 5.885 0 00-5.88-5.879c-.175 0-.35.01-.537.03l-.732.068.479-.567zm-1.24 3.272c0-.498.078-.986.214-1.465l.04-.146.136-.05a5.09 5.09 0 011.621-.273 4.993 4.993 0 014.99 4.99v3.008h-7.011V6.172h.01zm7.011 6.973v2.07h-9.97v-2.07h9.97zm-9.97-3.907c0-1.377.576-2.705 1.591-3.642l.537-.498-.039.732c-.01.127-.01.244-.01.352v6.074h-2.07V9.238h-.01zm-8.174 3.907h7.275v2.07H8.301l2.06-2.07zm31.25 35.664H5.713l1.924-32.706h10v4.493c0 .244.205.449.45.449a.454.454 0 00.448-.45v-4.491h9.971v4.492c0 .244.205.449.45.449a.454.454 0 00.449-.45v-4.491h10l1.777 30.214a.45.45 0 00.478.42.493.493 0 00.313-.146.44.44 0 00.117-.322l-1.787-30.43 2.12-2.12 1.903 32.403-2.714 2.686z" fill="#231F20"/><path d="M18.643 36.855l5.224 5.225a.47.47 0 00.313.127.452.452 0 00.312-.127l6.963-6.963c.108-.107.215-.224.322-.342a5.362 5.362 0 001.25-3.447c0-.693-.136-1.377-.39-2.021a5.392 5.392 0 00-2.96-2.96 5.436 5.436 0 00-3.75-.107 5.458 5.458 0 00-1.572.85l-.175.137-.176-.137a5.459 5.459 0 00-1.572-.85 5.42 5.42 0 00-1.72-.283c-.702 0-1.386.137-2.02.39a5.394 5.394 0 00-2.959 2.959 5.322 5.322 0 00-.391 2.022c0 .586.098 1.162.273 1.71a5.23 5.23 0 00.83 1.562.459.459 0 00.352.175.41.41 0 00.273-.097.44.44 0 00.078-.625 4.382 4.382 0 01-.693-1.3 4.48 4.48 0 011.074-4.59 4.446 4.446 0 013.164-1.308 4.48 4.48 0 013.164 1.31.452.452 0 00.625 0 4.44 4.44 0 013.164-1.31 4.48 4.48 0 013.165 1.31 4.48 4.48 0 011.308 3.163c0 1.055-.371 2.07-1.045 2.871a3.97 3.97 0 01-.264.293l-6.64 6.64-4.98-5a.428.428 0 00-.313-.126.495.495 0 00-.322.127.452.452 0 000 .625l.088.097z" fill="#000"/></g><defs><linearGradient id="paint0_linear" x1="36.745" y1="28.168" x2="12.796" y2="28.168" gradientUnits="userSpaceOnUse"><stop stop-color="#131313"/><stop offset="1" stop-color="#303030"/></linearGradient><linearGradient id="paint1_linear" x1="36.745" y1="34.306" x2="12.796" y2="34.306" gradientUnits="userSpaceOnUse"><stop stop-color="#E2173E"/><stop offset="1" stop-color="#FF2257"/></linearGradient><linearGradient id="paint2_linear" x1="36.745" y1="40.445" x2="12.796" y2="40.445" gradientUnits="userSpaceOnUse"><stop stop-color="#FFAB31"/><stop offset="1" stop-color="#FFCA55"/></linearGradient><clipPath id="clip0"><path fill="#fff" d="M0 0h50v50H0z"/></clipPath></defs></svg>