<svg width="32" height="39" fill="none" xmlns="http://www.w3.org/2000/svg"><path d="M23.854 1.168a.758.758 0 00-.545-.242H11.084C9.07.926 7.39 2.402 7.056 4.324a4.098 4.098 0 00-3.323 3.324 4.105 4.105 0 00-3.466 4.05v23.117c0 2.256 1.824 4.11 4.08 4.11h16.592c2.014 0 3.687-1.468 4.028-3.39a4.099 4.099 0 003.406-3.354 4.093 4.093 0 003.384-4.035V9.798a.763.763 0 00-.205-.53l-7.698-8.1zm.181 2.43l5.209 5.427h-3.361c-1 0-1.848-.802-1.848-1.801V3.598zM20.94 37.412H4.348c-1.424 0-2.566-1.173-2.566-2.597V11.698c0-1.181.757-2.18 1.892-2.483v22.27c0 2.256 1.824 4.11 4.08 4.11H23.4a2.567 2.567 0 01-2.46 1.817zm3.407-3.33H7.753c-1.416 0-2.566-1.174-2.566-2.597V8.367c0-1.158.757-2.135 1.816-2.46v22.247c0 2.256 1.825 4.11 4.08 4.11h15.723a2.566 2.566 0 01-2.46 1.817zm3.33-3.332H11.085c-1.416 0-2.566-1.173-2.566-2.596V5.036c0-1.415 1.143-2.596 2.566-2.596h11.438v4.784c0 1.84 1.521 3.315 3.36 3.315h4.36v17.615c0 1.423-1.142 2.596-2.565 2.596z" fill="#fff"/><path d="M25.61 25.906H13.15a.76.76 0 00-.756.757c0 .416.34.757.757.757h12.467a.76.76 0 00.757-.757.76.76 0 00-.764-.757zm-11.376-2.649a.796.796 0 00.227-.038l4.3-1.355a.782.782 0 00.31-.19l6.752-6.774a.754.754 0 000-1.068l-2.922-2.921a.754.754 0 00-1.067 0l-6.775 6.76a.76.76 0 00-.189.31l-1.363 4.292a.755.755 0 00.727.984zm1.703-3.641l1.181 1.18-1.726.546.545-1.726zm6.427-7.1l1.855 1.854-5.685 5.7-1.87-1.87 5.7-5.685z" fill="#fff"/></svg>