<svg width="36" height="38" fill="none" xmlns="http://www.w3.org/2000/svg"><path d="M35.498 8.385L18.245.055a.557.557 0 00-.484 0L.507 8.385a.557.557 0 00-.315.5v20.23c0 .213.123.408.315.5l17.253 8.33a.557.557 0 00.484 0l17.254-8.33a.557.557 0 00.315-.5V8.885a.557.557 0 00-.315-.501zm-17.495-7.21l15.973 7.71-4.63 2.236a.558.558 0 00-.095-.06L13.386 3.404l4.617-2.228zm-5.874 2.858l15.95 7.7-3.267 1.576L8.87 5.614l3.26-1.58zm16.323 8.755v5.83l-3.05 1.473v-5.83l3.05-1.473zM34.7 28.765l-16.14 7.791v-18.99l3.85-1.86a.557.557 0 10-.484-1.002l-3.922 1.894-1.544-.745a.556.556 0 10-.484 1.002l1.47.71v18.992l-16.14-7.791V9.773l12.291 5.933a.554.554 0 00.743-.26.557.557 0 00-.259-.742L2.03 8.886l5.529-2.67L24.28 14.29l.008.01v6.679a.557.557 0 00.799.501l4.164-2.01a.556.556 0 00.315-.502v-6.716l5.133-2.478v18.992z" fill="#fff"/><path d="M5.898 26.605l-2.532-1.222a.557.557 0 10-.484 1.003l2.532 1.222a.554.554 0 00.744-.26.557.557 0 00-.26-.742zm2.327-1.516l-4.859-2.346a.557.557 0 10-.484 1.003l4.859 2.346a.555.555 0 00.743-.26.557.557 0 00-.26-.743z" fill="#fff"/></svg>