<svg width="38" height="36" fill="none" xmlns="http://www.w3.org/2000/svg"><path d="M16.6 30.877a.735.735 0 00-.513-.244 57.06 57.06 0 01-8.432-1.068l-.072-.014a.743.743 0 00-.28 1.458l.056.01a58.43 58.43 0 008.652 1.096l.039.002a.742.742 0 00.55-1.24zm14.686-.737a.743.743 0 00-.868-.59l-.075.015c-2.755.561-5.581.92-8.398 1.066a.737.737 0 00-.513.245.741.741 0 00.55 1.239l.04-.001a58.71 58.71 0 008.62-1.094l.054-.011a.737.737 0 00.59-.868zm-12.27.568h-.008a.737.737 0 00-.516.217.743.743 0 101.267.525.742.742 0 00-.743-.742zm9.633-16.51a.743.743 0 10.001 1.486.743.743 0 00-.001-1.486zm-2.972 0H9.351a.743.743 0 000 1.485h16.326a.743.743 0 000-1.485z" fill="#fff"/><path d="M37.514 26.954c-.332-.746-.678-1.5-1.014-2.23-1.483-3.231-3.018-6.572-3.596-9.955-.328-1.814-1.708-3.187-3.403-3.48a3.716 3.716 0 00-3.646-3.028h-4.629V6.682a2.974 2.974 0 002.227-2.874 2.972 2.972 0 00-2.969-2.97c-.54 0-1.047.147-1.485.4a2.946 2.946 0 00-1.483-.4 2.972 2.972 0 00-2.969 2.97c0 1.38.948 2.544 2.226 2.874v1.579h-4.628A3.716 3.716 0 008.5 11.288c-1.695.293-3.076 1.668-3.405 3.489-.576 3.376-2.11 6.716-3.595 9.947-.335.73-.682 1.484-1.013 2.23-.628 1.412-.648 2.688-.058 3.793 1.054 1.975 3.757 2.822 5.842 3.184a66.516 66.516 0 0025.46 0c2.085-.362 4.787-1.209 5.842-3.184.59-1.105.57-2.38-.058-3.793zm-17.03-24.63a1.485 1.485 0 010 2.968A1.486 1.486 0 0119 3.808c0-.819.666-1.485 1.484-1.485zm-2.226 4.358c.263-.069.512-.172.742-.305.23.134.479.237.742.305v1.579h-1.484V6.68zm-2.226-2.874a1.486 1.486 0 011.855-1.436 2.95 2.95 0 00-.371 1.436c0 .52.135 1.01.371 1.436a1.48 1.48 0 01-1.855-1.436zm-3.887 5.937h13.71c.967 0 1.792.62 2.098 1.485H10.047a2.23 2.23 0 012.098-1.485zm24.118 20.303c-.845 1.582-3.634 2.221-4.794 2.422l-.016.003A65.116 65.116 0 0119 33.677c-4.174 0-8.364-.405-12.453-1.204l-.015-.003c-1.16-.2-3.95-.84-4.795-2.422-.368-.69-.333-1.505.105-2.491.328-.738.673-1.488 1.006-2.213 1.524-3.318 3.1-6.75 3.708-10.31.208-1.153 1.175-2.32 2.62-2.32h19.648c1.445 0 2.411 1.167 2.618 2.312.61 3.569 2.186 7 3.71 10.317.333.726.678 1.476 1.006 2.214.438.986.473 1.801.105 2.49z" fill="#fff"/></svg>