<svg width="38" height="30" fill="none" xmlns="http://www.w3.org/2000/svg"><path d="M31.06 14.094c-3.986-3.87-9.097-6.059-14.447-6.201V.696a.559.559 0 00-.938-.41L.18 14.589a.559.559 0 000 .821l15.495 14.304a.558.558 0 00.938-.41v-7.19h2.123c7.58 0 14.076 2.53 18.294 7.121a.559.559 0 00.968-.42c-.42-5.557-2.884-10.785-6.938-14.721zm-12.324 6.903h-2.682a.559.559 0 00-.558.559v6.471L1.382 15 15.496 1.972v6.472c0 .309.25.559.558.559 5.26 0 10.313 2.092 14.227 5.892 3.474 3.372 5.72 7.74 6.426 12.433-4.415-4.095-10.727-6.331-17.97-6.331z" fill="#fff"/><path d="M10.312 8.483L5.548 12.88a.559.559 0 10.758.822l4.764-4.398a.559.559 0 00-.758-.82zM29.344 20.3a31.152 31.152 0 00-6.676-1.473.559.559 0 10-.123 1.11c2.255.25 4.42.727 6.436 1.42a.555.555 0 00.71-.348.559.559 0 00-.347-.71zM13.29 5.73l-1.191 1.1a.559.559 0 10.758.821l1.19-1.1a.559.559 0 10-.757-.82z" fill="#fff"/></svg>