<svg width="36" height="38" fill="none" xmlns="http://www.w3.org/2000/svg"><path d="M34.26 17.81h-7.145V7.055a.742.742 0 00-.742-.742h-6.034V6.28A6.29 6.29 0 0014.055 0a6.29 6.29 0 00-6.284 6.281v.033H1.737a.742.742 0 00-.742.742v30.202c0 .41.332.742.742.742h32.524c.41 0 .742-.332.742-.742V18.55a.742.742 0 00-.742-.742zM9.256 6.28a4.804 4.804 0 014.8-4.797c2.647 0 4.8 2.152 4.8 4.797v.033h-9.6V6.28zm6.984 30.235H6.301V33.63h9.938v2.886zm17.28 0H17.724v-7.481a.742.742 0 00-1.485 0v3.11H5.56a.742.742 0 00-.742.743v3.628H2.48V7.798h5.292v3.067A2.358 2.358 0 006.159 13.1a2.357 2.357 0 002.354 2.353 2.357 2.357 0 002.354-2.353 2.358 2.358 0 00-1.612-2.234V7.798h9.6v3.067a2.358 2.358 0 00-1.612 2.234 2.357 2.357 0 002.354 2.353 2.357 2.357 0 002.355-2.353 2.358 2.358 0 00-1.613-2.234V7.798h5.292V17.81h-8.65a.742.742 0 00-.742.742v3.774a.742.742 0 001.485 0v-3.031h15.795v17.222zM8.513 12.23c.48 0 .87.39.87.869a.87.87 0 01-1.74 0c0-.48.39-.87.87-.87zm11.084 0c.48 0 .87.39.87.869a.87.87 0 01-1.74 0c0-.48.39-.87.87-.87z" fill="#fff"/><path d="M17.666 25.41a.748.748 0 00-.752-.456.75.75 0 00-.65.547.749.749 0 00.305.81.75.75 0 00.838-.01.748.748 0 00.259-.892zm7.956 1.618a4.106 4.106 0 004.102-4.1v-.909a.742.742 0 00-1.484 0v.908a2.62 2.62 0 01-2.618 2.617 2.62 2.62 0 01-2.619-2.617v-.908a.742.742 0 00-1.484 0v.908a4.106 4.106 0 004.103 4.101z" fill="#fff"/></svg>