<svg width="27" height="29" fill="none" xmlns="http://www.w3.org/2000/svg"><path d="M22.995 6.083a13.323 13.323 0 00-7.577-3.796l.837-.837a.85.85 0 10-1.202-1.2L12.902 2.4a.85.85 0 000 1.202l2.151 2.151a.847.847 0 001.202 0 .85.85 0 000-1.201l-.48-.48c5.381 1.062 9.452 5.816 9.452 11.504 0 6.465-5.26 11.725-11.725 11.725S1.777 22.04 1.777 15.576c0-2.467.757-4.827 2.19-6.825a11.692 11.692 0 015.592-4.22.85.85 0 10-.571-1.601 13.384 13.384 0 00-6.402 4.83 13.332 13.332 0 00-2.508 7.815c0 3.586 1.396 6.957 3.932 9.492A13.337 13.337 0 0013.502 29c3.586 0 6.957-1.396 9.493-3.932a13.337 13.337 0 003.932-9.492 13.34 13.34 0 00-3.932-9.493z" fill="#000"/><path d="M4.773 15.576c0 4.813 3.916 8.729 8.73 8.729 4.813 0 8.729-3.916 8.729-8.73 0-4.813-3.916-8.729-8.73-8.729-4.813 0-8.729 3.916-8.729 8.73zm8.73-7.03a7.038 7.038 0 017.03 7.03 7.038 7.038 0 01-7.03 7.03 7.038 7.038 0 01-7.03-7.03 7.038 7.038 0 017.03-7.03z" fill="#000"/><path d="M14.538 14.733c-.672-.238-1.414-.524-1.824-.846-.103-.08-.147-.284-.107-.496.021-.11.118-.482.492-.594.657-.198 1.105.062 1.267.183a.85.85 0 101.018-1.36 3.091 3.091 0 00-1.08-.501v-.228a.85.85 0 00-1.699 0v.28c-.856.26-1.495.99-1.668 1.906-.16.847.12 1.67.728 2.147.602.473 1.465.813 2.307 1.111.665.235.684.744.637 1.026-.08.472-.476.981-1.16.986-.714.004-.917-.028-1.455-.38a.85.85 0 10-.93 1.422c.585.383 1.024.55 1.541.617v.255a.85.85 0 001.7 0v-.342c.4-.121.766-.33 1.081-.62a2.917 2.917 0 00.898-1.656c.218-1.294-.484-2.464-1.746-2.91z" fill="#000"/></svg>