<svg width="30" height="27" fill="none" xmlns="http://www.w3.org/2000/svg"><path d="M28.152.719h-4.018a.85.85 0 000 1.7h3.168v6.254h-3.168a.85.85 0 000 1.7h3.168v6.254h-3.168a.85.85 0 000 1.7h3.168v6.255h-3.168a.85.85 0 000 1.699h4.018c.47 0 .85-.38.85-.85V1.57a.85.85 0 00-.85-.85zM16.185 6.412l1.255-4.62a.85.85 0 00-.82-1.073h-2.295a5.061 5.061 0 00-3.633 1.547A5.062 5.062 0 007.058.719H4.763a.85.85 0 00-.82 1.072l1.138 4.19h-.762a.842.842 0 01-.841-.841.85.85 0 00-1.7 0c0 1.152.771 2.126 1.824 2.437-.76.668-1.425 1.44-1.971 2.296A10.328 10.328 0 000 15.433c-.001 5.224-.001 7.846 1.47 9.344 1.478 1.504 4.06 1.504 9.203 1.504 5.159 0 7.748 0 9.23-1.479 1.482-1.48 1.482-4.064 1.482-9.214 0-3.792-1.975-7.248-5.2-9.176zM7.058 2.418c1.192 0 2.302.641 2.898 1.673a.85.85 0 001.471 0 3.356 3.356 0 012.898-1.673h1.184l-.968 3.563h-7.7l-.967-3.563h1.184zM18.702 23.6c-.984.983-3.486.983-8.03.983-4.52 0-7.011 0-7.99-.996-.984-1.002-.984-3.541-.983-8.152 0-1.641.472-3.248 1.364-4.647A9.128 9.128 0 016.405 7.68h8.573a8.965 8.965 0 014.708 7.908c0 4.533 0 7.03-.984 8.011z" fill="#000"/><path d="M11.826 15.208c-.769-.272-1.619-.6-2.095-.974-.15-.117-.215-.386-.162-.67.027-.14.151-.612.634-.758.792-.238 1.336.078 1.532.225a.85.85 0 101.018-1.36 3.39 3.39 0 00-1.265-.568v-.346a.85.85 0 00-1.7 0v.401l-.075.021c-.93.28-1.625 1.074-1.813 2.071-.173.918.127 1.807.782 2.321.54.424 1.287.783 2.578 1.24.86.303.84.998.793 1.283-.097.578-.583 1.202-1.42 1.208-.822.006-1.078-.035-1.709-.448a.85.85 0 10-.93 1.422c.68.445 1.182.626 1.794.692v.388a.85.85 0 001.7 0v-.47a3.041 3.041 0 001.259-.7 3.188 3.188 0 00.982-1.81c.236-1.409-.528-2.682-1.903-3.168z" fill="#000"/></svg>