<svg width="22" height="22" fill="none" xmlns="http://www.w3.org/2000/svg"><path d="M19.707 22H9.624a2.295 2.295 0 01-2.292-2.292v-4.583a.458.458 0 01.917 0v4.583c0 .758.617 1.375 1.375 1.375h10.083c.758 0 1.375-.617 1.375-1.375V2.292c0-.758-.617-1.375-1.375-1.375H9.624c-.758 0-1.375.617-1.375 1.375v4.583a.458.458 0 01-.917 0V2.292A2.295 2.295 0 019.624 0h10.083a2.295 2.295 0 012.292 2.292v17.416A2.295 2.295 0 0119.707 22z" fill="#000"/><path d="M14.208 11.459H.458a.458.458 0 010-.917h13.75a.459.459 0 010 .917z" fill="#000"/><path d="M10.544 15.125a.459.459 0 01-.324-.782L13.563 11l-3.342-3.342a.459.459 0 01.648-.648l3.667 3.667a.459.459 0 010 .648l-3.667 3.667a.46.46 0 01-.325.133z" fill="#000"/></svg>