<svg width="29" height="29" fill="none" xmlns="http://www.w3.org/2000/svg"><path d="M24.741 4.259C21.995 1.512 18.358 0 14.5 0 10.642 0 7.005 1.512 4.259 4.259 1.512 7.005 0 10.642 0 14.5c0 3.858 1.512 7.495 4.259 10.241C7.005 27.488 10.642 29 14.5 29c3.858 0 7.495-1.512 10.241-4.259C27.488 21.995 29 18.358 29 14.5c0-3.858-1.512-7.495-4.259-10.241zM14.5 27.3c-7.058 0-12.8-5.742-12.8-12.8S7.441 1.7 14.5 1.7c7.058 0 12.8 5.742 12.8 12.8 0 7.058-5.742 12.8-12.8 12.8z" fill="#000"/><path d="M14.498 3.455C8.408 3.455 3.453 8.41 3.453 14.5s4.955 11.045 11.045 11.045S25.543 20.59 25.543 14.5 20.588 3.455 14.498 3.455zm0 20.39c-5.153 0-9.346-4.192-9.346-9.345 0-5.153 4.193-9.346 9.346-9.346 5.153 0 9.346 4.193 9.346 9.346 0 5.153-4.193 9.346-9.346 9.346z" fill="#000"/><path d="M17.047 11.943a.85.85 0 001.7 0c0-.94-.488-1.845-1.336-2.482a4.67 4.67 0 00-2.063-.848v-.918a.85.85 0 00-1.7 0v.918a4.67 4.67 0 00-2.063.848c-.848.637-1.335 1.541-1.335 2.482 0 .941.487 1.846 1.335 2.482a4.67 4.67 0 002.063.85v3.364c-.978-.24-1.699-.874-1.699-1.598a.85.85 0 00-1.699 0c0 .941.487 1.846 1.335 2.482a4.67 4.67 0 002.063.849v.926a.85.85 0 001.7 0v-.926a4.668 4.668 0 002.063-.849c.848-.636 1.335-1.541 1.335-2.482 0-.94-.487-1.846-1.335-2.482a4.67 4.67 0 00-2.063-.849v-3.365c.978.24 1.699.875 1.699 1.598zm-5.098 0c0-.723.72-1.358 1.7-1.598v3.196c-.98-.239-1.7-.874-1.7-1.598zm5.098 5.098c0 .724-.72 1.359-1.7 1.598v-3.196c.98.24 1.7.874 1.7 1.598z" fill="#000"/></svg>