<svg width="42" height="44" fill="none" xmlns="http://www.w3.org/2000/svg"><path d="M41.415.909H13.261v11.828H.594v23.14H7.67l7.28 7.844.004-7.844H30.04V24.049h11.375V.91zM28.456 34.263H13.37l-.003 5.404-5.015-5.404H2.179V14.352h11.082v9.698h6.088v7.266l7.267-7.266h1.84v10.213zm11.375-11.827H25.967l-5.034 5.034v-5.034h-6.088V2.523H39.83v19.913z" fill="#000"/><path d="M20.732 9.792h.008c1.268-.005 2.297-1.062 2.292-2.353a2.35 2.35 0 00-.68-1.656 2.292 2.292 0 00-1.63-.681 2.262 2.262 0 00-1.626.694 2.348 2.348 0 00-.667 1.66c.006 1.29 1.038 2.336 2.303 2.336zm-.51-2.86a.704.704 0 01.506-.215h.003c.19 0 .37.075.505.212a.736.736 0 01-.502 1.25h-.003a.726.726 0 01-.718-.73c0-.195.073-.378.208-.516zm7.644 2.86h.008a2.267 2.267 0 001.625-.693 2.35 2.35 0 00.667-1.66 2.35 2.35 0 00-.68-1.656 2.233 2.233 0 00-1.63-.68 2.268 2.268 0 00-1.627.693 2.35 2.35 0 00-.667 1.66c.006 1.29 1.038 2.336 2.304 2.336zm-.511-2.859a.709.709 0 01.508-.216h.003c.19 0 .369.075.503.212.136.137.211.32.212.516a.733.733 0 01-.207.517.706.706 0 01-.506.217h-.003a.726.726 0 01-.718-.73.73.73 0 01.208-.516z" fill="#000"/></svg>