<svg width="48" height="23" fill="none" xmlns="http://www.w3.org/2000/svg"><path d="M13.29.507v21.986h34.263V.546H13.289v-.04zM30.42 15.19L15.381 1.672h30.04l-15 13.518zm-5.92-3.729l-10.066 9.09V2.41L24.5 11.46zm.868.777l5.014 4.506 4.973-4.467 10.066 9.012h-30.04l9.987-9.051zm10.895-.738l10.105-9.09v18.14L36.263 11.5zm-27.237.31a.602.602 0 00-.592-.582H1.33a.602.602 0 00-.592.583c0 .31.276.582.592.582h7.105a.577.577 0 00.592-.582zm.592 4.856H2.513a.602.602 0 00-.592.583c0 .31.276.583.592.583h7.105a.602.602 0 00.592-.583.602.602 0 00-.592-.582zm0-11.265H2.513a.602.602 0 00-.592.583c0 .31.276.583.592.583h7.105a.602.602 0 00.592-.583.602.602 0 00-.592-.583z" fill="#000"/></svg>