<svg width="32" height="36" fill="none" xmlns="http://www.w3.org/2000/svg"><path d="M16.023 27.481c-1.227.807-3.014.384-3.749-.884L6.961 17.43c-.747-1.288-.37-2.983.84-3.778l-.365-.628.364.628 4.648-3.054L8.356 3.54 3.71 6.592c-4.556 2.994-4.408 10.832.362 19.062 2.183 3.767 4.93 6.762 7.737 8.435 1.653.985 3.282 1.48 4.8 1.48a6.34 6.34 0 003.534-1.05l4.47-2.935-4.092-7.06-4.499 2.957zm3.392 5.782c-2.418 1.589-5.101.626-6.927-.462-2.604-1.553-5.174-4.366-7.234-7.922-4.34-7.49-4.675-14.493-.814-17.03l-.364-.629.364.628 3.464-2.276 2.635 4.545-3.468 2.278c-1.86 1.223-2.44 3.83-1.29 5.81l5.312 9.167c1.136 1.96 3.78 2.598 5.658 1.366l3.319-2.181 2.635 4.545-3.29 2.161zm1.391-19.081a6.886 6.886 0 01.679 5.653l1.316.466a8.436 8.436 0 00-.832-6.924c-1.299-2.13-3.5-3.49-5.89-3.641l-.081 1.474c1.98.125 3.732 1.208 4.808 2.972z" fill="#000"/><path d="M17.018 4.85l-.158 1.467c3.223.395 6.083 2.277 7.849 5.164 1.71 2.798 2.194 6.244 1.328 9.455l1.334.407c.976-3.622.43-7.51-1.5-10.667-1.991-3.258-5.218-5.38-8.853-5.825z" fill="#000"/><path d="M29.329 8.28c-2.58-4.222-6.746-7.04-11.433-7.735l-.19 1.463c4.287.635 8.1 3.214 10.46 7.078 2.312 3.78 3.006 8.45 1.903 12.813l1.34.383c1.204-4.766.446-9.87-2.08-14.002z" fill="#000"/></svg>