<svg width="26" height="26" fill="none" xmlns="http://www.w3.org/2000/svg"><path d="M26 13c0 7.18-5.82 13-13 13S0 20.18 0 13 5.82 0 13 0s13 5.82 13 13z" fill="#D2D5D3"/><path d="M16.5 6.003L14.685 6c-2.04 0-3.358 1.352-3.358 3.445v1.589H9.502a.286.286 0 00-.286.286v2.301c0 .158.128.286.286.286h1.825v5.808c0 .157.128.285.286.285h2.381a.286.286 0 00.286-.285v-5.808h2.134a.285.285 0 00.285-.286l.001-2.301a.286.286 0 00-.285-.286H14.28V9.687c0-.647.154-.975.997-.975H16.5a.285.285 0 00.285-.286V6.288a.285.285 0 00-.285-.285z" fill="#fff"/></svg>