<svg width="26" height="24" fill="none" xmlns="http://www.w3.org/2000/svg"><path d="M25.055 7.408l-4.7-1.047a2.514 2.514 0 00-2.283-4.314c-1.14.297-2.82 2.38-3.287 2.975-.167-.735-.804-3.344-1.714-4.088A2.514 2.514 0 009.174 3.87L4.03 2.725a.446.446 0 00-.533.339L2.548 7.33a.446.446 0 00.339.533l19.392 4.317v10.918h-9.818V11.942a.446.446 0 00-.892 0v11.157H1.75v-11.9h6.396a.446.446 0 000-.893H1.305c-.247 0-.447.2-.447.446v12.793c0 .246.2.446.447.446h21.42c.247 0 .447-.2.447-.446V12.388l.738.164a.448.448 0 00.098 0 .446.446 0 00.434-.348l.95-4.26a.446.446 0 00-.335-.536h-.002zm-6.768-4.493a1.621 1.621 0 01.785 3.145h-.03l-3.353-.738c.777-.967 1.979-2.252 2.598-2.407zm-7.825 1.226a1.621 1.621 0 012.047-2.514c.494.405 1.035 2.083 1.33 3.273l-3.353-.735-.024-.024zm13.207 7.438L3.515 7.083l.756-3.391 20.153 4.492-.755 3.395z" fill="#fff"/></svg>