<svg width="28" height="20" fill="none" xmlns="http://www.w3.org/2000/svg"><path d="M25.754.845H2.17C.978.845.008 1.815.008 3.008v13.927c0 1.193.97 2.163 2.163 2.163h23.583c1.192 0 2.163-.97 2.163-2.163V3.008c0-1.193-.97-2.163-2.163-2.163zM2.17 1.743h23.584c.697 0 1.264.568 1.264 1.265v.997H.906v-.997c0-.698.567-1.265 1.264-1.265zM27.018 7.12H.906V4.902h26.112V7.12zM25.754 18.2H2.17a1.266 1.266 0 01-1.265-1.265V8.018h26.112v8.917c0 .697-.567 1.265-1.264 1.265z" fill="#fff"/><path d="M4.348 13.297a1.567 1.567 0 101.567 1.567c0-.864-.703-1.567-1.567-1.567zm0 2.234a.668.668 0 11.001-1.336.668.668 0 010 1.336zm16.005-1.063H7.698a.449.449 0 100 .898h12.655a.449.449 0 100-.898z" fill="#fff"/></svg>