<svg width="28" height="27" fill="none" xmlns="http://www.w3.org/2000/svg"><path d="M26.046 15.872a4.266 4.266 0 00-2.957-1.264V8.562a.437.437 0 00-.2-.369L12.002.931a.443.443 0 00-.497 0L.677 8.15a.443.443 0 00-.2.372v10.142a.44.44 0 00.203.378l11.103 7.268a.453.453 0 00.497 0l7.14-4.963a.556.556 0 00.087-.08l3.016 5.296a.458.458 0 00.381.229c.154 0 .297-.08.378-.211l3.377-5.37a.32.32 0 00.036-.072 4.305 4.305 0 00-.64-5.266h-.009zm-14.013-.616l-4.926-3.272 9.868-6.662 5.022 3.347-9.964 6.587zm-.297-13.418l4.424 2.949-9.857 6.655L1.82 8.467l9.916-6.629zM1.37 9.223l10.115 6.741v9.08L1.37 18.422v-9.2zm11.008 15.929v-9.054l9.817-6.491v5.072a4.32 4.32 0 00-3.52 4.234 3.39 3.39 0 00.376 1.64.398.398 0 00-.12.056l-6.553 4.543zm14.033-6.23a3.437 3.437 0 01-.53 1.817.493.493 0 00-.032.069L22.93 25.47l-2.8-4.942a.46.46 0 00-.13-.187c-.209-.17-.431-.687-.431-1.42a3.424 3.424 0 013.424-3.424 3.413 3.413 0 013.418 3.407v.018z" fill="#fff"/><path d="M22.994 16.824a1.89 1.89 0 00-1.89 1.883A1.883 1.883 0 0022.98 20.6h.012a1.89 1.89 0 000-3.776h.003zm.988 1.89a.987.987 0 01-1.696.696.97.97 0 01-.298-.705.997.997 0 011.993 0v.009z" fill="#fff"/></svg>