<svg width="22" height="23" fill="none" xmlns="http://www.w3.org/2000/svg"><path d="M10.736 17.244c-.795.49-1.952.234-2.428-.538l-3.44-5.575a1.672 1.672 0 01.543-2.299l3.01-1.858-2.65-4.293-3.008 1.857c-2.95 1.82-2.854 6.589.234 11.595 1.414 2.29 3.193 4.113 5.01 5.13 1.07.6 2.125.9 3.108.9.825 0 1.599-.212 2.289-.637l2.894-1.786-2.65-4.294-2.912 1.798zm2.196 3.517c-1.566.966-3.304.38-4.486-.281-1.686-.944-3.35-2.656-4.684-4.819C.952 11.105.735 6.845 3.235 5.302l2.243-1.384 1.706 2.764-2.245 1.386a2.57 2.57 0 00-.836 3.534l3.44 5.575c.735 1.193 2.448 1.581 3.664.832l2.149-1.327 1.706 2.765-2.13 1.314zm.9-11.606a3.968 3.968 0 01.44 3.438l.852.284a4.862 4.862 0 00-.539-4.212 4.908 4.908 0 00-3.813-2.215l-.053.897a3.953 3.953 0 013.113 1.808z" fill="#fff"/><path d="M11.38 3.478l-.103.893a7.002 7.002 0 015.943 8.892l.863.248A7.9 7.9 0 0011.38 3.478z" fill="#fff"/><path d="M19.351 5.565A10.56 10.56 0 0011.948.86l-.123.89a9.663 9.663 0 016.773 4.305 9.689 9.689 0 011.232 7.794l.868.233c.78-2.9.289-6.004-1.347-8.517z" fill="#fff"/></svg>