<svg width="30" height="30" fill="none" xmlns="http://www.w3.org/2000/svg"><path d="M0 15C0 6.716 6.716 0 15 0c8.284 0 15 6.716 15 15 0 8.285-6.716 15-15 15-8.284 0-15-6.715-15-15z" fill="#6B6868"/><path d="M15.43 5.866c-2.321 0-4.134.68-5.464 2.039-1.331 1.36-2.01 2.86-2.01 4.53 0 2.068.707 3.398 2.151 3.993.113 0 .198 0 .283.028.085 0 .142-.056.198-.17.057-.141.085-.226.114-.283.028-.056.028-.17.056-.34.029-.17.057-.254.057-.283.057-.198 0-.368-.142-.566-.481-.566-.707-1.246-.707-2.067 0-1.387.48-2.548 1.415-3.54.963-.99 2.209-1.472 3.738-1.472 1.387 0 2.435.368 3.2 1.104.764.737 1.132 1.7 1.132 2.889 0 1.529-.311 2.86-.934 3.964s-1.416 1.642-2.379 1.642c-.566 0-1.019-.198-1.359-.595-.34-.396-.453-.877-.311-1.415.085-.312.198-.736.368-1.274.17-.539.311-1.02.396-1.416a3.62 3.62 0 00.142-1.02c0-.453-.113-.82-.368-1.104-.255-.283-.595-.425-1.048-.425-.566 0-1.048.255-1.444.765-.396.51-.595 1.16-.595 1.925 0 .652.114 1.218.34 1.643l-1.33 5.72c-.256 1.047-.256 2.378-.03 3.992.03.142.114.17.228.057.962-1.218 1.585-2.35 1.897-3.455.085-.311.34-1.274.736-2.888.198.368.538.68 1.02.934.48.255 1.019.397 1.557.397 1.642 0 3.001-.68 4.077-2.039C21.462 15.776 22 14.05 22 11.983c0-1.615-.623-3.03-1.87-4.22-1.245-1.189-2.746-1.897-4.7-1.897z" fill="#fff"/></svg>