<svg width="30" height="30" fill="none" xmlns="http://www.w3.org/2000/svg"><path d="M0 15C0 6.716 6.716 0 15 0c8.284 0 15 6.716 15 15 0 8.284-6.716 15-15 15-8.284 0-15-6.716-15-15z" fill="#6B6868"/><path d="M23.158 9.82a5.702 5.702 0 01-1.925.505c.688-.458 1.192-1.054 1.467-1.833-.687.366-1.33.687-2.154.825-.596-.688-1.467-1.055-2.43-1.055a3.335 3.335 0 00-3.345 3.346c0 .275 0 .505.092.734-2.75-.138-5.18-1.467-6.921-3.484-.275.504-.459 1.054-.459 1.696 0 1.192.596 2.154 1.467 2.75-.504 0-1.054-.137-1.467-.458v.091c0 1.65 1.1 2.98 2.659 3.255a2.877 2.877 0 01-.871.137c-.23 0-.458 0-.596-.091.458 1.329 1.65 2.291 3.117 2.291-1.1.871-2.613 1.42-4.171 1.42-.275 0-.504 0-.825-.09 1.467.962 3.208 1.466 5.133 1.466 6.142 0 9.488-5.042 9.488-9.487v-.459c.779-.32 1.283-.916 1.741-1.558z" fill="#fff"/></svg>