<svg width="22" height="23" fill="none" xmlns="http://www.w3.org/2000/svg"><path d="M10.736 17.244c-.795.49-1.952.234-2.428-.538l-3.44-5.575a1.672 1.672 0 01.543-2.299l3.01-1.858-2.65-4.293-3.008 1.857c-2.95 1.82-2.854 6.589.235 11.595 1.413 2.29 3.192 4.113 5.01 5.13 1.07.6 2.125.9 3.107.9.825 0 1.599-.212 2.289-.637l2.895-1.786-2.65-4.294-2.913 1.798zm2.196 3.517c-1.566.966-3.303.38-4.485-.281-1.687-.944-3.35-2.656-4.685-4.819C.952 11.105.735 6.845 3.235 5.302l2.243-1.384 1.706 2.764L4.94 8.068a2.57 2.57 0 00-.836 3.534l3.44 5.575c.736 1.193 2.448 1.581 3.664.832l2.149-1.327 1.706 2.765-2.13 1.314zm.901-11.606a3.969 3.969 0 01.439 3.438l.852.284a4.863 4.863 0 00-.538-4.212 4.908 4.908 0 00-3.814-2.215l-.053.897a3.953 3.953 0 013.114 1.808z" fill="#fff"/><path d="M11.38 3.478l-.103.893a7.002 7.002 0 015.942 8.892l.864.248A7.9 7.9 0 0011.38 3.478z" fill="#fff"/><path d="M19.351 5.565A10.56 10.56 0 0011.95.86l-.124.89a9.663 9.663 0 016.773 4.305 9.689 9.689 0 011.233 7.794l.867.233c.78-2.9.29-6.004-1.347-8.517z" fill="#fff"/></svg>