<svg width="30" height="30" fill="none" xmlns="http://www.w3.org/2000/svg"><path d="M0 15C0 6.716 6.716 0 15 0c8.284 0 15 6.716 15 15 0 8.285-6.716 15-15 15-8.284 0-15-6.715-15-15z" fill="#6B6868"/><path d="M18.817 6h-7.633C8.324 6 6 8.322 6 11.166v7.685c0 2.828 2.322 5.15 5.184 5.15h7.631C21.678 24 24 21.678 24 18.834v-7.667C24 8.323 21.678 6 18.818 6h-.001zm-8.497 9a4.68 4.68 0 119.359 0 4.68 4.68 0 01-9.359 0zm9.83-4.23a1.073 1.073 0 01-1.082-1.079c0-.602.478-1.08 1.081-1.08.602 0 1.08.478 1.08 1.08 0 .603-.478 1.08-1.08 1.08z" fill="#fff"/><path d="M15 12c-1.661 0-3 1.343-3 3s1.338 3 3 3c1.663 0 3-1.344 3-3s-1.357-3-3-3z" fill="#fff"/></svg>