<svg width="28" height="27" fill="none" xmlns="http://www.w3.org/2000/svg"><path d="M26.046 15.872a4.266 4.266 0 00-2.957-1.264V8.562a.437.437 0 00-.2-.369L12 .931a.443.443 0 00-.496 0L.677 8.15a.443.443 0 00-.2.372v10.142a.44.44 0 00.203.378l11.103 7.268c.15.099.346.099.497 0l7.14-4.963a.556.556 0 00.086-.08l3.017 5.296a.458.458 0 00.381.229c.154 0 .297-.08.378-.211l3.377-5.37a.32.32 0 00.035-.072 4.305 4.305 0 00-.64-5.266h-.008zm-14.013-.616l-4.927-3.272 9.869-6.662 5.022 3.347-9.964 6.587zm-.297-13.418l4.424 2.949-9.857 6.655L1.82 8.467l9.915-6.629zM1.37 9.223l10.116 6.741v9.08L1.37 18.422v-9.2zm11.008 15.929v-9.054l9.818-6.491v5.072a4.32 4.32 0 00-3.52 4.234 3.41 3.41 0 00.375 1.64.398.398 0 00-.118.056l-6.555 4.543zm14.034-6.23a3.437 3.437 0 01-.53 1.817.505.505 0 00-.032.069l-2.92 4.662-2.8-4.942a.46.46 0 00-.13-.187c-.209-.17-.432-.687-.432-1.42a3.424 3.424 0 013.425-3.424 3.412 3.412 0 013.418 3.407v.018z" fill="#fff"/><path d="M22.994 16.824a1.89 1.89 0 00-1.89 1.883A1.883 1.883 0 0022.98 20.6h.012a1.89 1.89 0 000-3.776h.003zm.987 1.89a.997.997 0 01-.993.993.987.987 0 01-.703-.297.97.97 0 01-.297-.705.997.997 0 011.993 0v.009z" fill="#fff"/></svg>