<svg width="30" height="30" fill="none" xmlns="http://www.w3.org/2000/svg"><path d="M0 15C0 6.716 6.716 0 15 0c8.284 0 15 6.716 15 15 0 8.285-6.716 15-15 15-8.284 0-15-6.715-15-15z" fill="#6B6868"/><g clip-path="url(#clip0)"><path d="M25.881 19.84c-.034-.066-.067-.099-.067-.131-.368-.69-1.105-1.512-2.177-2.497l-.033-.033c-.502-.46-.804-.756-.938-.92-.234-.296-.301-.591-.167-.92.1-.23.435-.723 1.038-1.478.301-.395.57-.723.737-.953 1.306-1.708 1.908-2.825 1.707-3.318l-.067-.099c-.033-.066-.167-.131-.368-.197-.2-.066-.435-.066-.736-.033l-3.316.033h-.234c-.067 0-.134.033-.134.033-.033 0-.033.033-.067.033l-.033.033-.134.131c-.034.066-.1.131-.1.197-.37.92-.771 1.741-1.24 2.53-.268.46-.535.854-.77 1.215-.234.329-.435.592-.603.756a4.37 4.37 0 01-.435.394c-.134.099-.234.132-.301.132-.067 0-.134-.033-.201-.033a1.01 1.01 0 01-.268-.263 1.607 1.607 0 01-.134-.427c-.034-.164-.034-.329-.034-.46v-.986c0-.295 0-.591.034-.92 0-.328.033-.59.033-.788v-.624c0-.23 0-.394-.033-.526a1.586 1.586 0 00-.134-.361.613.613 0 00-.234-.263c-.1-.066-.235-.099-.369-.164-.402-.099-.904-.132-1.54-.132-1.407 0-2.344.066-2.746.263a2.142 2.142 0 00-.435.329c-.134.164-.168.262-.067.262.469.066.77.23.97.493l.068.132c.067.098.1.263.167.525.067.263.1.526.1.822a9.865 9.865 0 010 1.412c-.033.395-.066.69-.1.92-.033.23-.1.395-.167.526s-.1.23-.134.263l-.067.065a.988.988 0 01-.301.066c-.1 0-.235-.066-.402-.164-.168-.099-.302-.263-.47-.427a11.506 11.506 0 01-.568-.756 9.623 9.623 0 01-.637-1.183l-.167-.328-.469-.92c-.2-.394-.368-.789-.536-1.15a1.03 1.03 0 00-.267-.361l-.067-.033a.735.735 0 00-.168-.099c-.1-.033-.167-.065-.268-.065l-3.147.032c-.335 0-.536.066-.637.23l-.033.066c-.034.033-.034.099-.034.164 0 .099.034.197.067.296.47 1.051.971 2.07 1.507 3.056.536.985 1.005 1.774 1.407 2.365.401.591.803 1.15 1.205 1.708.402.526.67.887.804 1.019.134.164.234.263.301.328l.302.263c.167.164.468.394.803.657.368.263.737.493 1.172.756.436.23.938.427 1.507.591.57.164 1.139.23 1.674.197h1.306c.268-.033.469-.098.603-.263l.034-.065a.53.53 0 00.1-.197.893.893 0 00.033-.296c0-.329.034-.624.067-.887a3.01 3.01 0 01.201-.591c.067-.132.168-.23.235-.329.1-.099.167-.131.2-.164.034-.033.068-.033.101-.033.168-.066.402 0 .636.164.235.164.47.394.704.657.234.263.468.559.77.887.301.329.569.559.803.723l.235.131c.167.099.335.165.602.263.235.066.47.099.637.066l2.946-.033c.302 0 .503-.033.67-.131.168-.099.268-.197.302-.296a.785.785 0 000-.394c0-.329-.034-.427-.034-.493z" fill="#fff"/></g><defs><clipPath id="clip0"><path fill="#fff" transform="translate(4 4)" d="M0 0h22v22H0z"/></clipPath></defs></svg>