<svg width="26" height="26" fill="none" xmlns="http://www.w3.org/2000/svg"><path d="M26 13c0 7.18-5.82 13-13 13S0 20.18 0 13 5.82 0 13 0s13 5.82 13 13z" fill="#D2D5D3"/><path d="M17.962 11.907v-1.772h-1.181v1.772h-1.772v1.182h1.772v1.772h1.181v-1.772h1.773v-1.182h-1.773zm-4.548 2.009l-.65-.473c-.236-.177-.473-.413-.473-.827 0-.413.296-.768.591-.945.768-.59 1.536-1.24 1.536-2.54 0-1.24-.768-1.95-1.181-2.304h1.004L14.95 6h-3.663C8.688 6 7.388 7.654 7.388 9.426c0 1.359 1.064 2.836 2.954 2.836h.473c-.06.177-.237.472-.237.768 0 .59.237.827.532 1.181-.827.059-2.363.236-3.485.945-1.064.65-1.359 1.536-1.359 2.186C6.266 18.7 7.506 20 10.165 20c3.19 0 4.726-1.772 4.726-3.485 0-1.24-.65-1.89-1.477-2.6zM8.924 8.54c0-1.3.768-1.89 1.595-1.89 1.536 0 2.363 2.067 2.363 3.249 0 1.536-1.24 1.831-1.713 1.831-1.477 0-2.245-1.831-2.245-3.19zm2.127 10.633c-1.95 0-3.19-.886-3.19-2.186 0-1.3 1.181-1.713 1.536-1.89.768-.236 1.772-.295 1.95-.295h.413c1.418 1.004 2.008 1.417 2.008 2.363 0 1.122-1.122 2.008-2.717 2.008z" fill="#fff"/></svg>