<svg width="30" height="30" fill="none" xmlns="http://www.w3.org/2000/svg"><g clip-path="url(#clip0)" fill="#000"><path d="M15 0a9.92 9.92 0 00-2.61.349.619.619 0 10.325 1.193 8.682 8.682 0 012.284-.305c4.775 0 8.66 3.885 8.66 8.66 0 4.437-1.77 6.17-3.33 7.699-1.017.995-1.983 1.942-2.194 3.435h-6.271c-.212-1.493-1.178-2.44-2.194-3.435-1.561-1.53-3.33-3.262-3.33-7.7 0-2.044.726-4.03 2.046-5.588a.619.619 0 10-.945-.8 9.901 9.901 0 00-2.338 6.389c0 4.957 2.052 6.967 3.701 8.582.94.92 1.652 1.619 1.825 2.664a2.013 2.013 0 00-1.351 1.898c0 .893.585 1.651 1.391 1.913v1.335h-.154a.619.619 0 000 1.237h.154v.618c0 1.024.833 1.856 1.856 1.856h4.949a1.858 1.858 0 001.855-1.856v-.618h.155a.619.619 0 000-1.237h-.155v-1.335a2.013 2.013 0 001.392-1.913c0-.877-.565-1.625-1.351-1.898.173-1.045.886-1.744 1.825-2.664 1.649-1.615 3.701-3.625 3.701-8.582C24.896 4.44 20.456 0 15 0zm3.092 28.144a.62.62 0 01-.618.619h-4.949a.62.62 0 01-.618-.619v-.618h6.185v.618zm-6.185-1.855v-1.237h6.185v1.237h-6.185zm6.804-2.475h-7.423a.774.774 0 010-1.546h7.423a.774.774 0 010 1.546zM2.628 10.515a.619.619 0 000-1.237H1.205a.619.619 0 000 1.237h1.423zm1.348 5.032l-2.464 1.422a.619.619 0 10.618 1.072l2.464-1.423a.619.619 0 10-.618-1.071zm24.51 1.423l-2.464-1.423a.619.619 0 00-.619 1.071l2.464 1.423a.615.615 0 00.845-.227.619.619 0 00-.226-.845zm.307-7.692h-1.422a.619.619 0 000 1.237h1.422a.619.619 0 100-1.237zm-3.08-4.948a.616.616 0 00.309-.083l2.464-1.423a.618.618 0 10-.619-1.071l-2.464 1.423a.619.619 0 00.31 1.154zM4.594 3.176L2.13 1.753a.618.618 0 10-.618 1.071l2.464 1.423a.616.616 0 00.845-.226.618.618 0 00-.227-.845z"/><path d="M17.024 13.443c.264-.396.777-.926 1.244-1.394a4.677 4.677 0 001.37-3.292 4.609 4.609 0 00-1.358-3.28A4.609 4.609 0 0015 4.118a4.609 4.609 0 00-3.28 1.359 4.608 4.608 0 00-1.36 3.28c0 1.024.833 1.856 1.856 1.856a1.858 1.858 0 001.856-1.856c0-.248.096-.48.271-.656A.922.922 0 0115 7.83c.248 0 .481.097.657.272a.922.922 0 01.271.656.917.917 0 01-.283.668c-.844.844-1.338 1.414-1.708 1.97-.54.812-.792 1.583-.792 2.425 0 .475.18.908.474 1.237a1.849 1.849 0 00-.474 1.237c0 1.024.832 1.856 1.855 1.856a1.858 1.858 0 001.856-1.855c0-.476-.18-.91-.474-1.238.295-.329.474-.762.474-1.237 0-.056.03-.167.17-.377zm-2.058-1.362c.321-.483.771-1 1.553-1.781a2.147 2.147 0 00.646-1.543 2.15 2.15 0 00-.635-1.53A2.15 2.15 0 0015 6.591a2.15 2.15 0 00-1.531.634 2.15 2.15 0 00-.634 1.531.62.62 0 01-1.238 0c0-.908.354-1.762.997-2.405a3.38 3.38 0 012.405-.997 3.38 3.38 0 012.406.997 3.38 3.38 0 01.734 3.708c-.175.42-.427.795-.746 1.115-.733.732-1.138 1.191-1.399 1.583-.256.386-.376.723-.376 1.062a.62.62 0 01-1.237 0c0-.595.18-1.132.585-1.74zm.652 4.213a.62.62 0 11-1.238 0 .62.62 0 011.238 0zm-5.61-13.601a.619.619 0 000-1.237h-.001a.618.618 0 100 1.237z"/></g><defs><clipPath id="clip0"><path fill="#fff" d="M0 0h30v30H0z"/></clipPath></defs></svg>