<svg width="30" height="30" fill="none" xmlns="http://www.w3.org/2000/svg"><path d="M1.679 29.448c0 .263.213.474.476.474h25.691a.474.474 0 00.477-.474l-2.5-21a.477.477 0 00-.47-.476l-4.817-.038V5.597A5.602 5.602 0 0014.941 0a5.603 5.603 0 00-5.596 5.598v2.21l-4.685-.04a.484.484 0 00-.339.137.483.483 0 00-.142.34l-2.5 21.203zm8.618-23.85A4.65 4.65 0 0114.94.952a4.65 4.65 0 014.644 4.646V7.92l-9.288-.104v-2.22h.002z" fill="#010101"/><path d="M19.939 10.935a1.295 1.295 0 100-2.59 1.295 1.295 0 000 2.59zm-10.17 0a1.295 1.295 0 100-2.59 1.295 1.295 0 000 2.59z" fill="#fff"/></svg>