<svg width="30" height="30" fill="none" xmlns="http://www.w3.org/2000/svg"><g clip-path="url(#clip0)" fill="#000"><path d="M27.439 4C24.029.59 18.48.59 15.07 4l-.07.07-.071-.07C11.519.59 5.97.59 2.56 4A8.688 8.688 0 000 10.183c0 2.336.91 4.532 2.561 6.184l12.02 12.02c.229.228.61.228.838 0l4.948-4.948c.54-.541-.298-1.38-.838-.839L15 27.13 3.4 15.53C.453 12.58.453 7.784 3.4 4.838c2.947-2.948 7.743-2.948 10.69 0l.49.49c.23.228.61.228.84 0l.49-.49c2.947-2.948 7.743-2.948 10.69 0a7.51 7.51 0 012.214 5.344 7.51 7.51 0 01-2.214 5.345l-3.614 3.614c-.54.541.298 1.38.839.839l3.614-3.614A8.688 8.688 0 0030 10.183c0-2.336-.91-4.532-2.561-6.183z"/><path d="M22.307 21.071a.599.599 0 00-.59-.364.598.598 0 00-.528.433c-.142.513.442.942.889.658a.599.599 0 00.23-.727z"/></g><defs><clipPath id="clip0"><path fill="#fff" d="M0 0h30v30H0z"/></clipPath></defs></svg>