<svg width="19" height="19" fill="none" xmlns="http://www.w3.org/2000/svg"><path d="M16.218 2.782A9.438 9.438 0 009.5 0a9.438 9.438 0 00-6.718 2.782A9.438 9.438 0 000 9.5c0 2.537.988 4.923 2.782 6.718A9.438 9.438 0 009.5 19a9.437 9.437 0 006.718-2.782A9.437 9.437 0 0019 9.5a9.438 9.438 0 00-2.782-6.718zm-.42 13.016A8.848 8.848 0 019.5 18.406a8.848 8.848 0 01-6.298-2.608A8.848 8.848 0 01.594 9.5c0-2.379.926-4.616 2.608-6.298A8.848 8.848 0 019.5.594c2.379 0 4.616.926 6.298 2.608A8.848 8.848 0 0118.406 9.5a8.848 8.848 0 01-2.608 6.298z" fill="#000"/><path d="M1.781 9.5c0-4.256 3.463-7.719 7.719-7.719 1.535 0 3.018.45 4.288 1.3a.297.297 0 10.33-.493 8.273 8.273 0 00-4.618-1.4c-2.22 0-4.308.864-5.878 2.434A8.258 8.258 0 001.188 9.5c0 2.048.751 4.016 2.116 5.541a.296.296 0 10.442-.396A7.706 7.706 0 011.781 9.5zm14.631-4.618a.297.297 0 00-.493.33 7.681 7.681 0 011.3 4.288c0 4.256-3.463 7.719-7.72 7.719a7.735 7.735 0 01-4.86-1.722.297.297 0 00-.374.46A8.33 8.33 0 009.5 17.813c2.22 0 4.307-.864 5.877-2.434A8.258 8.258 0 0017.813 9.5c0-1.653-.484-3.25-1.4-4.618zm-1.766-1.136c.2.179.392.37.572.568a.296.296 0 00.42.02.297.297 0 00.02-.419 8.26 8.26 0 00-.616-.611.297.297 0 10-.396.442z" fill="#000"/><path d="M9.5 3.86a.297.297 0 00.297-.297v-.891a.297.297 0 00-.594 0v.89c0 .164.133.297.297.297zm-.297 11.578v.89a.297.297 0 10.594 0v-.89a.297.297 0 00-.594 0zM3.86 9.5a.297.297 0 00-.297-.297h-.891a.297.297 0 000 .594h.89A.297.297 0 003.86 9.5zm11.28 0c0 .164.134.297.297.297h.891a.297.297 0 100-.594h-.89a.297.297 0 00-.297.297zM6.79 4.21l-.446-.772a.297.297 0 00-.514.297l.445.771a.297.297 0 10.514-.296zm5.937 10.284a.297.297 0 00-.514.296l.445.772a.297.297 0 10.514-.297l-.445-.771zm-9.14-1.283a.3.3 0 00.149-.04l.77-.445a.297.297 0 10-.296-.514l-.771.445a.297.297 0 00.148.554zm11.056-6.383c.05 0 .101-.013.148-.04l.771-.445a.297.297 0 00-.297-.514l-.771.445a.297.297 0 00.149.554zm-1.58-3.498a.297.297 0 00-.405.108l-.445.772a.297.297 0 00.514.296l.445-.77a.297.297 0 00-.109-.406zM6.68 14.385a.297.297 0 00-.405.109l-.445.77a.297.297 0 10.514.298l.445-.771a.297.297 0 00-.108-.406zm7.814-1.659l.771.445a.297.297 0 10.297-.514l-.771-.445a.297.297 0 00-.297.514zM4.506 6.274l-.771-.445a.297.297 0 10-.297.514l.771.445a.295.295 0 00.406-.108.297.297 0 00-.109-.406zm7.061 7.102a.297.297 0 00.257-.445l-1.647-2.853a.892.892 0 00-.38-1.418V4.75a.297.297 0 00-.594 0v3.91a.892.892 0 00.46 1.715l1.646 2.853a.296.296 0 00.258.148zM9.203 9.5a.297.297 0 11.595 0 .297.297 0 01-.595 0z" fill="#000"/></svg>