<svg width="30" height="30" fill="none" xmlns="http://www.w3.org/2000/svg"><path d="M25.267 19.114a14.428 14.428 0 00-6.748-3.826 8.06 8.06 0 004.53-7.238C23.05 3.61 19.44 0 15 0c-4.438 0-8.05 3.611-8.05 8.05a8.06 8.06 0 004.53 7.238 14.428 14.428 0 00-6.748 3.826A14.425 14.425 0 00.48 29.38a.62.62 0 00.62.619h27.8a.62.62 0 00.619-.62 14.42 14.42 0 00-4.253-10.266zM8.189 8.05a6.819 6.819 0 016.81-6.812 6.819 6.819 0 016.812 6.812A6.819 6.819 0 0115 14.86a6.819 6.819 0 01-6.811-6.81zM1.732 28.762C2.056 21.724 7.884 16.099 15 16.099c7.116 0 12.943 5.625 13.267 12.663H1.732z" fill="#000"/><path d="M9.649 19.196a.62.62 0 00-.85-.214 12.18 12.18 0 00-5.57 7.56.62.62 0 001.204.29 10.933 10.933 0 015.002-6.787.62.62 0 00.214-.85zM15 17.275c-.948 0-1.892.11-2.806.327a.62.62 0 00.286 1.205 10.92 10.92 0 012.52-.293.62.62 0 100-1.239z" fill="#000"/></svg>