<svg width="28" height="28" fill="none" xmlns="http://www.w3.org/2000/svg"><path d="M13.671 21.47c-1.045.628-2.54.299-3.167-.687l-4.482-7.261c-.628-1.016-.299-2.36.717-2.988l3.914-2.39-3.436-5.588-3.914 2.42c-3.825 2.36-3.705 8.576.299 15.06 1.822 2.988 4.153 5.348 6.514 6.663 1.404.777 2.749 1.165 4.034 1.165 1.075 0 2.091-.268 2.987-.836l3.765-2.33-3.436-5.588-3.795 2.36zm2.839 4.572c-2.032 1.255-4.303.508-5.827-.359-2.18-1.225-4.362-3.436-6.095-6.275C.942 13.492.643 7.964 3.9 5.932L6.83 4.14l2.21 3.586-2.927 1.793a3.336 3.336 0 00-1.076 4.601l4.482 7.232c.956 1.553 3.167 2.061 4.751 1.075l2.779-1.733 2.211 3.586-2.749 1.763zm1.195-15.06a5.156 5.156 0 01.568 4.482l1.106.359a6.307 6.307 0 00-.688-5.469 6.437 6.437 0 00-4.96-2.868l-.06 1.165c1.644.06 3.108.927 4.034 2.331z" fill="#000"/><path d="M14.508 3.602l-.12 1.165c2.72.299 5.11 1.793 6.604 4.093a9.03 9.03 0 011.106 7.47l1.135.33c.807-2.87.359-5.947-1.255-8.427-1.703-2.6-4.422-4.303-7.47-4.631z" fill="#000"/><path d="M24.877 6.29A13.794 13.794 0 0015.255.166l-.15 1.166a12.63 12.63 0 018.815 5.587 12.624 12.624 0 011.614 10.13l1.135.299A14.03 14.03 0 0024.876 6.29z" fill="#000"/></svg>