<svg width="400" height="119" fill="none" xmlns="http://www.w3.org/2000/svg"><g clip-path="url(#clip0)"><path d="M.5 0v119" stroke="#F04E23"/><path d="M12.388 116.379h-.718v-2.983H8.18v2.983h-.718v-6.502h.719v2.915h3.49v-2.915h.717v6.502zm12.004.116c-.421 0-.81-.077-1.163-.234a2.733 2.733 0 01-.92-.662 2.957 2.957 0 01-.6-1.007 3.626 3.626 0 01-.218-1.279v-.255c0-.504.077-.957.227-1.362.148-.408.353-.754.607-1.039.256-.288.55-.509.884-.665a2.476 2.476 0 011.055-.235c.412 0 .777.076 1.095.224.32.148.586.354.804.617.218.268.382.581.493.945.11.362.168.762.168 1.195v.441h-4.621v.134c0 .359.055.691.164 1.008.106.313.261.586.452.817.198.233.432.419.7.552.275.133.576.199.904.199.385 0 .724-.071 1.016-.209.292-.138.56-.366.798-.674l.447.344a3.028 3.028 0 01-.374.442c-.141.137-.307.26-.492.365a2.72 2.72 0 01-.635.249 3.104 3.104 0 01-.79.089zm-.128-6.125c-.271 0-.522.053-.754.157a1.944 1.944 0 00-.614.441 2.422 2.422 0 00-.436.696c-.115.27-.188.568-.23.895h3.885v-.077a3.02 3.02 0 00-.13-.791 2.117 2.117 0 00-.349-.677 1.69 1.69 0 00-.572-.471 1.774 1.774 0 00-.8-.173zm15.139 5.033l2.572-5.528h.886v6.501h-.72v-5.337l-2.486 5.337h-.51l-2.539-5.459v5.459h-.712v-6.501h.94l2.569 5.528zm15.477 1.092c-.424 0-.813-.077-1.163-.234a2.714 2.714 0 01-.921-.662 3.042 3.042 0 01-.602-1.007 3.626 3.626 0 01-.217-1.279v-.255c0-.504.077-.957.227-1.362.15-.408.352-.754.606-1.039.255-.288.55-.509.886-.665.33-.155.686-.235 1.054-.235.41 0 .776.076 1.094.224.318.148.588.354.804.617.22.268.382.581.49.945.115.362.172.762.172 1.195v.441h-4.62v.134c0 .359.053.691.16 1.008.11.313.26.586.455.817.197.233.429.419.704.552.27.133.57.199.902.199.381 0 .721-.071 1.014-.209.292-.138.559-.366.794-.674l.45.344c-.107.153-.23.303-.374.442-.14.137-.305.26-.492.365a2.68 2.68 0 01-.634.249 3.11 3.11 0 01-.788.089zm-.134-6.125a1.8 1.8 0 00-.751.157 1.903 1.903 0 00-.614.441 2.397 2.397 0 00-.438.696c-.112.27-.19.568-.229.895H56.6v-.077a2.874 2.874 0 00-.13-.791 2.053 2.053 0 00-.353-.677 1.631 1.631 0 00-.569-.471 1.731 1.731 0 00-.8-.173zm11.605-.494h.716v5.894h3.489v-5.894h.719v5.894h.659l-.055 2.533h-.659v-1.926h-4.869v-6.501zm16.275 3.52h-.994v2.983h-.724v-6.502h.724v2.885h.983l2.375-2.885h.901l-2.658 3.154 2.95 3.348h-.943l-2.614-2.983zm16.431-3.52h.716v6.501h-.716v-5.344l-3.496 5.346h-.711v-6.502h.711v5.347l3.496-5.348zm12.724 6.619a2.744 2.744 0 01-2.087-.896 2.988 2.988 0 01-.599-1.007 3.626 3.626 0 01-.217-1.279v-.255c0-.504.076-.957.224-1.362a3.19 3.19 0 01.609-1.039c.255-.288.55-.509.883-.665a2.483 2.483 0 011.057-.235c.412 0 .774.076 1.094.224.317.148.585.354.804.617.217.268.383.581.493.945.109.362.169.762.169 1.195v.441h-4.619v.134c0 .359.052.691.159 1.008.11.313.262.586.455.817.197.233.431.419.699.552.274.133.574.199.904.199.383 0 .724-.071 1.014-.209.295-.138.559-.366.799-.674l.448.344a3.404 3.404 0 01-.372.442c-.143.137-.312.26-.495.365a2.67 2.67 0 01-.633.249 3.102 3.102 0 01-.789.089zm-.13-6.125c-.272 0-.524.053-.754.157a1.92 1.92 0 00-.614.441 2.342 2.342 0 00-.435.696c-.115.27-.191.568-.231.895h3.885v-.077a2.993 2.993 0 00-.128-.791 2.206 2.206 0 00-.35-.677 1.737 1.737 0 00-.571-.471 1.805 1.805 0 00-.802-.173zm28.424 5.033l2.572-5.528h.888v6.501h-.721v-5.337l-2.487 5.337h-.512l-2.536-5.459v5.459h-.712v-6.501h.938l2.57 5.528zm17.058.976a2.028 2.028 0 01-.092-.415 6.566 6.566 0 01-.045-.494c-.11.138-.233.273-.382.396a2.496 2.496 0 01-.497.326 2.872 2.872 0 01-1.316.304c-.316 0-.602-.044-.859-.134a1.945 1.945 0 01-.656-.387 1.745 1.745 0 01-.574-1.32c0-.32.069-.603.204-.857.136-.253.329-.47.585-.647.255-.179.567-.316.931-.409a4.984 4.984 0 011.231-.143h1.328v-.738c0-.464-.14-.829-.429-1.096-.283-.268-.699-.401-1.246-.401-.25 0-.482.033-.693.104-.212.067-.394.16-.547.28-.154.121-.274.26-.359.42a1.06 1.06 0 00-.128.506l-.716-.005c0-.243.059-.483.177-.712.12-.226.286-.43.505-.606.219-.179.479-.322.786-.43a2.934 2.934 0 011.011-.165c.345 0 .662.044.949.135.288.084.535.219.742.392.212.179.372.397.488.66.114.266.174.575.174.928v3.145c0 .116.005.229.012.349.007.12.02.237.035.347.022.114.041.22.067.325.025.102.05.19.081.266v.076h-.767zm-2.251-.518c.262 0 .499-.035.724-.1a2.261 2.261 0 001.066-.679c.13-.155.24-.322.316-.504v-1.429h-1.225c-.367 0-.692.033-.986.098a2.579 2.579 0 00-.734.285 1.349 1.349 0 00-.456.455 1.143 1.143 0 00-.158.602 1.177 1.177 0 00.39.897c.127.116.279.209.457.271.179.069.382.104.606.104zm16.359-5.366h-3.273v5.884h-.719v-6.502h3.988v.619h.004v-.001zm12.806 5.884a2.164 2.164 0 01-.093-.415 6.566 6.566 0 01-.045-.494 2.588 2.588 0 01-.877.722 2.923 2.923 0 01-.605.222 2.78 2.78 0 01-.711.082 2.58 2.58 0 01-.859-.134 1.93 1.93 0 01-.657-.387 1.76 1.76 0 01-.574-1.32c0-.32.07-.603.205-.857.135-.253.33-.47.585-.647.254-.179.564-.316.933-.409a4.965 4.965 0 011.228-.143h1.328v-.738c0-.464-.14-.829-.429-1.096-.282-.268-.699-.401-1.246-.401-.25 0-.481.033-.692.104-.212.067-.395.16-.547.28-.152.121-.277.26-.362.42a1.082 1.082 0 00-.127.506l-.719-.005c0-.243.06-.483.178-.712.12-.226.288-.43.507-.606.217-.179.479-.322.784-.43a2.937 2.937 0 011.013-.165c.343 0 .657.044.95.135.287.084.534.219.742.392.207.179.371.397.482.66.117.266.174.575.174.928v3.145a5.758 5.758 0 00.053.696c.019.114.037.22.064.325.025.102.053.19.083.266v.076h-.766zm-2.25-.518c.258 0 .5-.035.719-.1.225-.065.424-.158.602-.275.178-.116.335-.249.467-.404.132-.155.238-.322.317-.504v-1.429h-1.226c-.367 0-.695.033-.983.098a2.58 2.58 0 00-.736.285c-.2.126-.352.277-.457.455-.107.179-.16.381-.16.602 0 .179.033.341.103.494a1.263 1.263 0 00.746.674c.182.069.382.104.608.104zm14.51-3.115c.297 0 .547-.026.752-.079.202-.053.369-.13.494-.233a.878.878 0 00.279-.362c.055-.14.081-.297.081-.476a1.26 1.26 0 00-.088-.477.968.968 0 00-.288-.385 1.464 1.464 0 00-.506-.265 2.486 2.486 0 00-.755-.099c-.229 0-.442.03-.647.092a1.886 1.886 0 00-.533.258 1.298 1.298 0 00-.367.399c-.09.158-.133.326-.133.511h-.711c0-.284.064-.54.192-.769.13-.234.305-.428.524-.59.222-.163.474-.286.764-.375.288-.088.592-.132.911-.132.367 0 .697.039.991.121.288.078.537.197.74.354.202.157.359.347.466.575.108.23.165.492.165.793 0 .314-.098.597-.288.845-.192.253-.471.449-.839.592.421.115.733.306.938.564.207.266.309.591.309.982a1.66 1.66 0 01-.684 1.397 2.43 2.43 0 01-.781.373 3.65 3.65 0 01-1.007.129c-.297 0-.594-.039-.894-.118-.3-.078-.569-.2-.807-.361a2 2 0 01-.581-.616 1.666 1.666 0 01-.227-.883h.722c0 .187.042.367.13.534.085.169.212.317.372.438.159.126.347.224.569.298.219.069.459.105.716.105.288 0 .542-.033.762-.096.217-.065.399-.154.547-.27.147-.113.254-.247.329-.404.077-.156.112-.33.112-.515 0-.435-.14-.749-.427-.944-.282-.191-.716-.285-1.296-.285h-.991v-.627h.985v.001zm15.859-2.87h.719v6.501h-.719v-5.344l-3.493 5.344h-.714v-6.501h.714v5.347l3.493-5.347zm15.192 6.503h-.719v-2.983h-3.488v2.983h-.719v-6.502h.719v2.915h3.488v-2.915h.719v6.502zm10.291-4.142h1.858c.382 0 .719.052 1.014.158a2.1 2.1 0 01.744.431c.2.179.353.397.455.65.102.252.152.525.152.822 0 .295-.05.57-.152.823a1.88 1.88 0 01-.455.66 2.242 2.242 0 01-.744.439 3.102 3.102 0 01-1.014.157h-2.569v-6.5h.711v2.36zm0 .614v2.92h1.858c.298 0 .55-.041.762-.125a1.42 1.42 0 00.512-.325c.127-.131.226-.287.285-.465a1.654 1.654 0 000-1.079 1.374 1.374 0 00-.285-.471 1.474 1.474 0 00-.512-.332 2.06 2.06 0 00-.762-.126h-1.858v.003zm6.42 3.528h-.719v-6.502h.719v6.502z" fill="#F04E23"/><path d="M269.098 115.343l1.892-5.468h.774l-2.742 7.54a7.65 7.65 0 01-.212.496 2.175 2.175 0 01-.335.518 1.718 1.718 0 01-.517.406 1.565 1.565 0 01-.887.156 1.183 1.183 0 01-.155-.023c-.052-.007-.099-.017-.145-.025-.045-.01-.082-.024-.112-.027l-.007-.594c.048.008.115.015.195.026a1.538 1.538 0 00.688-.065c.143-.05.277-.125.383-.221.112-.099.207-.224.29-.372.083-.148.162-.318.229-.511l.31-.858-2.44-6.447h.784l2.007 5.469zm24.721 1.036v-6.502h2.375c.394 0 .749.035 1.061.108.312.07.585.175.804.316.222.141.39.324.507.541.117.218.178.476.178.772 0 .326-.1.612-.293.87-.197.253-.482.438-.856.554.217.04.412.11.585.204.171.095.319.214.44.347.121.139.216.287.279.457.069.168.102.344.102.531 0 .298-.06.564-.172.788a1.569 1.569 0 01-.482.561 2.262 2.262 0 01-.757.338 3.874 3.874 0 01-.983.117l-2.788-.002zm.711-3.597h1.813c.56-.007.981-.108 1.264-.3.279-.196.424-.48.424-.851 0-.393-.155-.687-.464-.867-.31-.182-.767-.274-1.373-.274h-1.664v2.292zm0 .603v2.392h2.078c.537 0 .951-.107 1.246-.313.288-.209.433-.51.433-.903 0-.361-.145-.646-.433-.857-.295-.212-.709-.319-1.246-.319h-2.078zm17.737 2.994a2.23 2.23 0 01-.095-.415 5.304 5.304 0 01-.042-.494c-.11.138-.235.273-.383.396a2.54 2.54 0 01-.495.326 2.947 2.947 0 01-.606.222 2.77 2.77 0 01-.709.082c-.32 0-.602-.044-.859-.134a1.965 1.965 0 01-.66-.387 1.723 1.723 0 01-.421-.586c-.1-.225-.15-.471-.15-.734 0-.32.067-.603.205-.857.132-.253.329-.47.584-.647.253-.179.565-.316.931-.409a4.973 4.973 0 011.229-.143h1.328v-.738c0-.464-.14-.829-.427-1.096-.285-.268-.699-.401-1.246-.401-.252 0-.483.033-.695.104-.212.067-.395.16-.547.28-.152.121-.272.26-.359.42a1.047 1.047 0 00-.127.506l-.719-.005c0-.243.062-.483.178-.712.122-.226.288-.43.504-.606.22-.179.482-.322.786-.43a2.943 2.943 0 011.014-.165c.342 0 .659.044.947.135.29.084.537.219.744.392.21.179.372.397.485.66.115.266.174.575.174.928v3.145a5.183 5.183 0 00.05.696c.02.114.041.22.065.325.024.102.052.19.083.266v.076h-.767zm-2.251-.518c.259 0 .499-.035.721-.1.222-.065.422-.158.6-.275.177-.116.335-.249.469-.404.128-.155.235-.322.316-.504v-1.429h-1.225c-.367 0-.692.033-.986.098-.29.068-.534.165-.734.285a1.387 1.387 0 00-.459.455 1.17 1.17 0 00-.157.602c0 .179.03.341.102.494.067.156.165.289.288.403.127.116.279.209.459.271.183.069.383.104.606.104zm14.719.028c.229 0 .444-.031.654-.097.21-.068.395-.164.559-.293.165-.127.298-.284.402-.474.108-.188.17-.408.186-.654h.686a2.02 2.02 0 01-.23.852 2.274 2.274 0 01-.544.675 2.561 2.561 0 01-.784.439 2.693 2.693 0 01-.933.158c-.452 0-.854-.081-1.194-.247a2.476 2.476 0 01-.864-.689 3.045 3.045 0 01-.529-1.03 4.397 4.397 0 01-.176-1.278V113c0-.454.057-.882.176-1.278.12-.391.29-.735.524-1.028.23-.288.522-.517.867-.688.342-.168.739-.251 1.192-.251.348 0 .669.054.964.165.297.108.557.262.781.461.222.201.397.443.531.732.131.284.205.603.222.958h-.686a1.972 1.972 0 00-.176-.711 1.636 1.636 0 00-.947-.872 1.957 1.957 0 00-.687-.119c-.372 0-.684.072-.94.215a1.796 1.796 0 00-.633.586 2.466 2.466 0 00-.355.842 4.148 4.148 0 00-.112.989v.254c0 .351.035.683.112 1.001.074.32.19.596.352.841.162.244.372.434.635.583.259.14.576.209.947.209zm24.643-.118c.112-.14.23-.296.364-.476.127-.176.253-.399.365-.667a5.87 5.87 0 00.299-.982c.083-.386.14-.862.165-1.423l.107-2.348h3.825v5.893h.671v2.519h-.714v-1.911h-4.864v1.911h-.687l.007-2.519.462.003zm1.904-3.548a9.784 9.784 0 01-.124 1.227c-.064.364-.14.69-.235.98a4.347 4.347 0 01-.329.76c-.127.22-.255.411-.387.581h3.577v-5.221h-2.422l-.08 1.673zm12.46.807c0-.473.072-.909.21-1.311.135-.398.33-.744.584-1.033.249-.292.554-.521.909-.685a2.764 2.764 0 011.185-.246c.44 0 .842.081 1.199.246.357.164.662.391.914.685.25.285.445.635.579 1.033.135.402.204.841.204 1.311v.199c0 .472-.069.908-.204 1.309a3.06 3.06 0 01-.579 1.036 2.762 2.762 0 01-.911.682 2.85 2.85 0 01-1.191.239c-.44 0-.838-.078-1.193-.239a2.679 2.679 0 01-.911-.682 2.994 2.994 0 01-.585-1.036 4.005 4.005 0 01-.21-1.309v-.199zm.719.2c0 .356.05.694.145 1.018.098.323.233.603.419.846.181.241.41.433.682.583.276.143.584.214.935.214.352 0 .662-.071.931-.214a2.11 2.11 0 00.681-.583c.183-.243.324-.526.419-.846.096-.324.143-.662.143-1.018v-.199a3.5 3.5 0 00-.143-1.006 2.67 2.67 0 00-.419-.85 2.135 2.135 0 00-.686-.586 1.948 1.948 0 00-.938-.219c-.345 0-.654.072-.926.219a2.103 2.103 0 00-.679.586c-.182.246-.324.53-.419.85a3.541 3.541 0 00-.145 1.006v.199zm17.713 2.173l2.57-5.528h.888v6.501h-.717v-5.337l-2.491 5.337h-.51l-2.534-5.459v5.459h-.712v-6.501h.939l2.567 5.528zm17.061.976a1.687 1.687 0 01-.095-.415 4.444 4.444 0 01-.045-.494 2.588 2.588 0 01-.875.722 3.14 3.14 0 01-.607.222 2.798 2.798 0 01-.712.082 2.61 2.61 0 01-.861-.134 2 2 0 01-.657-.387 1.763 1.763 0 01-.571-1.32c0-.32.069-.603.205-.857.132-.253.33-.47.584-.647.253-.179.565-.316.931-.409a4.99 4.99 0 011.231-.143h1.328v-.738c0-.464-.143-.829-.429-1.096-.283-.268-.699-.401-1.246-.401a2.17 2.17 0 00-.695.104c-.209.067-.39.16-.547.28-.152.121-.272.26-.359.42a1.048 1.048 0 00-.128.506l-.717-.005c0-.243.06-.483.178-.712.122-.226.288-.43.505-.606.219-.179.481-.322.787-.43a2.922 2.922 0 011.011-.165c.342 0 .662.044.949.135.288.084.538.219.745.392.207.179.369.397.482.66.12.266.174.575.174.928v3.145c0 .116.005.229.013.349a3.987 3.987 0 00.104.672c.022.102.048.19.081.266v.076h-.764zm-2.254-.518c.259 0 .499-.035.721-.1a2.21 2.21 0 00.602-.275c.18-.116.335-.249.469-.404.13-.155.233-.322.317-.504v-1.429h-1.226a4.54 4.54 0 00-.988.098 2.614 2.614 0 00-.734.285 1.387 1.387 0 00-.459.455 1.203 1.203 0 00-.055 1.096c.067.156.162.289.288.403.126.116.279.209.459.271.183.069.383.104.606.104zm-.473-46.997h-17.68v7.7h6.499c2.32 0 4.412.301 6.271.9 1.858.603 3.438 1.449 4.733 2.541a11.067 11.067 0 012.992 3.96c.696 1.547 1.046 3.266 1.046 5.162 0 1.91-.35 3.651-1.046 5.228a11.465 11.465 0 01-2.992 4.052c-1.295 1.13-2.874 2.009-4.733 2.636-1.86.628-3.948.942-6.271.942h-14.743V62.23h25.92v6.634h.004zm-17.68 14.31v12.234h6.499c1.143 0 2.145-.169 3.006-.506.862-.336 1.581-.79 2.152-1.363a5.557 5.557 0 001.276-2.01 7.05 7.05 0 00.424-2.459c0-.836-.14-1.613-.424-2.333a4.979 4.979 0 00-1.276-1.87c-.571-.528-1.29-.943-2.152-1.242-.861-.301-1.863-.452-3.006-.452h-6.499zm-28.479-2.158l7.209-18.785h8.811l-13.493 31.976a28.32 28.32 0 01-1.587 3.183 11.198 11.198 0 01-2.152 2.659c-.842.767-1.847 1.376-3.006 1.831-1.161.454-2.539.683-4.134.683-.203 0-.432-.005-.692-.011a30.217 30.217 0 00-.792-.027c-.262-.013-.515-.02-.76-.027-.244-.008-.449-.026-.611-.039l-.083-6.584c.11.021.264.037.462.055a14.591 14.591 0 001.211.059h.449c.781 0 1.438-.088 1.971-.263.533-.174.985-.422 1.346-.75.364-.329.662-.725.897-1.189.235-.463.462-.987.681-1.568l.624-1.64-13.893-28.35h8.781l8.761 18.787zM273.1 85.74h-4.704v16.246h-8.158V62.23h8.158v15.919h3.729l9.681-15.92h9.957l-12.215 18.814 13.493 20.945h-9.738L273.1 85.741zm-31.805-20.643h-20.536v36.891h-3.346V62.23h23.884v2.867h-.002zm-71.702-2.867v39.756h-3.346v-36.89h-16.728l-.736 15.103c-.159 3.858-.437 7.162-.828 9.913-.393 2.747-.999 5.001-1.823 6.755-.826 1.76-1.908 3.05-3.251 3.88-1.34.827-3.024 1.242-5.056 1.242h-1.171v-2.84h1.033c1.343 0 2.472-.298 3.388-.898.917-.603 1.673-1.626 2.268-3.072.597-1.452 1.064-3.39 1.39-5.817.327-2.432.572-5.485.734-9.162l.873-17.967 23.253-.003zm-42.876 28.617h-17.979l-4.08 11.139h-3.513l14.989-39.756h3.183l14.989 39.756h-3.479l-4.11-11.14zm-16.944-2.869h15.883l-7.942-21.653-7.941 21.653zM64.29 90.847H46.31l-4.08 11.139h-3.51L53.71 62.23h3.178l14.991 39.756H68.4l-4.11-11.14zm-16.947-2.869h15.885l-7.944-21.653-7.94 21.653zm53.722-22.881H87.49v36.891h-3.346V65.097H70.6V62.23h30.466v2.867zm-84.81 18.24h-5.44v18.651H7.47V62.23h3.345v18.24h5.277l15.311-18.24h4.215L19.356 81.78l17.465 20.208h-4.165l-16.4-18.65zM328.372 62.23v39.756h-8.187V68.864h-10.499l-.462 11.277c-.181 4.026-.569 7.424-1.157 10.2-.589 2.777-1.423 5.025-2.504 6.756-1.078 1.73-2.424 2.976-4.037 3.743-1.611.762-3.534 1.148-5.766 1.148h-2.04v-6.58h1.091c1.266-.127 2.284-.455 3.046-.985.761-.528 1.361-1.373 1.797-2.54.433-1.164.74-2.699.924-4.6.18-1.904.332-4.282.464-7.142l.759-17.913 26.571.002zM208.953 84.267c0 2.783-.362 5.299-1.09 7.547-.726 2.25-1.754 4.169-3.084 5.75a13.657 13.657 0 01-4.857 3.67c-1.904.867-4.025 1.3-6.366 1.3-2.318 0-4.427-.433-6.323-1.3a13.994 13.994 0 01-4.881-3.67c-1.359-1.581-2.413-3.5-3.156-5.75-.742-2.248-1.114-4.764-1.114-7.547v-4.26c0-2.786.372-5.308 1.114-7.566.742-2.257 1.785-4.18 3.127-5.775a13.715 13.715 0 014.856-3.686c1.893-.865 4.001-1.298 6.323-1.298 2.337 0 4.46.433 6.364 1.297a13.87 13.87 0 014.886 3.687c1.345 1.594 2.385 3.518 3.111 5.775.728 2.258 1.09 4.78 1.09 7.566v4.26zm-3.346-4.316c0-2.35-.274-4.468-.816-6.363-.542-1.89-1.333-3.498-2.365-4.818a10.583 10.583 0 00-3.808-3.058c-1.506-.72-3.21-1.078-5.111-1.078-1.87 0-3.551.359-5.048 1.078a10.703 10.703 0 00-3.808 3.058c-1.044 1.32-1.842 2.928-2.392 4.818-.557 1.894-.836 4.014-.836 6.364v4.315c0 2.367.283 4.496.845 6.389.564 1.893 1.371 3.504 2.422 4.833a10.603 10.603 0 003.82 3.058c1.497.712 3.179 1.063 5.046 1.063 1.922 0 3.631-.351 5.128-1.063a10.306 10.306 0 003.782-3.058c1.024-1.329 1.803-2.94 2.34-4.833.534-1.893.801-4.022.801-6.389v-4.316z" fill="#000"/></g><defs><clipPath id="clip0"><path fill="#fff" d="M0 0h400v119H0z"/></clipPath></defs></svg>