<svg width="50" height="86" fill="none" xmlns="http://www.w3.org/2000/svg"><g clip-path="url(#clip0)"><path d="M.5-19V83" stroke="#F04E23"/><path d="M21.111 48.955h-4.815v16.403H8.025V25.275h8.271v16.033h3.827l9.753-16.033H40L27.654 44.268l13.704 21.09h-9.876l-10.37-16.403zM8.519 81.514V75.1h.74v2.96l.741-.74c.247-.247.617-.494.864-.864l.741-.74c.247-.246.37-.493.617-.616h.988c-.247.246-.37.493-.617.74l-.865.863c-.246.247-.493.493-.864.74-.37.247-.494.493-.74.617.246.123.617.37.864.616.37.247.617.617.864.864.247.37.617.616.864.986s.494.617.617.864h-.987c-.247-.247-.37-.617-.741-.987-.37-.37-.494-.617-.864-.863-.247-.247-.617-.494-.864-.74-.247-.247-.618-.37-.741-.617v3.207h-.617v.123zm10.617-5.674v1.974c0 .247-.124.617-.124.863 0 .247-.123.617-.247.864l-.37.74c-.123.246-.247.493-.494.616s-.37.37-.617.493c-.247.124-.494.247-.864.247l-.124-.617c.37-.123.741-.246.988-.493.247-.246.494-.616.617-1.11.124-.493.247-.986.37-1.603 0-.617.124-1.233.124-1.973v-.74h3.95v6.413h-.863V75.84h-2.346zm9.259 5.797a20.071 20.071 0 01-.74-1.603 20.071 20.071 0 00-.741-1.603c-.247-.617-.37-1.11-.618-1.604-.123-.493-.37-1.11-.494-1.603h.865c.123.37.247.863.37 1.233.123.37.247.987.494 1.357.123.493.37.987.617 1.48l.74 1.48c.124-.493.371-.987.495-1.48.123-.493.247-.863.37-1.357.123-.493.247-.863.37-1.356l.37-1.48h.742c-.247 1.233-.618 2.343-.865 3.453-.37 1.11-.74 2.22-1.11 3.083-.124.37-.371.74-.495.987-.123.247-.37.493-.493.617l-.741.37c-.247.123-.617.123-.988.123-.247 0-.37 0-.617-.123-.123 0-.247-.124-.37-.124l.123-.616s.123 0 .247.123c.123 0 .37.123.494.123.247 0 .494 0 .617-.123s.37-.123.494-.247c.123-.123.247-.246.37-.493.124-.247.37-.37.494-.617zm6.914-5.55c.123-.123.247-.246.494-.37.246-.123.37-.246.617-.246.247-.124.37-.124.617-.124h.494c.494 0 .864.124 1.234.247s.618.37.865.617c.247.246.37.616.493.986.124.37.124.864.124 1.357 0 .37 0 .74-.123 1.11-.124.37-.247.74-.494.987-.247.37-.494.616-.865.74-.37.123-.864.246-1.358.246-.617 0-1.11-.123-1.481-.37-.37-.246-.617-.493-.864-.986-.247-.37-.37-.864-.494-1.234-.123-.37-.123-.986-.123-1.48 0-.616 0-1.356.123-1.973s.247-1.11.494-1.603c.247-.494.617-.864 1.11-1.234.495-.37 1.112-.493 1.976-.616.247 0 .494 0 .617-.124h.865l.123.74c-.123 0-.247.124-.37.124-.124 0-.494.123-.988.123s-.864.123-1.235.247c-.37.123-.617.37-.864.616-.247.247-.493.494-.617.864-.123.37-.247.863-.37 1.356zm0 .864v.74c0 .37 0 .74.123 1.11 0 .37.124.74.37.986.124.247.37.494.618.74.247.124.617.247.987.247s.618-.123.865-.247a1.49 1.49 0 00.617-.616 6.01 6.01 0 00.37-.864c.124-.246.124-.616.124-.986s0-.617-.124-.987c0-.247-.123-.617-.37-.74-.124-.247-.37-.37-.617-.493a2.328 2.328 0 00-.988-.247c-.247 0-.37 0-.617.123-.247.124-.37.124-.618.247-.123.123-.37.247-.493.37-.124.123-.124.493-.247.617z" fill="#000"/></g><defs><clipPath id="clip0"><path fill="#fff" d="M0 0h50v86H0z"/></clipPath></defs></svg>