<svg width="26" height="26" fill="none" xmlns="http://www.w3.org/2000/svg"><path d="M26 13c0 7.18-5.82 13-13 13S0 20.18 0 13 5.82 0 13 0s13 5.82 13 13z" fill="#D2D5D3"/><g clip-path="url(#clip0)" fill="#fff"><path d="M13 6c-1.93 0-3.5 1.57-3.5 3.5S11.07 13 13 13s3.5-1.57 3.5-3.5S14.93 6 13 6zm0 5.25c-.965 0-1.75-.785-1.75-1.75s.785-1.75 1.75-1.75 1.75.785 1.75 1.75-.785 1.75-1.75 1.75z"/><path d="M17.641 12.903a.874.874 0 00-1.237 0 4.82 4.82 0 01-6.807 0A.874.874 0 108.36 14.14a6.522 6.522 0 003.891 1.87l-2.494 2.495a.874.874 0 101.237 1.238L13 17.736l2.007 2.007a.873.873 0 001.237 0 .874.874 0 000-1.238l-2.495-2.494a6.523 6.523 0 003.891-1.871.876.876 0 00.001-1.238z"/></g><defs><clipPath id="clip0"><path fill="#fff" transform="translate(6 6)" d="M0 0h14v14H0z"/></clipPath></defs></svg>