<svg width="30" height="30" fill="none" xmlns="http://www.w3.org/2000/svg"><path d="M14.672 22.47c-1.046.628-2.54.3-3.168-.687l-4.482-7.26a2.182 2.182 0 01.717-2.989l-.298-.508.298.508 3.915-2.39-3.437-5.588-3.914 2.42c-3.825 2.361-3.705 8.576.299 15.06 1.823 2.988 4.153 5.349 6.514 6.664 1.404.777 2.749 1.165 4.034 1.165 1.075 0 2.091-.269 2.988-.837l3.765-2.33-3.437-5.588-3.794 2.36zm2.838 4.572c-2.032 1.255-4.303.508-5.826-.358-2.182-1.226-4.363-3.437-6.096-6.275-3.645-5.917-3.944-11.444-.687-13.476l-.3-.508.3.508L7.829 5.14l2.211 3.585-2.928 1.793a3.336 3.336 0 00-1.076 4.602l4.482 7.231c.956 1.554 3.168 2.062 4.751 1.076l2.78-1.733 2.21 3.585-2.749 1.763zm1.196-15.06a5.156 5.156 0 01.567 4.482l1.106.359a6.307 6.307 0 00-.687-5.468 6.437 6.437 0 00-4.96-2.869l-.06 1.166c1.643.06 3.107.926 4.034 2.33z" fill="#000"/><path d="M15.508 4.602l-.12 1.165c2.72.299 5.11 1.793 6.604 4.094a9.03 9.03 0 011.106 7.47l1.135.328c.807-2.868.359-5.946-1.255-8.426-1.703-2.6-4.422-4.303-7.47-4.631z" fill="#000"/><path d="M25.876 7.291a13.794 13.794 0 00-9.621-6.125l-.15 1.165a12.63 12.63 0 018.815 5.588 12.624 12.624 0 011.614 10.129l1.135.299A14.03 14.03 0 0025.876 7.29z" fill="#000"/></svg>