<svg width="44" height="38" fill="none" xmlns="http://www.w3.org/2000/svg"><path d="M43.233 29.148l-3.05-6.267a.743.743 0 00-.99-.341l-6.247 3.044a.742.742 0 00-.166 1.226.742.742 0 00.819.11l4.49-2.192a17.079 17.079 0 01-32.871-2.51.755.755 0 00-1.485.277 18.57 18.57 0 0035.841 2.515l2.327 4.767a.738.738 0 00.668.421.742.742 0 00.663-1.05z" fill="#000"/><path d="M21.258 29.891v3.465a.742.742 0 101.485 0v-3.465a.742.742 0 10-1.485 0zm-7.471-3.981l-2.45 2.476a.748.748 0 001.054 1.055l2.45-2.476a.747.747 0 00-1.054-1.054zM30.168 19a.743.743 0 00-.742-.743h-6.683V8.11a.742.742 0 10-1.485 0V19a.742.742 0 00.742.743h7.426a.743.743 0 00.742-.743z" fill="#000"/><path d="M4.56 15.936a.749.749 0 00.321-.075l6.248-3.05a.742.742 0 00-.649-1.33l-4.747 2.321a17.084 17.084 0 0132.579.129c.188.608.342 1.226.46 1.851a.747.747 0 00.728.6h.144a.752.752 0 00.589-.872 17.742 17.742 0 00-.495-1.98A18.475 18.475 0 0022 .436 18.663 18.663 0 004.381 13.139L2.178 8.624a.742.742 0 10-1.331.648L3.89 15.52a.743.743 0 00.668.416z" fill="#000"/></svg>