<svg width="38" height="38" fill="none" xmlns="http://www.w3.org/2000/svg"><g clip-path="url(#clip0)" fill="#fff"><path d="M23.453 19.297a.743.743 0 100 1.485.743.743 0 000-1.485z"/><path d="M7.583 27.445L.161 36.797A.742.742 0 00.743 38h36.515a.742.742 0 00.581-1.203l-7.421-9.352a.742.742 0 00-.582-.28h-6.501l5.55-8.707a11.824 11.824 0 001.99-6.583C30.875 5.327 25.55 0 19 0 12.452 0 7.125 5.327 7.125 11.875c0 2.355.688 4.631 1.99 6.583l5.55 8.706h-6.5a.742.742 0 00-.582.281zm-2.77 5.88H9.3l-2.533 3.19H2.28l2.533-3.19zm10.8-4.677l2.034 3.192h-5.274l2.533-3.192h.707zm6.776 0h.706l2.533 3.192h-5.274l2.035-3.192zm4.417 4.676l2.533 3.192H8.662l2.533-3.192h15.611zm4.428 3.192l-2.533-3.192h4.488l2.533 3.192h-4.488zm.777-4.676h-4.488l-2.533-3.192h4.488l2.533 3.192zm-21.657-14.2a10.346 10.346 0 01-1.744-5.765c0-5.73 4.661-10.39 10.39-10.39 5.73 0 10.391 4.66 10.391 10.39a10.35 10.35 0 01-1.744 5.766l-.01.013L19 31.2a460064.98 460064.98 0 00-8.646-13.56zm2.657 11.008l-2.533 3.192H5.99l2.533-3.192h4.488z"/><path d="M22.127 21.83a.742.742 0 00-1.02.252l-2.742 4.551a.742.742 0 101.27.766l2.744-4.55a.742.742 0 00-.253-1.02zM19 19.297c4.075 0 7.422-3.3 7.422-7.422 0-4.092-3.33-7.422-7.422-7.422s-7.422 3.33-7.422 7.422c0 4.123 3.349 7.422 7.422 7.422zm0-13.36a5.944 5.944 0 015.938 5.938 5.938 5.938 0 01-11.875 0A5.944 5.944 0 0119 5.937z"/></g><defs><clipPath id="clip0"><path fill="#fff" d="M0 0h38v38H0z"/></clipPath></defs></svg>