<svg width="38" height="38" fill="none" xmlns="http://www.w3.org/2000/svg"><g clip-path="url(#clip0)" fill="#fff"><path d="M19.015 31.709h-.008a.737.737 0 00-.516.217.743.743 0 00.525 1.267.743.743 0 000-1.484zm-2.413.17a.735.735 0 00-.513-.245 57.06 57.06 0 01-8.431-1.067l-.072-.015a.743.743 0 00-.28 1.458l.055.011c2.839.578 5.75.946 8.652 1.096l.039.001a.742.742 0 00.55-1.24zm14.684-.739a.743.743 0 00-.868-.59l-.075.015c-2.755.56-5.581.92-8.398 1.066a.737.737 0 00-.513.244.741.741 0 00.55 1.239h.04a58.71 58.71 0 008.62-1.095l.054-.01a.737.737 0 00.59-.868zM28.65 15.197a.743.743 0 100 1.486.743.743 0 000-1.486zm-2.973 0H9.351a.743.743 0 000 1.485h16.326a.743.743 0 000-1.485z"/><path d="M37.514 27.953c-.331-.746-.678-1.5-1.013-2.23-1.484-3.231-3.019-6.572-3.596-9.955-.328-1.814-1.709-3.187-3.403-3.48a3.716 3.716 0 00-3.647-3.028h-4.628V7.68a2.974 2.974 0 002.226-2.874 2.972 2.972 0 00-2.968-2.97c-.541 0-1.048.147-1.485.4a2.946 2.946 0 00-1.484-.4 2.972 2.972 0 00-2.968 2.97c0 1.38.947 2.544 2.226 2.874v1.58h-4.628a3.716 3.716 0 00-3.647 3.027c-1.694.293-3.075 1.668-3.404 3.488-.577 3.377-2.111 6.717-3.595 9.948-.335.73-.682 1.484-1.013 2.23-.628 1.412-.648 2.688-.059 3.793 1.055 1.975 3.758 2.822 5.843 3.185 4.18.816 8.463 1.23 12.73 1.23a66.6 66.6 0 0012.73-1.23c2.084-.363 4.787-1.21 5.841-3.185.59-1.104.57-2.38-.058-3.793zm-17.03-24.63a1.485 1.485 0 01.001 2.968A1.486 1.486 0 0119 4.807c0-.819.666-1.485 1.485-1.485zM18.259 7.68c.264-.069.513-.172.742-.305.23.134.48.237.743.305v1.58h-1.485V7.68zm-2.226-2.874a1.486 1.486 0 011.856-1.436 2.95 2.95 0 00-.372 1.436c0 .52.135 1.01.372 1.436a1.481 1.481 0 01-1.856-1.436zm-3.886 5.937h13.71c.967 0 1.791.62 2.098 1.485H10.047a2.23 2.23 0 012.099-1.485zm24.117 20.303c-.845 1.582-3.634 2.221-4.794 2.422l-.015.003A65.116 65.116 0 0119 34.676c-4.173 0-8.363-.405-12.453-1.204l-.015-.003c-1.16-.2-3.95-.84-4.794-2.422-.368-.69-.334-1.505.105-2.491.328-.738.672-1.488 1.005-2.213 1.525-3.318 3.1-6.75 3.709-10.31.208-1.153 1.175-2.32 2.62-2.32h19.647c1.445 0 2.412 1.167 2.619 2.312.61 3.569 2.185 7 3.71 10.317.333.726.677 1.476 1.005 2.214.439.986.473 1.801.105 2.49z"/></g><defs><clipPath id="clip0"><path fill="#fff" d="M0 0h38v38H0z"/></clipPath></defs></svg>