<svg width="38" height="38" fill="none" xmlns="http://www.w3.org/2000/svg"><g clip-path="url(#clip0)" fill="#fff"><path d="M37.615 8.218L22.815.092a.743.743 0 00-.714 0l-5.578 3.063a.744.744 0 00-.319.175L7.303 8.218a.742.742 0 00-.385.65v9.83a9.825 9.825 0 00-4.022 2.442 9.878 9.878 0 00-1.894 11.32.742.742 0 101.334-.652 8.393 8.393 0 011.608-9.617 8.336 8.336 0 015.934-2.458c2.241 0 4.348.873 5.933 2.458a8.336 8.336 0 012.458 5.933 8.336 8.336 0 01-2.458 5.933 8.393 8.393 0 01-9.618 1.608.742.742 0 10-.651 1.334 9.88 9.88 0 0011.319-1.892 9.875 9.875 0 002.042-2.963l3.198 1.756a.742.742 0 00.715 0l14.8-8.127a.743.743 0 00.385-.65v-5.158a.742.742 0 00-1.485 0v4.719l-13.313 7.31v-14.56l4.394-2.412v3.824a.742.742 0 001.1.65l3.171-1.745a.742.742 0 00.384-.65v-4.636l4.264-2.341v3.904a.742.742 0 101.485 0V8.869a.74.74 0 00-.386-.65zM22.46 1.588l13.257 7.28-4.182 2.297-13.258-7.28L22.46 1.59zm0 14.56L9.2 8.869l4.335-2.38 13.258 7.28-4.335 2.38zm5.877-3.227L15.08 5.641l1.655-.909 13.258 7.28-1.656.91zm-11.475 8.22a9.81 9.81 0 00-6.983-2.893c-.5 0-.992.036-1.477.109v-8.234l13.318 7.313v14.56l-2.312-1.27a9.923 9.923 0 00.346-2.603 9.81 9.81 0 00-2.892-6.983zm13.907-4.48l-1.687.929v-3.384l1.687-.927v3.382z"/><path d="M3.422 35.325a.739.739 0 01-.567-.264l-.001-.001a.742.742 0 11.568.265zm3.96-6.46a.742.742 0 00.525-1.267l-.515-.514h4.387c1.064 0 1.93.866 1.93 1.93s-.866 1.93-1.93 1.93h-2.6a.742.742 0 100 1.483h2.6a3.418 3.418 0 003.414-3.413 3.418 3.418 0 00-3.414-3.414H7.392l.514-.515a.742.742 0 00-1.05-1.05l-1.78 1.782c-.29.29-.29.76 0 1.05l1.78 1.78a.74.74 0 00.526.218zM37.258 16.25a.748.748 0 00-.525.217.748.748 0 00-.217.525c0 .195.08.387.217.525.138.138.33.217.525.217s.387-.08.525-.217a.748.748 0 00.217-.525.748.748 0 00-.217-.525.748.748 0 00-.525-.217z"/></g><defs><clipPath id="clip0"><path fill="#fff" d="M0 0h38v38H0z"/></clipPath></defs></svg>