<svg width="39" height="26" fill="none" xmlns="http://www.w3.org/2000/svg"><path d="M4.653.592H.776A.775.775 0 000 1.367v3.878a.775.775 0 101.551 0V2.143h3.102a.775.775 0 100-1.551zm32.574 0H33.35a.775.775 0 100 1.55h3.102v3.103a.775.775 0 101.55 0V1.367a.775.775 0 00-.775-.775zm0 19.388a.775.775 0 00-.775.776v3.102H33.35a.775.775 0 100 1.551h3.877a.776.776 0 00.776-.775v-3.878a.775.775 0 00-.776-.776zM4.653 23.858H1.551v-3.103a.775.775 0 10-1.551 0v3.878c0 .428.347.776.776.776h3.877a.775.775 0 100-1.551z" fill="#fff"/><path d="M34.9 21.53V4.469a.775.775 0 10-1.552 0v17.06a.776.776 0 001.551 0zM30.342 3.693a.775.775 0 00-.776.776v13.39a.775.775 0 101.551 0V4.47a.776.776 0 00-.775-.776zm0 16.882a.775.775 0 00-.776.776v.18a.775.775 0 101.551 0v-.18a.776.776 0 00-.775-.776zM26.56 3.693a.775.775 0 00-.775.776v13.39a.775.775 0 101.551 0V4.47a.775.775 0 00-.775-.776zm0 16.882a.775.775 0 00-.775.776v.18a.775.775 0 101.551 0v-.18a.775.775 0 00-.775-.776zM22.783 3.693a.775.775 0 00-.775.776v13.39a.776.776 0 101.55 0V4.47a.775.775 0 00-.775-.776zm0 16.881a.775.775 0 00-.775.776v.18a.775.775 0 101.55 0v-.18a.775.775 0 00-.775-.776zM19.002 3.693a.775.775 0 00-.775.776v13.39a.776.776 0 101.55 0V4.47a.775.775 0 00-.775-.776zm0 16.881a.775.775 0 00-.775.776v.18a.775.775 0 101.55 0v-.18a.775.775 0 00-.775-.776zM15.217 3.693a.775.775 0 00-.776.776v13.39a.776.776 0 101.551 0V4.47a.775.775 0 00-.775-.776zm0 16.881a.775.775 0 00-.776.776v.18a.775.775 0 101.551 0v-.18a.775.775 0 00-.775-.776zM11.44 3.693a.775.775 0 00-.776.776v13.39a.775.775 0 101.551 0V4.47a.775.775 0 00-.775-.776zm0 16.882a.775.775 0 00-.776.776v.18a.775.775 0 101.551 0v-.18a.775.775 0 00-.775-.776zM7.659 3.693a.775.775 0 00-.776.776v13.39a.775.775 0 101.551 0V4.47a.776.776 0 00-.775-.776zm0 16.882a.775.775 0 00-.776.776v.18a.775.775 0 101.551 0v-.18a.775.775 0 00-.775-.776zm-3.007.955V4.469a.775.775 0 10-1.55 0v17.06a.775.775 0 101.55 0z" fill="#fff"/></svg>