<svg width="38" height="38" fill="none" xmlns="http://www.w3.org/2000/svg"><g clip-path="url(#clip0)" fill="#fff"><path d="M37.615 8.218L22.815.092a.743.743 0 00-.714 0l-5.578 3.063a.744.744 0 00-.319.175L7.302 8.218a.742.742 0 00-.385.65v9.83a9.825 9.825 0 00-4.023 2.442 9.878 9.878 0 00-1.892 11.32.742.742 0 101.334-.652 8.393 8.393 0 011.608-9.617 8.336 8.336 0 015.933-2.458c2.241 0 4.349.873 5.934 2.458a8.336 8.336 0 012.457 5.933 8.336 8.336 0 01-2.458 5.933 8.393 8.393 0 01-9.617 1.608.742.742 0 10-.652 1.334 9.88 9.88 0 0011.319-1.892 9.873 9.873 0 002.043-2.963l3.198 1.756a.742.742 0 00.714 0l14.8-8.127a.743.743 0 00.385-.65v-5.158a.742.742 0 00-1.484 0v4.719l-13.313 7.31v-14.56l4.393-2.412v3.824a.742.742 0 001.1.65l3.172-1.745a.742.742 0 00.384-.65v-4.636l4.264-2.341v3.904a.742.742 0 001.484 0V8.869a.742.742 0 00-.385-.65zm-15.157-6.63l13.258 7.28-4.182 2.297-13.258-7.28 4.182-2.296zm0 14.56L9.2 8.869l4.336-2.38 13.258 7.28-4.336 2.38zm5.878-3.227l-13.258-7.28 1.656-.909 13.258 7.28-1.656.91zm-11.476 8.22a9.81 9.81 0 00-6.983-2.893c-.499 0-.992.036-1.476.109v-8.234l13.317 7.313v14.56l-2.311-1.27a9.923 9.923 0 00.345-2.603 9.81 9.81 0 00-2.892-6.983zm13.908-4.48l-1.687.929v-3.384l1.687-.927v3.382z"/><path d="M3.422 35.325a.739.739 0 01-.567-.264l-.001-.001a.742.742 0 11.568.265zm3.961-6.46a.742.742 0 00.525-1.267l-.515-.514h4.387c1.064 0 1.93.866 1.93 1.93s-.866 1.93-1.93 1.93h-2.6a.742.742 0 100 1.483h2.6a3.418 3.418 0 003.414-3.413A3.418 3.418 0 0011.78 25.6H7.393l.514-.515a.742.742 0 00-1.05-1.05l-1.78 1.782c-.29.29-.29.76 0 1.05l1.78 1.78a.74.74 0 00.526.218zM37.258 16.25a.748.748 0 00-.525.217.748.748 0 00-.217.525c0 .195.08.387.217.525.138.138.33.217.525.217s.387-.08.525-.217a.748.748 0 00.217-.525.748.748 0 00-.217-.525.748.748 0 00-.525-.217z"/></g><defs><clipPath id="clip0"><path fill="#fff" d="M0 0h38v38H0z"/></clipPath></defs></svg>