<svg width="25" height="23" fill="none" xmlns="http://www.w3.org/2000/svg"><path d="M25 12.984a6.306 6.306 0 00-1.513-4.115l-.478-7.653a.488.488 0 00-.487-.458h-2.086a.489.489 0 00-.486.45l-.569 7.228c-.44.142-.875.307-1.281.475a22.253 22.253 0 00-3.854 2.065c-1.01.689-1.506 1.189-1.746 1.56-.24-.371-.737-.872-1.746-1.56A22.267 22.267 0 006.9 8.911c-.406-.169-.84-.333-1.282-.475L5.05 1.208a.488.488 0 00-.486-.45H2.478c-.258 0-.471.2-.487.458l-.478 7.653A6.305 6.305 0 000 12.984a6.312 6.312 0 002.048 4.672l.736 4.182a.489.489 0 00.48.404h13.1a.488.488 0 100-.976H3.674l-.487-2.773a6.366 6.366 0 003.172.844 6.342 6.342 0 004.486-1.847h3.31a6.341 6.341 0 004.486 1.847 6.365 6.365 0 003.172-.844l-.487 2.773h-.567a.488.488 0 100 .976h.976c.238 0 .44-.17.481-.404l.736-4.182A6.312 6.312 0 0025 12.984zm-4.112-11.25h1.175l.398 6.37c-.573-.168-1.307-.114-2.078.056l.505-6.426zm-5.396 9.6c1.302-.798 2.7-1.485 4.154-1.957.64-.208 2.202-.795 2.8-.197a5.5 5.5 0 01.199.21c0-.001 0 0 0 0 .099.109.193.222.282.339-.999.227-2.44.718-4.001 1.373-1.242.521-3.523 1.555-5.572 2.898a5.408 5.408 0 01-.093-.819c.041-.156.524-.802 2.231-1.848zM12.5 14.641c.18.666.466 1.297.85 1.871h-1.7a6.31 6.31 0 00.85-1.871zM4.112 1.734l.505 6.426c-.77-.17-1.505-.224-2.078-.056l.398-6.37h1.175zM2.553 16.788a5.343 5.343 0 01-1.576-3.804c0-.836.19-1.642.548-2.37.241.041.586.12 1.074.263a.487.487 0 10.275-.937 14 14 0 00-.8-.211c.146-.192.306-.375.479-.549.599-.597 2.163-.01 2.8.197 1.455.472 2.853 1.159 4.155 1.956 1.706 1.046 2.19 1.692 2.23 1.848-.01.277-.04.551-.092.82-1.611-1.057-3.36-1.917-4.601-2.476a.488.488 0 00-.4.89c1.273.573 3.09 1.471 4.714 2.567a5.392 5.392 0 01-8.806 1.806zm12.281 0a5.372 5.372 0 01-1.193-1.806c3.296-2.223 8.057-4.054 9.834-4.369a5.35 5.35 0 01.548 2.371c0 1.437-.56 2.788-1.576 3.804a5.392 5.392 0 01-7.613 0z" fill="#000"/><path d="M18.562 21.266a.488.488 0 100 .976.488.488 0 000-.976zM4.981 10.663a.488.488 0 10-.328.92.488.488 0 00.328-.92z" fill="#000"/></svg>