<svg width="25" height="21" fill="none" xmlns="http://www.w3.org/2000/svg"><path d="M17.455 15.855a.52.52 0 00-.52.521v1.937a.52.52 0 101.041 0v-1.937a.52.52 0 00-.52-.52zm0-.455a.52.52 0 00.521-.52v-.013a.52.52 0 00-1.041 0v.013c0 .288.233.52.52.52z" fill="#000"/><path d="M25 6.59c-.02-.365-.23-.661-.524-1.04l-3.065-3.943C20.6.561 20.23.084 18.638.084h-1.42a.52.52 0 00-.398.185 5.629 5.629 0 01-4.319 1.998A5.63 5.63 0 018.181.269a.521.521 0 00-.398-.185H6.364c-1.593 0-1.963.477-2.773 1.523L.525 5.55c-.294.379-.504.675-.523 1.04-.023.453.27.802.547 1.093l2.166 2.28c.422.445.701.739 1.129.739.397 0 .7-.274 1.028-.605l.15-.151-.086 9.135c-.007.736-.01 1.18.311 1.506.328.33.832.33 1.469.33h11.57c.637 0 1.14 0 1.468-.33.323-.326.319-.77.312-1.506l-.085-9.135.149.15c.328.332.631.606 1.028.606.427 0 .706-.294 1.128-.74l2.167-2.279c.277-.291.57-.64.547-1.094zm-1.302.375l-2.168 2.28a5.95 5.95 0 01-.378.381 3.246 3.246 0 01-.281-.262L19.818 8.3a.521.521 0 00-.891.37l.097 10.421c.003.277.006.614-.022.752-.146.033-.51.033-.716.033H6.716c-.206 0-.57 0-.717-.033-.027-.138-.024-.475-.021-.752l.097-10.42a.52.52 0 00-.891-.371L4.13 9.364c-.141.143-.228.22-.281.262-.094-.08-.243-.238-.379-.38L1.304 6.965c-.2-.21-.248-.298-.26-.327.029-.095.227-.35.304-.449L4.295 2.4l.12-.154c.751-.97.866-1.12 1.949-1.12h1.183A6.672 6.672 0 0012.5 3.309a6.671 6.671 0 004.954-2.182h1.183c1.082 0 1.198.149 1.95 1.12l3.066 3.943c.076.099.275.354.303.449-.011.029-.06.118-.259.327z" fill="#000"/><path d="M6.868 2.173h-.003c-1.028.005-1.293.286-2.055 1.26a.52.52 0 00.82.641c.67-.856.681-.857 1.24-.86a.52.52 0 00-.002-1.041zm-2.24 2.352a.52.52 0 00-.732.084l-.015.02a.52.52 0 10.821.64l.01-.012a.52.52 0 00-.084-.732zM15.78 7.386l-1.802-.518-1.044-1.548a.521.521 0 00-.863 0l-1.05 1.552-1.795.514a.521.521 0 00-.267.821l1.152 1.478-.065 1.867a.52.52 0 00.698.508l1.762-.64 1.754.64a.521.521 0 00.7-.508l-.064-1.873 1.15-1.471a.52.52 0 00-.267-.822zm-1.822 1.8a.521.521 0 00-.11.34l.044 1.29-1.208-.44a.52.52 0 00-.356 0l-1.214.441.045-1.284a.52.52 0 00-.11-.339l-.794-1.019 1.235-.354a.52.52 0 00.288-.209l.724-1.07.718 1.065a.52.52 0 00.288.21l1.242.357-.792 1.013z" fill="#000"/></svg>