<svg width="26" height="24" fill="none" xmlns="http://www.w3.org/2000/svg"><path d="M7.971 17.156a.456.456 0 00.18.212.533.533 0 00.272.08.5.5 0 00.453-.292.456.456 0 00-.18-.572.525.525 0 00-.177-.07.502.502 0 00-.503.2.467.467 0 00-.082.262.452.452 0 00.037.18z" fill="#000"/><path d="M25.46 4.488h-2.99a9.25 9.25 0 00.074-.832c0-1.485-1.22-2.693-2.718-2.693-1.499 0-2.718 1.208-2.718 2.693 0 .151.032.482.087.945-1.721.413-3 1.912-3 3.694v4.085c0 .73-.618 1.323-1.377 1.323h-1.107v-3.547c.893-.175 1.567-.936 1.567-1.846 0-1.039-.879-1.884-1.96-1.884h-8.41c-1.08 0-1.959.845-1.959 1.884 0 .906.669 1.665 1.556 1.844v9.22c-.888.184-1.556.945-1.556 1.853 0 1.046.884 1.896 1.971 1.896h8.387c1.086 0 1.97-.85 1.97-1.896 0-.912-.673-1.676-1.566-1.855v-4.726h1.107c1.3 0 2.356-1.017 2.356-2.267V8.296c0-1.3.906-2.4 2.142-2.75.54 4.03 1.952 12.834 2.026 13.293.037.23.242.4.484.4.241 0 .447-.17.484-.4.074-.463 1.513-9.435 2.041-13.408h3.109a.48.48 0 00.49-.471.48.48 0 00-.49-.471zm-14.73 6.458l-7.247 1.252v-2.004h7.247v.752zm-7.247 2.21l7.247-1.252v1.8H3.484v-.549zM1.928 8.31c0-.52.44-.942.98-.942h8.41c.54 0 .98.423.98.942 0 .52-.44.942-.98.942h-8.41c-.54 0-.98-.422-.98-.942zm10.37 12.917c0 .526-.444.954-.991.954H2.92c-.547 0-.992-.428-.992-.954s.445-.953.992-.953h8.387c.546 0 .991.427.991.953zm-1.567-4.697h-.353a.48.48 0 00-.49.471c0 .26.22.471.49.471h.353v1.86H3.484v-1.86h2.977c.27 0 .49-.21.49-.47a.48.48 0 00-.49-.472H3.484v-1.884h7.247v1.884zm9.095-.883c-.529-3.356-1.208-7.765-1.54-10.217h1.015v.452c0 .26.22.471.49.471a.48.48 0 00.49-.47V3.657a.48.48 0 00-.49-.47.48.48 0 00-.49.47v.83h-1.136a9.45 9.45 0 01-.078-.832c0-.966.78-1.751 1.739-1.751.959 0 1.738.785 1.738 1.751 0 .776-1.012 7.378-1.738 11.992z" fill="#000"/></svg>