<svg width="40" height="40" fill="none" xmlns="http://www.w3.org/2000/svg"><path d="M22.344 20.781a4.686 4.686 0 004.687-4.687 4.693 4.693 0 00-4.687-4.688h-7.032a.781.781 0 00-.78.781v7.032h-.782a.781.781 0 100 1.562h.781v3.125h-.781a.781.781 0 000 1.563h.781v3.906a.781.781 0 001.563 0v-3.906h5.468a.781.781 0 000-1.563h-5.468v-3.125h6.25zm-6.25-7.812h6.25a3.125 3.125 0 110 6.25h-6.25v-6.25zM20 6.328c.42 0 .763-.333.78-.75l.001-.031a.782.782 0 00-1.562 0v.032c.018.416.36.75.781.75z" fill="#F04E23"/><path d="M20 40c10.77 0 20-9.226 20-20C40 9.247 30.79 0 20 0 9.23 0 0 9.226 0 20c0 10.769 9.226 20 20 20zm0-38.438c9.822 0 18.438 8.616 18.438 18.438S29.822 38.438 20 38.438 1.562 29.822 1.562 20 10.178 1.562 20 1.562z" fill="#F04E23"/><path d="M20 35.311c8.14 0 15.313-7.117 15.313-15.313 0-6.955-5.223-13.31-12.02-14.924a.781.781 0 10-.362 1.52C29.1 8.06 33.75 13.821 33.75 20c0 7.324-6.425 13.75-13.75 13.75S6.25 27.322 6.25 19.998c0-6.178 4.651-11.94 10.819-13.405a.781.781 0 00-.361-1.52c-6.793 1.613-12.02 7.963-12.02 14.924 0 8.141 7.117 15.313 15.312 15.313z" fill="#F04E23"/></svg>