<svg width="25" height="13" fill="none" xmlns="http://www.w3.org/2000/svg"><path d="M24.508.297H.492A.492.492 0 000 .789v3.628c0 .272.22.493.492.493h2.77c4.026 0 7.301 3.275 7.301 7.3 0 .272.22.492.493.492h2.888c.272 0 .492-.22.492-.492 0-4.025 3.276-7.3 7.301-7.3h2.77c.273 0 .493-.22.493-.493V.79a.492.492 0 00-.492-.492zm-12.025 2.65a.468.468 0 11-.001.936.468.468 0 010-.937zm11.533.978h-2.279c-4.403 0-8.015 3.453-8.27 7.793h-1.934c-.255-4.34-3.867-7.793-8.27-7.793H.984V1.281h11.007v.767a1.46 1.46 0 00-.753.62c-.516-.293-1.178-.62-1.573-.62a1.366 1.366 0 000 2.73c.395 0 1.057-.325 1.573-.618a1.452 1.452 0 002.49 0c.516.293 1.178.619 1.573.619.752 0 1.365-.613 1.365-1.365 0-.753-.613-1.365-1.365-1.365-.395 0-1.057.326-1.573.62a1.46 1.46 0 00-.753-.62V1.28h11.04v2.644zm-13.467-.511c-.407.219-.758.374-.884.38a.381.381 0 01-.003-.761c.127.007.479.162.886.381zm3.868 0c.408-.22.758-.374.884-.381a.381.381 0 01.002.761c-.127-.006-.478-.161-.886-.38z" fill="#000"/><path d="M6.572 2.049c-.633 0-.634.984 0 .984.633 0 .634-.984 0-.984zm-1.576.001H1.96a.492.492 0 000 .984h3.035a.492.492 0 100-.985z" fill="#000"/></svg>