<svg width="25" height="25" fill="none" xmlns="http://www.w3.org/2000/svg"><g clip-path="url(#clip0)" fill="#000"><path d="M23.418 13.72c.041-.39.062-.786.062-1.179 0-2.945-1.147-5.715-3.23-7.797a10.956 10.956 0 00-7.797-3.23c-.282 0-.568.01-.849.032a.488.488 0 10.074.974c.257-.02.517-.03.775-.03 5.542 0 10.05 4.509 10.05 10.051 0 .432-.027.868-.082 1.295a.488.488 0 00.146.414 4.554 4.554 0 011.41 3.31 4.597 4.597 0 01-6.706 4.076.488.488 0 10-.45.866 5.582 5.582 0 002.564.625 5.574 5.574 0 005.568-5.567c0-1.446-.544-2.8-1.535-3.84zm-8.357 8.527a.488.488 0 10.269.94.488.488 0 10-.269-.94zm-1.833.316c-.257.02-.517.03-.775.03-5.542 0-10.051-4.51-10.051-10.052 0-.432.028-.867.083-1.294a.489.489 0 00-.146-.415 4.554 4.554 0 01-1.41-3.309 4.597 4.597 0 016.706-4.076.488.488 0 10.45-.867 5.582 5.582 0 00-2.564-.625A5.574 5.574 0 00-.047 7.523c0 1.446.543 2.8 1.535 3.839-.041.39-.063.786-.063 1.18 0 2.945 1.147 5.714 3.23 7.797a10.956 10.956 0 007.798 3.23c.282 0 .568-.011.849-.032a.488.488 0 10-.074-.974z"/><path d="M10.97 8.774c.427-.314 1.308-.32 1.992-.187.947.185 1.774.624 2.158 1.148.335.457.827.756 1.387.842.56.087 1.12-.05 1.577-.385.456-.335.755-.828.842-1.388a2.1 2.1 0 00-.386-1.576c-.753-1.028-1.943-1.881-3.352-2.404-1.344-.5-2.798-.674-4.096-.493-2.39.334-4.068 1.824-4.49 3.984-.186.96-.028 1.95.457 2.863a5.147 5.147 0 002.013 2.045c1.01.564 1.996.79 2.95 1.01.704.16 1.431.328 1.907.616.26.158.449.395.457.576.001.038.007.152-.195.3-.47.344-1.462.333-2.184.177-.93-.202-1.737-.639-2.106-1.14a2.106 2.106 0 00-1.387-.843c-.56-.086-1.12.05-1.576.385a2.108 2.108 0 00-.843 1.388c-.086.56.051 1.12.386 1.576.972 1.326 2.702 2.366 4.63 2.784a8.803 8.803 0 001.857.203c1.429 0 2.733-.38 3.73-1.11a4.734 4.734 0 001.803-2.64 4.488 4.488 0 00-.38-3.178c-.435-.836-1.145-1.582-1.999-2.1-.978-.592-2.009-.827-2.919-1.035-.754-.172-1.466-.334-2.07-.671-.205-.115-.344-.289-.353-.443-.007-.105.057-.207.19-.304zm-1.165.364c.03.492.349.954.852 1.235.726.406 1.541.592 2.33.771.878.2 1.786.408 2.629.919.703.426 1.285 1.035 1.64 1.716.831 1.596.364 3.48-1.135 4.578-1.191.873-2.942 1.143-4.804.74-1.7-.368-3.214-1.267-4.048-2.406a1.136 1.136 0 01-.208-.85c.046-.302.208-.568.454-.749a1.135 1.135 0 01.85-.208c.303.047.568.208.749.454.518.708 1.497 1.261 2.687 1.518.322.07 1.978.38 2.967-.344.402-.294.612-.695.593-1.13-.022-.51-.377-1.035-.926-1.368-.61-.37-1.415-.555-2.194-.733-.928-.213-1.805-.414-2.692-.91-1.456-.814-2.273-2.405-1.988-3.87.343-1.757 1.679-2.925 3.666-3.202 2.425-.34 5.23.738 6.526 2.506.18.247.254.549.207.85a1.137 1.137 0 01-.454.75c-.246.18-.548.254-.85.207a1.136 1.136 0 01-.748-.454c-.531-.725-1.563-1.296-2.76-1.53-.42-.081-1.861-.298-2.756.358-.406.297-.615.707-.587 1.152zm-.102-6.282a.488.488 0 10-.118-.962.488.488 0 00.118.962z"/></g><defs><clipPath id="clip0"><path fill="#fff" d="M0 0h25v25H0z"/></clipPath></defs></svg>