<svg width="60" height="60" fill="none" xmlns="http://www.w3.org/2000/svg"><path d="M8.42 48.998l5.643 2.82v7.01c0 .647.524 1.172 1.171 1.172h12.422c.647 0 1.172-.525 1.172-1.172V42.826a6.936 6.936 0 00-6.257-6.925c-.014-.004-4.957-.775-7.25-3.069l-2.632-2.63a4.656 4.656 0 00-3.314-1.374v-9.375a4.693 4.693 0 00-4.688-4.687A4.693 4.693 0 000 19.453v15.919a15.235 15.235 0 008.42 13.626zM2.345 19.453a2.346 2.346 0 012.344-2.344 2.346 2.346 0 012.343 2.344v10.003a4.697 4.697 0 00-2.343 4.06c0 1.251.487 2.428 1.373 3.314l6.001 6.002a1.172 1.172 0 101.657-1.657l-6-6.003a2.328 2.328 0 01-.688-1.656c0-.992.628-1.88 1.563-2.21v-.001a2.34 2.34 0 012.438.554l2.632 2.63c2.717 2.718 8.653 3.74 8.665 3.743a4.602 4.602 0 014.155 4.594v14.83H16.406v-6.562c0-.444-.25-.85-.648-1.048L9.47 46.9a12.821 12.821 0 01-7.125-11.53V19.454z" fill="#F04E23"/><path d="M15.938 28.828h28.124c.648 0 1.172-.524 1.172-1.172V1.172C45.234.525 44.71 0 44.062 0H15.939c-.648 0-1.172.525-1.172 1.172v26.484a1.17 1.17 0 001.171 1.172zM26.483 2.344h7.032v6.315l-3.044-1.506a1.171 1.171 0 00-1.048.004l-2.94 1.485V2.344zm-9.375 0h7.032v8.203a1.172 1.172 0 001.7 1.046l4.116-2.08 4.21 2.084a1.172 1.172 0 001.692-1.05V2.344h7.032v24.14H17.109V2.344z" fill="#F04E23"/><path d="M39.375 20.625h-7.031a1.172 1.172 0 100 2.344h7.031a1.172 1.172 0 000-2.344zM53.79 47.344A1.172 1.172 0 1053.788 45a1.172 1.172 0 000 2.344z" fill="#F04E23"/><path d="M55.313 14.766a4.693 4.693 0 00-4.688 4.687v9.375a4.656 4.656 0 00-3.314 1.373l-2.632 2.631c-1.442 1.442-5.093 2.852-7.164 3.06l-.078.008a6.939 6.939 0 00-6.265 6.926v16.002c0 .647.525 1.172 1.172 1.172h12.422c.647 0 1.172-.525 1.172-1.172v-7.01l3.835-1.917a1.172 1.172 0 00-1.048-2.097l-4.483 2.241a1.172 1.172 0 00-.648 1.049v6.562H33.516v-14.83a4.604 4.604 0 014.163-4.595l.079-.008c2.541-.255 6.75-1.906 8.578-3.733l2.632-2.631a2.34 2.34 0 012.437-.554h.001c1.614.57 2.1 2.643.876 3.868l-6.001 6.002a1.172 1.172 0 001.657 1.657l6.001-6.002c2.167-2.167 1.715-5.82-.97-7.374V19.453a2.346 2.346 0 012.344-2.344 2.346 2.346 0 012.343 2.344v15.919c0 2.144-.54 4.273-1.564 6.156a1.172 1.172 0 102.059 1.119A15.278 15.278 0 0060 35.372V19.453a4.693 4.693 0 00-4.688-4.687z" fill="#F04E23"/></svg>