<svg width="25" height="13" fill="none" xmlns="http://www.w3.org/2000/svg"><path d="M2.441 5.575a.488.488 0 100 .977.488.488 0 000-.977z" fill="#000"/><path d="M22.506 5.796a13.19 13.19 0 01-4.38-.665C15.858 4.395 13.51 3.032 11.273.9A1.453 1.453 0 009.376.798L7.711 2.052c-1.293.993-3.387 1.073-4.766.18l-.732-.474a.488.488 0 00-.656.117A7.815 7.815 0 000 6.539v4.407c0 .27.219.489.488.489h7.13c.269 0 .487-.22.487-.489v-.18c.92.23 2.189.58 3.784 1.045.137.03 2.046.684 4.655.684 2.894 0 5.791-.783 8.195-2.048a.488.488 0 00.261-.432V7.941c0-.85-.968-2.18-2.494-2.145zm-4.295.383c1.44.426 2.89.626 4.317.593a1.481 1.481 0 011.424.956c-5.24 3.25-11.25 1.268-11.254 1.268-.82-.239-2.227-.649-3.49-.972 1.078-1.093 2.352-.782 3.797-.43 1.808.442 3.741.87 5.206-1.415zM.977 6.54c0-1.31.388-2.608 1.1-3.705l.337.218c1.732 1.12 4.265 1.024 5.889-.223l1.664-1.254a.49.49 0 01.633.032c.062.06.135.132.267.256l-.377.45a.488.488 0 10.748.627l.358-.426c.223.189.478.395.761.612l-.37.442a.488.488 0 10.747.628l.414-.494c.258.18.532.36.822.54l-.487.581a.488.488 0 10.748.628l.593-.707c.735.407 1.546.793 2.424 1.116-1.084 1.5-2.391 1.181-4.011.786-1.896-.463-3.642-.78-5.094 1.12-.71-.16-1.204-.238-1.502-.238H.977V6.54zm23.046 3.178c-6.367 3.19-11.78 1.155-11.86 1.157-.317-.092-4.21-1.215-4.546-1.215a.488.488 0 00-.488.488v.31H.977V8.506H6.64c.923 0 4.907 1.173 5.784 1.428.005.001 5.659 2.063 11.598-1.125v.909z" fill="#000"/><path d="M7.129 6.063a.488.488 0 00-.488-.488H4.395a.488.488 0 000 .977H6.64c.27 0 .488-.219.488-.489z" fill="#000"/></svg>