<svg width="60" height="54" fill="none" xmlns="http://www.w3.org/2000/svg"><path fill-rule="evenodd" clip-rule="evenodd" d="M44.142 15.842c0-5.742-4.671-10.414-10.414-10.414-5.743 0-10.415 4.672-10.415 10.414s4.672 10.414 10.415 10.414c5.742 0 10.414-4.672 10.414-10.414zm-18.485 0c0-4.45 3.62-8.07 8.071-8.07 4.45 0 8.07 3.62 8.07 8.07s-3.62 8.07-8.07 8.07-8.07-3.62-8.07-8.07zm34.281 36.525l-2.699-7.888a1.172 1.172 0 10-2.217.758l1.84 5.377-10.523-4.57a1.174 1.174 0 00-.808-.047L30 50.731l-15.53-4.734a1.174 1.174 0 00-.808.046L3.14 50.613l1.839-5.376a1.172 1.172 0 10-2.217-.758L.064 52.367a1.172 1.172 0 001.576 1.455l12.56-5.457 15.46 4.711c.222.068.46.068.682 0l15.459-4.711 12.561 5.456a1.172 1.172 0 001.576-1.454z" fill="#F04E23"/><path fill-rule="evenodd" clip-rule="evenodd" d="M6.528 37.095a1.17 1.17 0 001.488-.73l2.524-7.379 7.511-3.007v13.026a1.172 1.172 0 002.013.816l8.801-9.07c1.567.512 3.2.77 4.865.77 4.25 0 8.11-1.7 10.937-4.456l4.796 1.921 2.525 7.38a1.173 1.173 0 002.217-.759l-2.698-7.888a1.173 1.173 0 00-.673-.709l-4.529-1.813a15.596 15.596 0 003.104-9.354C49.409 7.198 42.376.164 33.73.164c-8.645 0-15.679 7.034-15.679 15.679v7.61l-8.88 3.557a1.175 1.175 0 00-.674.709l-2.698 7.888c-.21.612.117 1.279.73 1.488zm13.867-21.252c0-7.353 5.982-13.335 13.335-13.335 7.353 0 13.335 5.982 13.335 13.335 0 7.352-5.982 13.335-13.335 13.335a13.28 13.28 0 01-4.764-.877 1.172 1.172 0 00-1.26.279l-7.31 7.535V15.843zM5.384 41.594c.645 0 1.172-.527 1.172-1.172 0-.646-.527-1.172-1.172-1.172-.646 0-1.172.526-1.172 1.172 0 .645.526 1.172 1.172 1.172zm48.056-1.172c0 .645.526 1.172 1.171 1.172.646 0 1.172-.527 1.172-1.172 0-.645-.526-1.172-1.172-1.172-.645 0-1.172.526-1.172 1.172z" fill="#F04E23"/></svg>