<svg width="15" height="25" fill="none" xmlns="http://www.w3.org/2000/svg"><path d="M13.817 4.68l-.951-1.972V.488A.488.488 0 0012.378 0H2.612a.488.488 0 00-.488.488V2.72l-.945 1.96a7.775 7.775 0 00-.677 4.636L2.96 24.589a.488.488 0 00.482.411h3.076c.27 0 .489-.219.489-.488V10.755l.49-1.032.492 1.032v13.757c0 .27.219.488.489.488h3.076c.24 0 .444-.174.482-.41l2.458-15.274a7.775 7.775 0 00-.677-4.636zM9.204.977h2.685v1.367H9.204V.977zm-2.442 0h1.465v1.367H6.762V.977zM3.1.977h2.686v1.367H3.1V.977zm10.51 7.396l-1.27-.859-1.263-3.038a.488.488 0 10-.902.374l1.318 3.174a.488.488 0 00.178.218l1.81 1.221-2.343 14.56H8.966V10.645a.488.488 0 00-.048-.21L7.983 8.47V6.543a.488.488 0 10-.976 0v1.94l-.93 1.952a.489.489 0 00-.047.21v13.378H3.858L1.515 9.463l1.81-1.221a.488.488 0 00.177-.218L4.821 4.85a.488.488 0 10-.902-.374L2.657 7.514l-1.272.859a6.799 6.799 0 01.673-3.27l.86-1.783h9.16l.86 1.784a6.8 6.8 0 01.673 3.269z" fill="#000"/><path d="M11.963 11.666a.488.488 0 00-.56.405l-.526 3.271a.488.488 0 00.964.155l.527-3.271a.488.488 0 00-.405-.56zm.3-1.869a.488.488 0 00-.56.405l-.002.015a.488.488 0 00.965.154l.002-.015a.488.488 0 00-.405-.559zm-4.422-5.39a.492.492 0 00-.69 0 .492.492 0 000 .69.49.49 0 00.833-.345.492.492 0 00-.143-.345z" fill="#000"/></svg>