<svg width="23" height="25" fill="none" xmlns="http://www.w3.org/2000/svg"><path d="M22.086 19.435l-.853-4.695a.488.488 0 00-.961.175l.364 2.005-2.914.351c-.189-1.477-.184-1.704.172-3.375l1.181-5.554.411 2.259a.488.488 0 10.961-.175l-.942-5.178c-.093-.696-.467-1.247-1.372-1.706L14.98 1.943 14.227.286A.488.488 0 0013.783 0h-4.57a.488.488 0 00-.444.286l-.753 1.657-3.153 1.599c-.905.459-1.28 1.01-1.372 1.705L.911 19.436a.488.488 0 00.421.572l3.29.397-.573 2.589a.489.489 0 00.284.554l3.295 1.413c.162.07.35.046.49-.062l3.38-2.61 3.38 2.61a.488.488 0 00.49.062l3.295-1.413a.488.488 0 00.284-.554l-.573-2.588 3.29-.398a.488.488 0 00.422-.572zm-7.49-16.07l.775 1.534-1.003.93a.488.488 0 00-.115.556l.691 1.563-2.958 4.065V8.308l2.61-4.943zM9.529.977h3.94l.595 1.308-2.565 4.856-2.565-4.856.595-1.308zm-1.13 2.388l2.61 4.943v3.705L8.053 7.948l.691-1.563a.488.488 0 00-.114-.555L7.625 4.9l.774-1.535zM3.921 8.34l1.181 5.557c.356 1.67.36 1.898.172 3.375L2.36 16.92l1.561-8.58zM1.964 19.1l.221-1.217 2.918.352-.268 1.212-2.871-.346zm5.785 4.85l-2.66-1.14.603-2.72v-.001l.481-2.168.003-.015.005-.028.023-.182c.061-.472.108-.839.137-1.159H8.35a.488.488 0 000-.976H6.364c-.03-.48-.124-1.012-.306-1.867L4.679 7.207c-.176-.826-.27-1.37-.23-1.766l.003-.018a.494.494 0 00.007-.06c.068-.436.322-.684.846-.95L7.283 3.41l-.695 1.377a.488.488 0 00.103.578l1.018.944-.664 1.502a.49.49 0 00.052.484l3.913 5.378v7.759L7.749 23.95zm7.498 0l-3.26-2.517v-7.76l3.912-5.377a.488.488 0 00.052-.484l-.664-1.502 1.018-.944a.488.488 0 00.104-.578l-.696-1.377 1.978 1.003c.524.266.778.513.846.948l.007.062.004.02c.04.396-.054.94-.23 1.764l-1.38 6.486c-.181.855-.276 1.387-.306 1.867h-1.985a.488.488 0 000 .976h2.008c.029.32.076.686.137 1.16l.023.18.006.03.002.013.48 2.169v.002l.603 2.72-2.659 1.14zm2.915-4.503l-.269-1.212 2.918-.352.221 1.218-2.87.346z" fill="#000"/><path d="M19.87 12.67v.002a.488.488 0 100-.001z" fill="#000"/></svg>