<svg width="38" height="38" fill="none" xmlns="http://www.w3.org/2000/svg"><g clip-path="url(#clip0)" fill="#fff"><path d="M22.696 13.253A3.799 3.799 0 0125.38 17.9a2.215 2.215 0 00.223 1.693 2.215 2.215 0 001.93 1.115c.985 0 1.888-.658 2.155-1.653 1.178-4.397-1.44-8.932-5.837-10.11a2.232 2.232 0 00-2.73 1.577 2.233 2.233 0 001.576 2.731zm-.143-2.347a.74.74 0 01.719-.553c.065 0 .13.009.194.026a6.778 6.778 0 014.787 8.292.747.747 0 01-1.44-.386 5.285 5.285 0 00-3.733-6.465.747.747 0 01-.527-.914z"/><path d="M25.41 3.127a2.233 2.233 0 00-2.732 1.577 2.215 2.215 0 00.223 1.692c.298.516.779.885 1.354 1.039 5.23 1.401 8.344 6.796 6.943 12.025a2.215 2.215 0 00.223 1.692 2.214 2.214 0 001.93 1.115c.985 0 1.888-.657 2.155-1.652 2.038-7.605-2.491-15.45-10.096-17.488zm8.662 17.103a.746.746 0 01-1.366.18.741.741 0 01-.074-.566c1.613-6.02-1.972-12.23-7.992-13.843a.746.746 0 01.386-1.44c6.814 1.826 10.872 8.855 9.046 15.67zm-6.216 5.662a3.576 3.576 0 00-4.88-1.308l-3.022 1.744a.61.61 0 01-.467.062.61.61 0 01-.373-.287L12.31 14.32a.612.612 0 01.226-.84l3.022-1.745a3.577 3.577 0 001.307-4.88l-2.927-5.07A3.576 3.576 0 009.058.478l-1.026.593C2.276 4.394.297 11.779 3.62 17.535l2.5 4.33a.742.742 0 101.286-.742l-2.5-4.33C2.52 12.663 3.25 7.576 6.36 4.267l4.858 8.415a2.094 2.094 0 00-.403.787 2.086 2.086 0 00.21 1.593l6.803 11.783a2.096 2.096 0 002.158 1.023l4.83 8.365a10.503 10.503 0 01-5.16-.083 10.5 10.5 0 01-6.417-4.924l-2.494-4.319a.742.742 0 10-1.285.742l2.493 4.32a11.974 11.974 0 007.319 5.615 11.982 11.982 0 009.146-1.204l1.027-.593a3.55 3.55 0 001.664-2.169 3.549 3.549 0 00-.357-2.71l-2.896-5.017zM8.774 2.355L9.8 1.763a2.074 2.074 0 011.584-.208c.539.144.989.49 1.268.973l2.927 5.07a2.09 2.09 0 01-.765 2.851l-2.379 1.374L7.48 3.237c.404-.32.835-.616 1.295-.88zm20.901 30.878c-.144.539-.49.989-.973 1.268l-1.026.593c-.457.263-.928.491-1.41.682l-4.927-8.534 2.38-1.374a2.09 2.09 0 012.852.765l2.895 5.016a2.07 2.07 0 01.209 1.584z"/><path d="M8.441 23.64a.75.75 0 00-.525.218.746.746 0 000 1.05c.139.137.33.217.525.217.196 0 .387-.08.525-.218a.748.748 0 00.218-.524.746.746 0 00-.743-.742z"/></g><defs><clipPath id="clip0"><path fill="#fff" d="M0 0h38v38H0z"/></clipPath></defs></svg>