<svg width="60" height="60" fill="none" xmlns="http://www.w3.org/2000/svg"><path d="M20.003 46.236a4.42 4.42 0 00-3.884 4.887 4.384 4.384 0 001.638 2.954 4.38 4.38 0 003.246.931 4.42 4.42 0 003.885-4.887 4.42 4.42 0 00-4.885-3.886zm.734 6.444a2.055 2.055 0 01-1.521-.437 2.073 2.073 0 011.289-3.692c1.036 0 1.934.78 2.054 1.835a2.074 2.074 0 01-1.822 2.294zM39.36 40.7l-7.079.806a1.172 1.172 0 10.266 2.329l7.078-.807a1.172 1.172 0 10-.265-2.329zm2.797 9.956a1.172 1.172 0 000 2.344h.007a1.17 1.17 0 001.169-1.172c0-.647-.529-1.172-1.176-1.172z" fill="#F04E23"/><path d="M59.558 47.224a3.78 3.78 0 00-4.18-3.323l-.517.059-2.116-18.573a1.172 1.172 0 00-1.297-1.031l-7.409.845-2.102-18.439a1.172 1.172 0 00-1.297-1.031L22.201 7.833l-.315-2.761a5.676 5.676 0 00-2.125-3.824 5.682 5.682 0 00-4.204-1.21L3.762 1.378A3.78 3.78 0 00.439 5.56a3.787 3.787 0 004.18 3.327l9.97-1.139 1.747 15.32-4.882 6.392c-.184.24-.267.543-.233.844l1.691 14.827a9.344 9.344 0 00-1.724 6.555 9.308 9.308 0 003.478 6.275 9.307 9.307 0 006.898 1.979 9.383 9.383 0 007.468-5.433l8.033-.915a1.172 1.172 0 10-.265-2.329l-7.036.802a9.338 9.338 0 000-2.883l24.18-2.758h.018l.02-.004 1.662-.19a1.435 1.435 0 011.586 1.261 1.435 1.435 0 01-1.26 1.587l-8.717.993a1.172 1.172 0 00.266 2.328l6.064-.69.44 3.18a1.182 1.182 0 102.341-.324l-.431-3.124.302-.035a3.781 3.781 0 003.323-4.18zM33.154 8.944l.478 4.195-1.533-.731a1.172 1.172 0 00-1.234.14l-1.332 1.06-.478-4.197 4.099-.468zm-6.428.732l.718 6.297a1.172 1.172 0 001.894.784l2.413-1.919 2.78 1.326a1.172 1.172 0 001.67-1.19l-.718-6.296 4.258-.486 1.97 17.274-17.275 1.969-1.969-17.273 4.26-.486zm14.04 23.649l-2.053-.98a1.172 1.172 0 00-1.234.14l-1.783 1.418-.606-5.324 5.07-.577.607 5.323zM4.357 6.557a1.434 1.434 0 01-.329-2.85l6.154-.7.326 2.848-6.151.702zm11.132-1.272l-2.653.304-.325-2.846 3.313-.377a3.354 3.354 0 012.48.716 3.348 3.348 0 011.255 2.255l2.68 23.505.001.023.004.023 1.473 12.925a9.284 9.284 0 00-2.948-.563L16.785 6.317a1.17 1.17 0 00-1.297-1.032zm1.23 21.142l1.717 15.051a9.305 9.305 0 00-3.405 1.538l-1.427-12.51 3.116-4.079zm4.58 31.183a6.988 6.988 0 01-5.173-1.484 6.98 6.98 0 01-2.608-4.706c-.438-3.852 2.338-7.344 6.19-7.785a6.99 6.99 0 015.172 1.484 6.981 6.981 0 012.608 4.707c.44 3.851-2.336 7.343-6.19 7.784zm7.811-10.714a9.324 9.324 0 00-2.771-3.611l-.104-.079L24.7 29.764l8.06-.919.845 7.424a1.172 1.172 0 001.893.785l2.865-2.278 3.302 1.575a1.172 1.172 0 001.669-1.19l-.847-7.425 8.061-.919 1.984 17.408-23.424 2.671z" fill="#F04E23"/></svg>