<svg width="38" height="38" fill="none" xmlns="http://www.w3.org/2000/svg"><g clip-path="url(#clip0)" fill="#fff"><path d="M12.32 23.008a.742.742 0 11-1.484 0 .742.742 0 011.484 0z"/><path d="M7.867 37.258c0 .41.332.742.742.742h20.782c.41 0 .742-.332.742-.742V20.78h5.195c.41 0 .742-.332.742-.742v-7.422c0-5.164-4.079-9.394-9.184-9.637L25.601.41l-.004-.007a.743.743 0 00-.66-.403H13.063a.743.743 0 00-.66.404L12.4.41l-1.285 2.57c-5.105.243-9.184 4.473-9.184 9.637v7.422c0 .41.332.742.742.742h5.195v16.477zm1.485-.742V35.03h19.296v1.485H9.352zm20.78-17.22v-1.483h4.454v1.484h-4.453zM13.208 2.112l4.708 5.885-3.019 2.012-2.505-6.263.816-1.634zm1.4-.627h8.786L19 6.976l-4.393-5.492zm10.186.627l.816 1.634-2.505 6.263-3.019-2.012 4.707-5.885zM11.082 4.47l2.776 6.94a.742.742 0 001.1.341L19 9.056l4.041 2.694a.742.742 0 001.101-.341l2.776-6.94c4.272.257 7.668 3.813 7.668 8.148v3.711h-4.453v-2.226a.742.742 0 10-1.485 0v19.445H9.352V14.102a.742.742 0 10-1.485 0v2.226H3.414v-3.71c0-4.336 3.396-7.892 7.668-8.15zM3.414 19.297v-1.485h4.453v1.485H3.414z"/><path d="M11.578 32.063c.41 0 .742-.333.742-.743v-5.343a.742.742 0 10-1.484 0v5.343c0 .41.332.742.742.742zm12.617-12.766a2.972 2.972 0 002.97-2.969v-2.226a.742.742 0 00-.743-.743h-4.453a.742.742 0 00-.742.743v2.226a2.972 2.972 0 002.968 2.969zm-1.484-4.453h2.969v1.484c0 .819-.666 1.485-1.485 1.485a1.486 1.486 0 01-1.484-1.485v-1.484z"/></g><defs><clipPath id="clip0"><path fill="#fff" d="M0 0h38v38H0z"/></clipPath></defs></svg>