<svg width="38" height="38" fill="none" xmlns="http://www.w3.org/2000/svg"><path d="M36.991 13.04L24.96 1.007A3.426 3.426 0 0022.518 0c-.923 0-1.79.358-2.439 1.007L1.007 20.08A3.426 3.426 0 000 22.52c0 .923.358 1.789 1.007 2.438l1.484 1.484 9.973 9.973h-1.38a.792.792 0 100 1.583h15.832a.792.792 0 000-1.583h-8.421L36.99 17.918a3.453 3.453 0 000-4.878zm-1.12 3.759L16.8 35.872c-.35.35-.818.542-1.317.543h-.006c-.5 0-.967-.194-1.316-.543l-9.99-9.99L22.489 7.567a.792.792 0 10-1.12-1.12L3.05 24.763l-.924-.924a1.852 1.852 0 01-.544-1.32c0-.5.193-.969.544-1.32L21.2 2.128c.35-.35.819-.544 1.32-.544.5 0 .968.193 1.319.544l4.283 4.282L9.805 24.727a.792.792 0 001.12 1.119L29.24 7.529l6.63 6.63a1.869 1.869 0 010 2.64z" fill="#fff"/><path d="M19.503 22.863a.792.792 0 00-1.12 0l-6.23 6.23a.792.792 0 001.12 1.119l6.23-6.23a.792.792 0 000-1.12zm-2.556 5.914l-2.555 2.555a.792.792 0 001.12 1.12l2.555-2.556a.792.792 0 00-1.12-1.12zm2.351-2.352l-.336.336a.792.792 0 001.12 1.12l.336-.336a.792.792 0 10-1.12-1.12zm10.916-14.269a.792.792 0 00-1.12 0l-3.358 3.358a.792.792 0 000 1.12l2.239 2.239a.79.79 0 001.12 0l3.358-3.359a.79.79 0 000-1.12l-2.239-2.238zm-1.68 5.038l-1.119-1.12 2.24-2.239 1.119 1.12-2.24 2.239zM23.776 5.95a.789.789 0 00.56-.232l.336-.335a.792.792 0 00-1.12-1.12l-.336.336a.792.792 0 00.56 1.351zM7.958 26.574l-.336.335a.792.792 0 001.12 1.12l.336-.336a.792.792 0 00-1.12-1.12z" fill="#fff"/></svg>