<svg width="38" height="38" fill="none" xmlns="http://www.w3.org/2000/svg"><g clip-path="url(#clip0)" fill="#fff"><path d="M35.737 23.071l-2.66-5.224a.743.743 0 00-.662-.406H5.582a.743.743 0 00-.662.406l-2.66 5.224a.743.743 0 00.662 1.08h.927v13.107c0 .41.332.743.743.743h28.811c.41 0 .743-.333.743-.743V24.151h.929a.743.743 0 00.662-1.08zm-3.777-4.145l1.904 3.74h-11.75l-1.904-3.74h11.75zm-25.923 0h11.75l-1.903 3.74H4.134l1.903-3.74zm26.624 17.59H19.74V32.4a.743.743 0 00-1.485 0v4.116H5.334V24.15H16.34c.28 0 .535-.157.662-.406l1.255-2.466v4.453a.743.743 0 001.485 0v-4.453l1.256 2.466a.743.743 0 00.662.406h11v12.365z"/><path d="M12.65 32.45H8.422a.743.743 0 000 1.484h4.228a.743.743 0 000-1.485zm6.351-17.193c4.202 0 7.62-3.422 7.62-7.63 0-4.205-3.418-7.627-7.62-7.627-4.203 0-7.622 3.422-7.622 7.628 0 4.207 3.42 7.63 7.622 7.63zm0-13.772c3.383 0 6.135 2.756 6.135 6.143 0 3.388-2.752 6.144-6.135 6.144-3.384 0-6.137-2.756-6.137-6.144 0-3.387 2.753-6.143 6.137-6.143z"/><path d="M15.669 8.741l1.976 1.675a.743.743 0 001.05-.09l3.72-4.445a.743.743 0 00-1.14-.953L18.035 8.8 16.63 7.608a.742.742 0 10-.96 1.133zM4.41 8.37h3.213a.743.743 0 000-1.485H4.411a.743.743 0 000 1.485zm-.346-5.168l3.213 1.695a.739.739 0 001.003-.31.743.743 0 00-.31-1.004L4.757 1.89a.743.743 0 10-.693 1.313zm-.31 9.853a.743.743 0 001.003.31l3.212-1.692a.743.743 0 00-.692-1.314l-3.212 1.692a.743.743 0 00-.311 1.004zM30.372 8.37h3.212a.743.743 0 000-1.485h-3.213a.743.743 0 100 1.485zm0-3.385a.74.74 0 00.346-.086l3.213-1.695a.742.742 0 10-.693-1.313l-3.213 1.694a.742.742 0 00.347 1.4zm-.346 6.688l3.212 1.693a.74.74 0 001.003-.311.742.742 0 00-.31-1.003l-3.213-1.693a.742.742 0 10-.692 1.314zM19 28.322a.743.743 0 00-.742.743v.004c0 .41.332.74.742.74a.744.744 0 000-1.487z"/></g><defs><clipPath id="clip0"><path fill="#fff" d="M0 0h38v38H0z"/></clipPath></defs></svg>