<svg width="26" height="25" fill="none" xmlns="http://www.w3.org/2000/svg"><path d="M23.181 18.79a38.777 38.777 0 01-4.195-1.352.487.487 0 00-.238-.345l-1.692-.977a.488.488 0 00-.666.179l-.018.03a39.73 39.73 0 01-.882-.425l.054-.094a.488.488 0 00-.179-.666l-1.691-.977a.488.488 0 00-.667.179l-.091.157a40.07 40.07 0 01-1.805-1.135.488.488 0 00-.662.113l-2.343 3.125a1.472 1.472 0 01-1.172.586H5.37a1.466 1.466 0 01-1.464-1.464.488.488 0 00-.489-.489H1.465a.488.488 0 00-.483.42c-1.038 7.28-.981 6.839-.981 6.904C0 23.905 1.108 25 2.469 25h14.504c2.518 0 5.024-.612 7.247-1.77.48-.25.78-.75.78-1.304v-.777a2.439 2.439 0 00-1.819-2.36zm-6.19-1.584l.846.488-1.221 2.114a.488.488 0 11-.846-.488l1.221-2.114zm-2.537-1.465l-1.709 2.96a.488.488 0 11-.845-.488l1.708-2.96.846.488zm-12.565.47h1.09a2.446 2.446 0 002.392 1.954h1.563c.764 0 1.494-.365 1.953-.977l2.068-2.757c.483.315.976.62 1.473.914l-1.374 2.38a1.464 1.464 0 102.537 1.465L15 16.746c.291.146.585.289.88.427l-.956 1.658a1.464 1.464 0 102.537 1.465l1.133-1.963a39.674 39.674 0 004.337 1.4c.287.075.538.232.727.449a12.736 12.736 0 01-6.685 1.888H2.469a1.5 1.5 0 01-1.307-.773l.727-5.086zm22.134 5.715c0 .186-.1.357-.254.438a14.762 14.762 0 01-6.796 1.66H2.47c-.825 0-1.475-.627-1.492-1.433l.007-.043c.421.317.941.5 1.485.5h14.505c2.494 0 4.916-.67 7.048-1.944l.001.045v.777zM15.43 11.72a.488.488 0 100-.977.488.488 0 000 .977z" fill="#000"/><path d="M24.021 2.374a.488.488 0 00-.483-.419h-1.953a.488.488 0 00-.488.488c0 .808-.657 1.465-1.465 1.465h-1.563a1.47 1.47 0 01-1.171-.586L14.554.197a.488.488 0 00-.662-.113c-.588.393-1.194.773-1.804 1.135l-.091-.157a.488.488 0 00-.667-.18l-1.692.977a.488.488 0 00-.179.667l.055.094c-.291.145-.586.287-.882.426l-.018-.031a.488.488 0 00-.667-.18l-1.691.977a.487.487 0 00-.238.346 38.778 38.778 0 01-4.196 1.351A2.439 2.439 0 00.004 7.87v.777c0 .554.299 1.053.78 1.303a15.741 15.741 0 007.245 1.771h5.207a.488.488 0 000-.976H8.029c-2.36 0-4.71-.575-6.795-1.66a.492.492 0 01-.254-.438l.002-.822a13.708 13.708 0 007.047 1.943h14.505c.544 0 1.064-.182 1.486-.5l.006.044c-.017.806-.666 1.433-1.492 1.433H17.63a.488.488 0 100 .976h4.904c1.361 0 2.469-1.095 2.469-2.441 0-.066.057.38-.982-6.905zm-12.626-.401l1.709 2.96a.489.489 0 01-.846.488L10.55 2.46l.846-.488zM8.012 3.926l1.22 2.114a.489.489 0 01-.845.488l-1.22-2.114.845-.488zM22.534 8.79H8.03c-2.37 0-4.672-.652-6.685-1.889.19-.216.44-.373.727-.449 1.06-.28 2.495-.688 4.337-1.4l1.133 1.963a1.464 1.464 0 102.538-1.464l-.957-1.658c.296-.14.59-.282.88-.427l1.41 2.442a1.464 1.464 0 102.537-1.465l-1.373-2.38c.496-.293.989-.599 1.472-.913l2.068 2.757a2.453 2.453 0 001.954.977h1.562c1.179 0 2.165-.84 2.392-1.953h1.09l.727 5.086a1.501 1.501 0 01-1.307.773z" fill="#000"/></svg>