<svg width="36" height="31" fill="none" xmlns="http://www.w3.org/2000/svg"><path d="M35.097 4.56H33.01V1.5a.696.696 0 00-.696-.696H22.158c-1.674 0-3.207.79-4.178 2.087A5.207 5.207 0 0013.803.803H3.647a.696.696 0 00-.696.696V4.56H.864a.696.696 0 00-.696.696v24.91c0 .384.311.695.696.695h24.028a.696.696 0 100-1.391h-6.274l.002-.007.002-.004a3.822 3.822 0 013.536-2.355h10.156a.696.696 0 00.696-.696V5.952h1.39V29.47h-3.82a.696.696 0 100 1.391h4.516a.696.696 0 00.696-.695V5.256a.696.696 0 00-.696-.696zM4.343 2.194h9.46a3.82 3.82 0 013.482 2.233v22.612a5.211 5.211 0 00-3.482-1.327h-9.46V2.194zM1.56 5.952h1.39v20.456c0 .385.312.696.696.696h10.156a3.822 3.822 0 013.54 2.366H1.56V5.952zm30.058 19.76h-9.46a5.211 5.211 0 00-3.482 1.327V4.427a3.82 3.82 0 013.482-2.233h9.46v23.518z" fill="#fff"/></svg>