<svg width="38" height="38" fill="none" xmlns="http://www.w3.org/2000/svg"><g clip-path="url(#clip0)" fill="#fff"><path d="M19.015 31.709h-.008a.737.737 0 00-.516.217.743.743 0 00.525 1.267.743.743 0 000-1.484zm-2.413.17a.735.735 0 00-.513-.245 57.06 57.06 0 01-8.431-1.067l-.072-.015a.743.743 0 00-.28 1.458l.055.011c2.839.578 5.75.946 8.652 1.096l.039.001a.742.742 0 00.55-1.24zm14.684-.739a.743.743 0 00-.868-.59l-.075.015c-2.755.56-5.581.92-8.398 1.066a.737.737 0 00-.513.244.741.741 0 00.55 1.239h.04a58.71 58.71 0 008.62-1.095l.054-.01a.737.737 0 00.59-.868zM28.65 15.197a.743.743 0 100 1.486.743.743 0 000-1.486zm-2.972 0H9.351a.743.743 0 000 1.485h16.327a.743.743 0 000-1.485z"/><path d="M37.514 27.953c-.332-.746-.678-1.5-1.014-2.23-1.483-3.231-3.018-6.572-3.596-9.955-.328-1.814-1.708-3.187-3.403-3.48a3.716 3.716 0 00-3.646-3.028h-4.629V7.68a2.974 2.974 0 002.227-2.874 2.972 2.972 0 00-2.969-2.97c-.54 0-1.047.147-1.485.4a2.946 2.946 0 00-1.483-.4 2.972 2.972 0 00-2.969 2.97c0 1.38.948 2.544 2.226 2.874v1.58h-4.628A3.716 3.716 0 008.5 12.287c-1.695.293-3.076 1.668-3.405 3.488-.576 3.377-2.11 6.717-3.595 9.948-.335.73-.682 1.484-1.013 2.23-.628 1.412-.648 2.688-.058 3.793 1.054 1.975 3.757 2.822 5.842 3.185 4.18.816 8.463 1.23 12.73 1.23a66.6 66.6 0 0012.73-1.23c2.085-.363 4.787-1.21 5.842-3.185.59-1.104.57-2.38-.058-3.793zm-17.03-24.63a1.485 1.485 0 010 2.968A1.486 1.486 0 0119 4.807c0-.819.666-1.485 1.484-1.485zM18.258 7.68c.263-.069.512-.172.742-.305.23.134.479.237.742.305v1.58h-1.484V7.68zm-2.226-2.874a1.486 1.486 0 011.855-1.436 2.95 2.95 0 00-.371 1.436c0 .52.135 1.01.371 1.436a1.481 1.481 0 01-1.855-1.436zm-3.887 5.937h13.71c.967 0 1.792.62 2.098 1.485H10.047a2.23 2.23 0 012.098-1.485zm24.118 20.303c-.845 1.582-3.634 2.221-4.794 2.422l-.016.003A65.116 65.116 0 0119 34.676c-4.174 0-8.364-.405-12.453-1.204l-.015-.003c-1.16-.2-3.95-.84-4.795-2.422-.368-.69-.333-1.505.105-2.491.328-.738.673-1.488 1.006-2.213 1.524-3.318 3.1-6.75 3.708-10.31.208-1.153 1.175-2.32 2.62-2.32h19.648c1.445 0 2.411 1.167 2.618 2.312.61 3.569 2.186 7 3.71 10.317.333.726.678 1.476 1.006 2.214.438.986.473 1.801.105 2.49z"/></g><defs><clipPath id="clip0"><path fill="#fff" d="M0 0h38v38H0z"/></clipPath></defs></svg>