<svg width="38" height="38" fill="none" xmlns="http://www.w3.org/2000/svg"><g clip-path="url(#clip0)" fill="#fff"><path d="M8.273 14.65a.748.748 0 00.217-.525.746.746 0 00-1.268-.525.747.747 0 00-.217.525c0 .195.08.387.217.525a.75.75 0 00.526.217.75.75 0 00.525-.217z"/><path d="M35.062 9.716A10.307 10.307 0 0037.935.749a.742.742 0 00-.61-.61 10.305 10.305 0 00-8.967 2.873l-5.252 5.252-2.383-.227a2.29 2.29 0 00-.56-2.303 2.267 2.267 0 00-1.613-.668 2.26 2.26 0 00-1.612.668l-1.774 1.773-2.353-.225c.26-.792.077-1.7-.551-2.328a2.283 2.283 0 00-3.225 0L7.24 6.751l-3.042-.29a.743.743 0 00-.596.214l-3.31 3.31a.742.742 0 00.182 1.182l4.3 2.242a.74.74 0 001-.314.742.742 0 00-.314-1.002L2.056 10.32l2.348-2.347 17.34 1.654-7.204 7.204-3.816-1.99a.742.742 0 10-.687 1.316l3.403 1.774-1.165 1.166a22.165 22.165 0 00-3.041 3.79l-6.455.12a.743.743 0 00-.512.217L.542 24.948a.742.742 0 00.288 1.228l5.96 2.01a22.29 22.29 0 00-.688 2.934.743.743 0 00.852.853c1-.165 1.98-.395 2.934-.689l2.01 5.96a.742.742 0 001.228.288l1.725-1.725a.742.742 0 00.217-.512l.113-6.45a22.146 22.146 0 003.797-3.045l1.166-1.166 6.763 12.967a.742.742 0 001.183.182l3.31-3.31a.744.744 0 00.213-.595l-.29-3.043 1.797-1.796a2.283 2.283 0 000-3.225 2.283 2.283 0 00-2.328-.551l-.225-2.354 1.773-1.773c.431-.43.668-1.003.668-1.612 0-.609-.237-1.181-.668-1.612a2.284 2.284 0 00-2.304-.561l-.227-2.383 5.253-5.252zM17.988 6.783a.79.79 0 01.562-.233.79.79 0 01.563.233.79.79 0 01.02 1.103l-2.052-.196.907-.907zm-7.903-.779A.797.797 0 0111.21 7.13l-2.055-.195.93-.93zM2.438 25.152l.667-.668 5.257-.097c-.41.776-.773 1.575-1.087 2.396l-4.837-1.631zm11.152 9.817l-.668.668-1.631-4.838a21.838 21.838 0 002.39-1.084l-.091 5.254zm4.338-10.219a20.661 20.661 0 01-3.897 3.06 20.458 20.458 0 01-6.263 2.497 20.459 20.459 0 015.556-10.161L29.408 4.062a8.82 8.82 0 017.135-2.531 8.82 8.82 0 01-2.53 7.135l-14.2 14.2-.005.005-1.88 1.88zm13.017 2.114a.796.796 0 011.125 1.125l-.93.93-.196-2.054.001-.001zm-.217-8.135a.79.79 0 01.563.233c.15.15.233.35.233.562a.789.789 0 01-.233.563l-.907.906-.195-2.052a.79.79 0 01.54-.212zm-.626 14.942l-2.347 2.347-6.511-12.484 7.204-7.204 1.654 17.34z"/><path d="M24.04 15.085a.742.742 0 10-1.05-1.05l-5.921 5.921a.742.742 0 101.05 1.05l5.92-5.92zm1.565-1.873a.74.74 0 00.525-.218l.007-.006a.742.742 0 10-1.05-1.05l-.006.006a.742.742 0 00.524 1.268z"/></g><defs><clipPath id="clip0"><path fill="#fff" d="M0 0h38v38H0z"/></clipPath></defs></svg>