<svg width="38" height="30" fill="none" xmlns="http://www.w3.org/2000/svg"><path d="M5.121 11.103h5.751a.742.742 0 000-1.484H5.121a.742.742 0 000 1.484zm0 5.14h5.751a.742.742 0 000-1.485H5.121a.742.742 0 000 1.485zm7.129 12.44a.749.749 0 00-.97-.401.749.749 0 00-.4.97.748.748 0 00.968.4.749.749 0 00.402-.969z" fill="#fff"/><path d="M37.8 17.198l-8.827-9.476 2.703-2.697c.47-.464.728-1.083.728-1.744 0-.65-.252-1.264-.71-1.726a2.475 2.475 0 00-3.473-.027l-.007.007-3.706 3.697h-1.384v-2.85a.742.742 0 00-.742-.743h-3.93v-.606a.742.742 0 00-1.485 0v.607h-2.711v-.607a.742.742 0 00-1.485 0v.607H10.06v-.607a.742.742 0 00-1.484 0v.607H5.864v-.607a.742.742 0 00-1.484 0v.607H.742A.742.742 0 000 2.381v26.585c0 .41.332.742.742.742h7.576a.742.742 0 000-1.484H1.484v-25.1H4.38v.673a.742.742 0 001.484 0v-.673h2.712v.673a.742.742 0 001.484 0v-.673h2.711v.673a.742.742 0 001.485 0v-.673h2.71v.673a.742.742 0 001.485 0v-.673h3.188v2.112a5.365 5.365 0 00-3.551 1.557l-5.462 5.462a.749.749 0 00.122 1.148 5.047 5.047 0 002.753.81h.004l-.852.85a.743.743 0 00-.148.212l-2.38 3.576a1.62 1.62 0 00-.27 1.047H5.122a.742.742 0 000 1.484h8.359c.32 0 .645-.107.91-.287l3.618-2.459a.765.765 0 00.12-.097l1.68-1.674 1.83 1.827v9.533h-6.791a.742.742 0 100 1.484h7.533c.41 0 .743-.332.743-.742V20.14a5.205 5.205 0 003.343 1.204h2.961c.616 0 1.213.255 1.635.696l5.654 6.01c.45.478 1.283.148 1.283-.51v-9.837a.742.742 0 00-.2-.506zM19.139 7.843a3.859 3.859 0 012.72-1.127h1.162l-4.624 4.613c-.428.411-.833.814-1.38 1.067a3.627 3.627 0 01-2.599.167l4.72-4.72zm10.12-5.253a.986.986 0 011.382.01c.18.182.28.424.28.681a.964.964 0 01-.29.691l-7.757 7.739-.373-.374a2.894 2.894 0 00-1.27-.739l8.028-8.008zM13.556 19.868c-.063.043-.123.038-.178-.017-.082-.081-.04-.144-.018-.177l1.94-2.914 1.145 1.144-2.889 1.963zm4.05-2.903l-1.377-1.377 1.414-1.411c.134.483.398.924.752 1.278l.362.361-1.15 1.149zm18.91 8.705l-4.376-4.65a3.766 3.766 0 00-2.712-1.16h-2.96a3.735 3.735 0 01-2.655-1.097l-4.37-4.36c-.632-.473-.49-1.523 0-2.02.55-.536 1.468-.535 2.007.004l3.55 3.55a.75.75 0 001.05 0c.29-.29.29-.76 0-1.05l-2.127-2.127 3.999-3.989 8.594 9.225v7.674z" fill="#fff"/></svg>