<svg width="21" height="25" fill="none" xmlns="http://www.w3.org/2000/svg"><path d="M20.068 21.555c-.394-2.136-1.02-4.076-1.857-5.767-.675-1.361-1.49-2.566-2.42-3.58-1.031-1.123-1.977-1.763-2.538-2.084 1.982-3.103 2.04-5.914 2.04-5.943 0-.68-.34-1.29-.879-1.708V.488a.488.488 0 00-.976 0v1.51a2.898 2.898 0 00-.728-.093c-.934 0-1.763.443-2.217 1.109-.454-.666-1.282-1.11-2.217-1.11-.253 0-.498.034-.73.094V.488a.488.488 0 00-.977 0v1.987c-.536.417-.876 1.027-.876 1.706 0 .03.058 2.843 2.043 5.948-.562.322-1.503.962-2.529 2.08-.93 1.013-1.745 2.218-2.42 3.58-.838 1.69-1.463 3.63-1.857 5.766-.125.677.253 1.34.898 1.579l1.672.617c.157.057.314.113.47.166l.016.006A20.2 20.2 0 0010.5 25c2.37 0 4.742-.416 6.998-1.25l1.673-.616a1.407 1.407 0 00.898-1.58zM6.67 4.18c0-.414.241-.784.617-1.023a1.863 1.863 0 01.99-.277c.846 0 1.55.536 1.603 1.22a.618.618 0 00.613.569.62.62 0 00.614-.57c.052-.683.756-1.219 1.603-1.219.346 0 .667.09.93.24.02.017.044.03.068.043.37.238.609.605.609 1.017 0 .027-.111 2.76-2.032 5.64l-.073.108c-.374.18-.77.3-1.172.355.102-.134.208-.29.308-.463.135-.235.258-.503.345-.799a.488.488 0 00-.937-.273 3.05 3.05 0 01-.595 1.071 2.929 2.929 0 01-.297.312.486.486 0 00-.103.122 3.939 3.939 0 01-.986-.325 13.494 13.494 0 01-.073-.109C6.78 6.942 6.67 4.208 6.67 4.181zm12.162 18.036l-1.673.618-.238.085c-.243-1.046-.95-3.708-2.232-5.767a.488.488 0 00-.829.516c1.229 1.972 1.915 4.634 2.128 5.555-2.3.684-4.698.929-7.069.734.02-.506.123-1.411.566-2.316a.488.488 0 00-.877-.43c-.498 1.018-.632 2.028-.662 2.642-1.1-.148-2.19-.39-3.258-.729.242-1.382 1.192-6.003 3.45-8.592a.488.488 0 00-.737-.642c-2.364 2.712-3.359 7.284-3.65 8.911l-1.585-.585a.432.432 0 01-.276-.485c.847-4.585 2.639-7.325 3.993-8.815 1.131-1.246 2.154-1.851 2.564-2.064a4.922 4.922 0 004.099-.003c.931.48 5.114 3.04 6.562 10.882a.432.432 0 01-.276.485z" fill="#000"/><path d="M13.476 15.566a.497.497 0 00-.134-.25.493.493 0 00-.69 0 .497.497 0 00-.143.345.484.484 0 00.393.479.484.484 0 00.574-.383.485.485 0 000-.19zm-1.282-8.183a.522.522 0 00-.073-.176.493.493 0 00-.677-.135.5.5 0 00-.208.31.485.485 0 00.208.502.5.5 0 00.271.083.48.48 0 00.27-.083.468.468 0 00.18-.22.495.495 0 00.029-.281z" fill="#000"/></svg>