<svg width="25" height="19" fill="none" xmlns="http://www.w3.org/2000/svg"><path d="M14.453 2.666a.488.488 0 100 .977.488.488 0 000-.977z" fill="#000"/><path d="M24.512.713H.488A.488.488 0 000 1.2v6.836a.492.492 0 00.059.232c.44.71 2.608 5.765 8.982 9.77.25.157.332.247.53.247h5.859c.176 0 .275-.082.386-.152 3.626-2.27 7.06-5.735 9.132-9.879.03-.06.052-.14.052-.218V1.201a.488.488 0 00-.488-.488zm-23.2 7.845c3.1.24 5.342 1.862 6.673 4.834.466 1.043.8 2.216.982 3.436-3.958-2.643-6.308-5.818-7.654-8.27zm-.335-.999V5.596h9.085c.002.226.006.444.01.658.036 1.9.059 3.155-.977 4.882l-.624 1.04C7.272 9.992 5.05 7.728.977 7.56zm14.763 10.62l.007-.005-.007.006zm-.754-.864h-4.973a14.57 14.57 0 00-1.035-4.086l.954-1.591c1.18-1.967 1.152-3.483 1.117-5.402a63.903 63.903 0 01-.01-.645h2.922c-.002.219-.006.437-.01.645-.035 1.92-.063 3.435 1.117 5.402l.955 1.592a14.548 14.548 0 00-1.037 4.084zm1.047-.487a13.23 13.23 0 01.983-3.435c1.33-2.972 3.572-4.595 6.67-4.835-1.834 3.331-4.64 6.226-7.653 8.27zm7.99-9.269c-4.075.168-6.295 2.432-7.493 4.618l-.625-1.041c-1.036-1.727-1.012-2.982-.977-4.882.004-.214.008-.432.01-.658h9.085v1.963zm0-2.94H.977V1.69h23.046v2.93z" fill="#000"/><path d="M12.5 2.666h-1.953a.488.488 0 100 .977H12.5a.488.488 0 100-.977z" fill="#000"/></svg>