<svg width="38" height="38" fill="none" xmlns="http://www.w3.org/2000/svg"><g clip-path="url(#clip0)" fill="#fff"><path d="M23.453 19.297a.743.743 0 100 1.485.743.743 0 000-1.485z"/><path d="M7.584 27.445L.162 36.797A.742.742 0 00.743 38H37.26a.742.742 0 00.581-1.203l-7.422-9.352a.742.742 0 00-.581-.28h-6.502l5.55-8.707a11.823 11.823 0 001.99-6.583C30.876 5.327 25.55 0 19.002 0 12.453 0 7.126 5.327 7.126 11.875c0 2.355.688 4.631 1.99 6.583l5.55 8.706H8.165a.742.742 0 00-.581.281zm-2.771 5.88H9.3l-2.532 3.19H2.28l2.533-3.19zm10.8-4.677l2.035 3.192h-5.275l2.533-3.192h.707zm6.776 0h.707l2.532 3.192h-5.273l2.034-3.192zm4.418 4.676l2.532 3.192H8.662l2.533-3.192h15.612zm4.428 3.192l-2.533-3.192h4.488l2.532 3.192h-4.487zm.776-4.676h-4.487l-2.533-3.192h4.488l2.532 3.192zm-21.656-14.2a10.346 10.346 0 01-1.745-5.765c0-5.73 4.662-10.39 10.39-10.39 5.73 0 10.392 4.66 10.392 10.39a10.35 10.35 0 01-1.745 5.766l-.009.013L19.001 31.2a460064.98 460064.98 0 00-8.646-13.56zm2.656 11.008L10.48 31.84H5.99l2.533-3.192h4.487z"/><path d="M22.127 21.83a.742.742 0 00-1.02.252l-2.742 4.551a.742.742 0 101.27.766l2.744-4.55a.742.742 0 00-.253-1.02zM19 19.297c4.075 0 7.422-3.3 7.422-7.422 0-4.092-3.33-7.422-7.422-7.422s-7.422 3.33-7.422 7.422c0 4.123 3.349 7.422 7.422 7.422zm0-13.36a5.944 5.944 0 015.938 5.938 5.938 5.938 0 01-11.875 0A5.944 5.944 0 0119 5.937z"/></g><defs><clipPath id="clip0"><path fill="#fff" d="M0 0h38v38H0z"/></clipPath></defs></svg>