<svg width="40" height="40" fill="none" xmlns="http://www.w3.org/2000/svg"><path d="M38.938 13.726L26.272 1.06A3.606 3.606 0 0023.705 0c-.972 0-1.884.376-2.568 1.06L1.06 21.137A3.606 3.606 0 000 23.704a3.61 3.61 0 001.06 2.568l1.562 1.562h.001L13.12 38.332h-1.454a.833.833 0 000 1.667h16.666a.833.833 0 000-1.666h-8.864l19.47-19.47a3.635 3.635 0 000-5.136zm-1.178 3.957L17.683 37.76a1.95 1.95 0 01-1.386.572h-.006a1.95 1.95 0 01-1.386-.572L4.39 27.245 23.671 7.964a.833.833 0 10-1.178-1.178L3.212 26.066l-.973-.973a1.95 1.95 0 01-.572-1.389c0-.526.203-1.02.572-1.389L22.315 2.24a1.95 1.95 0 011.39-.572c.526 0 1.02.203 1.389.572l4.508 4.508-19.281 19.28a.833.833 0 001.178 1.18L30.78 7.924l6.98 6.98a1.967 1.967 0 010 2.778z" fill="#F04E23"/><path d="M20.53 24.066a.833.833 0 00-1.179 0l-6.557 6.558a.834.834 0 001.178 1.178l6.558-6.557a.833.833 0 000-1.179zm-2.691 6.225l-2.69 2.69a.833.833 0 001.179 1.178l2.69-2.69a.833.833 0 00-1.18-1.178zm2.474-2.475l-.354.354a.833.833 0 001.178 1.178l.354-.353a.833.833 0 00-1.178-1.179zm11.493-15.021a.833.833 0 00-1.179 0l-3.535 3.535a.834.834 0 000 1.179l2.357 2.357a.83.83 0 001.178 0l3.536-3.536a.833.833 0 000-1.178l-2.357-2.357zm-1.768 5.303l-1.179-1.178 2.357-2.357 1.179 1.178-2.357 2.357zM25.029 6.262a.83.83 0 00.589-.244l.353-.353a.833.833 0 00-1.178-1.179l-.354.354a.833.833 0 00.59 1.422zM8.375 27.973l-.354.353A.833.833 0 009.2 29.505l.353-.354a.833.833 0 00-1.178-1.178z" fill="#F04E23"/></svg>