<svg width="38" height="38" fill="none" xmlns="http://www.w3.org/2000/svg"><g clip-path="url(#clip0)" fill="#fff"><path d="M8.294 26.597a.742.742 0 00-1.045.092l-1.856 2.216-.671-.568a.742.742 0 00-.96 1.133l1.24 1.05a.742.742 0 001.05-.09l2.335-2.787a.742.742 0 00-.093-1.046z"/><path d="M36.428 15.15h-1.066c-.894-.042-1.612-.803-2.444-1.683-.555-.589-1.15-1.219-1.867-1.686V5.437a2.029 2.029 0 00-2.026-2.027H4.817A2.03 2.03 0 002.79 5.437v5.148a.742.742 0 101.484 0V5.437a.55.55 0 01.543-.542h8.212v6.566a.743.743 0 001.136.63l2.757-1.723 2.754 1.723a.742.742 0 001.136-.63V4.895h8.213a.55.55 0 01.542.542v5.715a4.06 4.06 0 00-.763-.085h-4.206c-.895.013-1.354.419-1.583.757-.354.524-.387 1.234-.092 1.998.068.179.152.348.248.506h-5.628a2.195 2.195 0 00-2.075 2.904h-.197c-1.21 0-2.193.983-2.193 2.193 0 1.209.984 2.193 2.193 2.193h.196a2.197 2.197 0 001.96 2.9 2.196 2.196 0 002.074 2.905h9.195c.317 0 .605-.039.87-.105v2.326a.55.55 0 01-.541.544H11.833a6.015 6.015 0 00.226-1.629 6.036 6.036 0 00-6.03-6.03c-.61 0-1.2.093-1.755.262v-5.533a.742.742 0 00-1.484 0v6.22A6.03 6.03 0 000 28.559a6.037 6.037 0 006.03 6.032 6.031 6.031 0 005.162-2.919h17.833a2.03 2.03 0 002.027-2.028v-3.056c.163-.117.32-.237.472-.355.655-.505 1.221-.94 2.123-.94h2.781c.867 0 1.572-.705 1.572-1.57V16.72c0-.867-.705-1.572-1.572-1.572zm-17.1-5.028l-2.013-1.259a.742.742 0 00-.787 0l-2.014 1.26V4.894h4.814v5.227zM6.029 33.107a4.551 4.551 0 01-4.545-4.548 4.55 4.55 0 014.545-4.545 4.55 4.55 0 014.545 4.545 4.551 4.551 0 01-4.545 4.548zm30.487-9.384a.089.089 0 01-.088.085h-2.781c-1.407 0-2.269.664-3.03 1.25-.638.492-1.143.88-1.92.88H19.5a.71.71 0 010-1.416h2.464a.742.742 0 100-1.485h-4.422a.71.71 0 010-1.42h4.422a.742.742 0 100-1.483H15.27a.71.71 0 010-1.418h6.694a.742.742 0 100-1.484h-4.422a.71.71 0 010-1.42H28.51a.742.742 0 000-1.484h-2.686a1.61 1.61 0 01-1.517-1.038c-.141-.367-.102-.576-.062-.635.04-.06.185-.1.37-.104h4.168c1.252.025 2.128.953 3.055 1.935.97 1.027 1.973 2.09 3.479 2.147h1.11c.048 0 .088.04.088.088v7.002z"/><path d="M3.535 14.664a.744.744 0 000-1.486.742.742 0 00-.742.742v.004c0 .41.332.74.742.74z"/></g><defs><clipPath id="clip0"><path fill="#fff" d="M0 0h38v38H0z"/></clipPath></defs></svg>