<svg width="38" height="38" fill="none" xmlns="http://www.w3.org/2000/svg"><path d="M33.25 38a6.75 6.75 0 01-5.128-2.376 9.863 9.863 0 01-6.981-.702 7.442 7.442 0 01-11.668-3.67 7.412 7.412 0 01-2.032.283 7.381 7.381 0 01-3.101-.675.742.742 0 01.619-1.349c.78.358 1.615.54 2.482.54.785 0 1.55-.152 2.272-.45a.742.742 0 011.013.55 5.955 5.955 0 009.827 3.33.742.742 0 01.863-.093 8.365 8.365 0 004.135 1.092c.892 0 1.77-.14 2.61-.416a.742.742 0 01.834.27 5.261 5.261 0 005.319 2.074 6.768 6.768 0 01-2.364-4.576.741.741 0 01.158-.522 8.278 8.278 0 001.81-5.197c0-.706-.088-1.407-.262-2.083a.742.742 0 01.304-.8 5.79 5.79 0 002.556-4.803c0-3.028-2.364-5.565-5.383-5.775a.742.742 0 01-.56-1.16 5.171 5.171 0 00.907-2.935 5.207 5.207 0 00-5.201-5.201 5.173 5.173 0 00-2.914.892.742.742 0 01-1.01-.167 6.477 6.477 0 00-5.209-2.597 6.495 6.495 0 00-6.52 6.306.742.742 0 01-.907.7 5.963 5.963 0 00-7.29 5.804 5.95 5.95 0 001.517 3.97.742.742 0 01-.104 1.085 5.915 5.915 0 00-2.358 4.746c0 .265.018.532.053.793a.742.742 0 11-1.472.195A7.524 7.524 0 010 24.095c0-2.09.852-4.032 2.36-5.437a7.425 7.425 0 01-1.415-4.364c0-4.103 3.338-7.44 7.44-7.44.276 0 .553.015.829.046a7.963 7.963 0 012.358-4.642A7.967 7.967 0 0117.146 0a7.94 7.94 0 015.968 2.667 6.655 6.655 0 013.165-.796 6.694 6.694 0 016.081 9.467c3.24.748 5.64 3.669 5.64 7.089a7.27 7.27 0 01-2.792 5.73 9.92 9.92 0 01.194 1.956 9.74 9.74 0 01-1.942 5.874 5.281 5.281 0 002.828 3.964.742.742 0 010 1.324A6.657 6.657 0 0133.25 38z" fill="#fff"/><path d="M18.998 24.603a2.378 2.378 0 01-2.375-2.375v-2.221c0-1.861 1.238-3.53 3.01-4.059a2.22 2.22 0 001.578-2.176 2.235 2.235 0 00-2.158-2.158c-.6-.014-1.17.208-1.6.629-.43.42-.668.982-.668 1.583a2.378 2.378 0 01-2.375 2.375 2.378 2.378 0 01-2.375-2.375 6.91 6.91 0 012.098-4.981 6.922 6.922 0 015.032-1.98 6.928 6.928 0 014.753 2.042 6.928 6.928 0 012.042 4.753 6.982 6.982 0 01-4.586 6.714v1.854a2.378 2.378 0 01-2.375 2.375zm-.002-14.474h.093c1.942.047 3.56 1.665 3.606 3.608a3.707 3.707 0 01-2.637 3.633 2.761 2.761 0 00-1.95 2.637v2.221a.892.892 0 001.781 0v-2.221a.97.97 0 01.678-.93 5.492 5.492 0 003.909-5.382 5.45 5.45 0 00-1.608-3.738 5.45 5.45 0 00-3.738-1.608 5.447 5.447 0 00-3.96 1.558 5.437 5.437 0 00-1.65 3.92.892.892 0 001.78 0 3.67 3.67 0 011.115-2.646 3.667 3.667 0 012.58-1.052zM19 31.135a2.378 2.378 0 01-2.375-2.375A2.378 2.378 0 0119 26.385a2.378 2.378 0 012.375 2.375A2.378 2.378 0 0119 31.135zm0-3.266a.892.892 0 000 1.781.892.892 0 000-1.78zm-16.941.955a.748.748 0 01-.525-.217.75.75 0 01-.218-.525.75.75 0 01.218-.525.747.747 0 011.05 0c.137.138.217.33.217.525s-.08.387-.218.525a.748.748 0 01-.524.217z" fill="#fff"/></svg>