<svg width="38" height="35" fill="none" xmlns="http://www.w3.org/2000/svg"><path fill-rule="evenodd" clip-rule="evenodd" d="M27.957 9.934a6.603 6.603 0 00-6.596-6.596 6.603 6.603 0 00-6.595 6.596 6.603 6.603 0 006.595 6.595 6.603 6.603 0 006.596-6.595zm-11.707 0a5.117 5.117 0 015.111-5.112 5.117 5.117 0 015.112 5.112 5.117 5.117 0 01-5.111 5.111 5.117 5.117 0 01-5.112-5.111zm21.71 23.132l-1.71-4.995a.742.742 0 10-1.404.48l1.165 3.405-6.664-2.895a.744.744 0 00-.512-.029L19 32.03l-9.835-2.998a.744.744 0 00-.512.03l-6.664 2.894 1.164-3.405a.742.742 0 10-1.404-.48l-1.71 4.995a.742.742 0 00.999.921l7.955-3.455 9.79 2.984a.743.743 0 00.433 0l9.79-2.984 7.956 3.455a.742.742 0 00.998-.92z" fill="#fff"/><path fill-rule="evenodd" clip-rule="evenodd" d="M4.135 23.393a.739.739 0 00.942-.461l1.599-4.674 4.757-1.905v8.25a.742.742 0 001.275.517l5.574-5.744a9.898 9.898 0 003.08.487 9.896 9.896 0 006.927-2.822l3.038 1.217 1.599 4.674a.743.743 0 001.404-.48l-1.709-4.997a.743.743 0 00-.426-.449l-2.868-1.148a9.877 9.877 0 001.966-5.924c0-5.476-4.455-9.93-9.93-9.93-5.476 0-9.93 4.454-9.93 9.93v4.82l-5.625 2.252a.744.744 0 00-.426.45L3.673 22.45a.742.742 0 00.462.942zm8.782-13.46c0-4.656 3.789-8.445 8.446-8.445s8.445 3.789 8.445 8.446-3.788 8.445-8.445 8.445a8.41 8.41 0 01-3.017-.555.742.742 0 00-.798.176l-4.63 4.773V9.933zM3.41 26.242a.744.744 0 00.742-.742.744.744 0 00-.742-.742.744.744 0 00-.742.742c0 .409.333.742.742.742zm30.434-.742c0 .409.333.742.742.742a.744.744 0 00.742-.742.744.744 0 00-.742-.742.744.744 0 00-.742.742z" fill="#fff"/></svg>