<svg width="23" height="25" fill="none" xmlns="http://www.w3.org/2000/svg"><path d="M22.686 10.489L19.61 3.75c-.304-.666-.65-1.02-1.318-1.357a.49.49 0 00-.054-.023l-2.153-.774-.011-.468a.489.489 0 00-.28-.43L14.4.046a.488.488 0 00-.469.03A5.366 5.366 0 0111.5.652 5.365 5.365 0 019.013.045a.488.488 0 00-.412.001L7.208.7a.488.488 0 00-.28.43l-.012.468-2.153.774a.493.493 0 00-.054.023c-.669.336-1.013.691-1.318 1.357L.314 10.489a.488.488 0 00.185.617l3.677 2.298v6.295l-.483 3.277a.488.488 0 00.346.54l5.003 1.464a.486.486 0 00.347-.027l1.03-.488a.49.49 0 00.28-.442v-1.465h1.603v1.465c0 .19.108.36.279.442l1.03.488a.489.489 0 00.346.027l5.004-1.465a.488.488 0 00.346-.54l-.483-3.276v-6.295l3.677-2.298a.488.488 0 00.185-.617zm-7.474-4.635l-1.825-.532 1.124-4.145.593.278.108 4.399zM7.896 1.455l.593-.278 1.125 4.145-1.826.532.108-4.399zm2.802 20.127v-4.545a.488.488 0 00-.976 0v6.678l-.583.276-4.418-1.293.426-2.892a.487.487 0 00.006-.072V9.228a.488.488 0 00-.977 0v3.025L1.38 10.505l2.9-6.348c.207-.454.39-.647.842-.877l1.768-.636-.095 3.854a.488.488 0 00.625.48l2.302-.67v6.335a.488.488 0 00.977 0V5.656a.484.484 0 00-.018-.128L9.54 1.321a6.406 6.406 0 003.92 0l-1.14 4.207a.489.489 0 00-.017.128v15.926h-1.604zm8.126-9.33V9.227a.488.488 0 00-.977 0v10.508c0 .023.002.047.006.07l.426 2.893-4.418 1.293-.583-.276V6.306l2.302.672a.489.489 0 00.625-.481l-.095-3.854 1.768.636c.451.23.635.423.842.877l2.9 6.348-2.796 1.747z" fill="#000"/><path d="M10.211 14.352a.488.488 0 100 .977.488.488 0 000-.977z" fill="#000"/></svg>