<svg width="25" height="25" fill="none" xmlns="http://www.w3.org/2000/svg"><path d="M25 15.428c0-3.34-1.3-6.478-3.661-8.84a12.407 12.407 0 00-6.788-3.493v-.07c0-1.13-.92-2.05-2.051-2.05-1.13 0-2.05.92-2.05 2.05v.07a12.407 12.407 0 00-6.79 3.494A12.418 12.418 0 000 15.428v6.231c0 .973.558 1.808 1.457 2.18a2.323 2.323 0 002.571-.511 11.9 11.9 0 018.472-3.503 11.9 11.9 0 018.472 3.503 2.327 2.327 0 002.571.511A2.323 2.323 0 0025 21.66v-6.231zm-.977 0v2.153a18.063 18.063 0 00-3.027-2.006v-4.151a8.46 8.46 0 00-2.08-5.564c3.078 2.071 5.107 5.587 5.107 9.568zM12.5 1.95c.575 0 1.046.454 1.073 1.023a12.743 12.743 0 00-2.146 0A1.075 1.075 0 0112.5 1.95zM6.084 5.86a8.46 8.46 0 00-2.08 5.563v4.15A18.063 18.063 0 00.977 17.58v-2.153c0-3.981 2.029-7.497 5.107-9.568zM23.17 22.936a1.364 1.364 0 01-1.508-.3 12.87 12.87 0 00-9.162-3.789 12.87 12.87 0 00-9.162 3.79 1.364 1.364 0 01-1.508.3 1.364 1.364 0 01-.853-1.279v-2.792a17.212 17.212 0 019.39-4.282.488.488 0 10-.12-.97 18.187 18.187 0 00-5.266 1.482v-3.673c0-4.147 3.373-7.52 7.519-7.52s7.52 3.373 7.52 7.52v3.673a18.19 18.19 0 00-5.267-1.481.489.489 0 00-.12.969c1.492.184 2.958.565 4.359 1.133a17.122 17.122 0 015.031 3.15v2.791c0 .682-.44 1.107-.853 1.278z" fill="#000"/><path d="M16.317 11.707a1.48 1.48 0 00-1.044-2.523c-.395 0-.766.154-1.045.433l-.43.431-.608-.607 1.322-1.321a.488.488 0 10-.69-.69L12.5 8.75l-1.322-1.32a.488.488 0 00-.69.69l1.321 1.321-.607.607-.43-.431a1.468 1.468 0 00-1.045-.433 1.48 1.48 0 00-1.045 2.522c.3.3.698.465 1.122.465.423 0 .822-.165 1.121-.464l1.575-1.575 1.575 1.574c.3.3.698.465 1.121.465.424 0 .822-.165 1.121-.464zm-6.083-.691a.605.605 0 01-.862 0 .501.501 0 01.709-.708l.43.43-.277.278zm4.254-.277l.43-.431a.498.498 0 01.709 0 .501.501 0 010 .708.606.606 0 01-.862 0l-.277-.277zM12.5 13.478a.49.49 0 00-.346.834.492.492 0 00.69 0 .49.49 0 00-.345-.834z" fill="#000"/></svg>