<svg width="25" height="25" fill="none" xmlns="http://www.w3.org/2000/svg"><path d="M18.291 24.023h-.006a.488.488 0 000 .977h.006a.488.488 0 000-.977z" fill="#000"/><path d="M24.856 8.245l-3.47-3.444V1.953A1.955 1.955 0 0019.435 0H5.566a1.955 1.955 0 00-1.953 1.953v2.823l-3.47 3.47A.489.489 0 000 8.592v12.526A3.886 3.886 0 003.882 25H16.11a.488.488 0 000-.977H3.882a2.887 2.887 0 01-1.555-.452l.916-.916h7.5a.488.488 0 000-.976H4.218l5.825-5.825a3.478 3.478 0 014.912 0l7.717 7.717c-.45.286-.983.452-1.555.452h-.659a.488.488 0 000 .977h.66a3.866 3.866 0 002.638-1.036l.018-.02A3.87 3.87 0 0025 21.118V8.592a.488.488 0 00-.144-.347zm-3.47-2.068l2.434 2.416-2.433 2.433v-4.85zm-17.773-.02v4.87L1.18 8.591l2.434-2.435zM1.602 22.915a2.89 2.89 0 01-.625-1.797V9.771l6.884 6.884-6.26 6.26zm14.045-7.751a4.456 4.456 0 00-6.294 0l-.801.8-3.962-3.961V1.953c0-.538.438-.976.976-.976h13.868c.538 0 .976.438.976.976v10.05l-3.962 3.962-.801-.801zm8.376 5.954a2.89 2.89 0 01-.625 1.797l-6.26-6.26 6.885-6.884v11.347z" fill="#000"/><path d="M17.116 11.523H7.891a.488.488 0 000 .977h9.225a.488.488 0 000-.977zm0-3.515H7.891a.488.488 0 000 .976h9.225a.488.488 0 000-.976zm-1.713-3.373a.492.492 0 00-.834.345.491.491 0 00.489.489.491.491 0 00.346-.833zm-2.607-.143H7.891a.488.488 0 000 .977h4.905a.488.488 0 000-.977z" fill="#000"/></svg>