<svg width="38" height="38" fill="none" xmlns="http://www.w3.org/2000/svg"><path d="M33.761 30.973a.746.746 0 00-1.018-.273l-2.71 1.564a.746.746 0 10.745 1.292l2.71-1.565a.746.746 0 00.273-1.018z" fill="#fff"/><path d="M37.813 21.601a.68.68 0 00-.006-.09l-.001-.007a.735.735 0 00-.017-.08c-.001-.008-.004-.016-.006-.023a.776.776 0 00-.022-.065l-.008-.022a.77.77 0 00-.039-.078l-.001-.002a.725.725 0 00-.049-.073l-.014-.018a.736.736 0 00-.124-.123l-.004-.003a.75.75 0 00-.076-.051l-.005-.004-8.662-5V5.955a.74.74 0 00-.006-.092V5.86a.742.742 0 00-.017-.083l-.006-.021a.77.77 0 00-.023-.066l-.008-.02a.772.772 0 00-.089-.155l-.014-.018a.73.73 0 00-.124-.123l-.004-.003a.743.743 0 00-.076-.051l-.005-.004L19.373.1a.746.746 0 00-.745 0L9.594 5.315l-.005.004a.742.742 0 00-.076.05l-.004.004a.749.749 0 00-.124.123l-.014.018a.755.755 0 00-.09.154l-.007.021a.733.733 0 00-.045.169l-.001.005a.74.74 0 00-.006.091v10.007l-8.662 5-.005.004a.736.736 0 00-.076.051c-.001.001-.002.003-.004.003a.73.73 0 00-.063.056l-.016.016a.748.748 0 00-.045.052l-.014.018a.74.74 0 00-.05.073v.001a.738.738 0 00-.039.08l-.008.021a.777.777 0 00-.045.168l-.001.006a.738.738 0 00-.006.091V32.04c0 .267.142.513.372.646L9.594 37.9l.006.003a.76.76 0 00.082.04l.005.002c.026.01.052.02.08.027l.021.005a.74.74 0 00.067.014c.008 0 .016.002.023.003a.762.762 0 00.178 0l.023-.003a.708.708 0 00.167-.046l.006-.002a.723.723 0 00.082-.04l.006-.003 8.66-5 8.66 5 .006.003a.73.73 0 00.082.04l.006.002a.74.74 0 00.168.046l.023.003a.76.76 0 00.177 0c.008 0 .015-.002.023-.003a.7.7 0 00.067-.014l.022-.005a.718.718 0 00.078-.027l.006-.002a.73.73 0 00.082-.04l.006-.003 9.034-5.215a.745.745 0 00.373-.646V21.6zm-6.746-2.596l-7.541 4.354-3.034-1.751 7.541-4.355 3.034 1.752zm-3.78-3.043l-7.54 4.354v-8.708l7.54-4.355v8.709zM19 1.607l3.034 1.751-7.542 4.355-3.034-1.752L19 1.607zM9.967 17.253l3.034 1.752-7.543 4.354-3.033-1.751 7.542-4.355zm-.746 18.71L1.68 31.609v-8.71l3.212 1.855c.1.104.225.174.36.207l3.97 2.293v8.709zm.746-10.001L6.95 24.22l7.542-4.354 3.017 1.742-7.542 4.354zm8.288 5.647l-7.542 4.354v-8.71l7.542-4.354v8.71zm0-11.293l-7.542-4.354v-8.71l3.21 1.855a.75.75 0 00.363.209l3.969 2.292v8.708zM15.984 8.574l7.542-4.355 3.016 1.742L19 10.316l-3.017-1.742zm11.304 27.389l-7.542-4.354v-8.71l3.213 1.855a.743.743 0 00.359.207l3.97 2.292v8.71zm.746-10.001l-3.017-1.742 7.542-4.354 3.017 1.742-7.542 4.354zm8.288 5.647l-7.543 4.354v-8.71l7.543-4.354v8.71z" fill="#fff"/><path d="M34.982 29.625c-.96 0-.961 1.491 0 1.491.96 0 .961-1.491 0-1.491z" fill="#fff"/></svg>