<svg width="38" height="38" fill="none" xmlns="http://www.w3.org/2000/svg"><path d="M25.68 33.324a.742.742 0 100 1.485.742.742 0 000-1.485z" fill="#fff"/><path d="M32.688 26.703a6.657 6.657 0 00-3.067-2.456l-5.444-2.155a7.412 7.412 0 002.245-5.319c0-.8-.125-1.58-.372-2.326a.742.742 0 00.372-.642V11.53l1.295-2.591 1.263-.632a.742.742 0 00.41-.663V5.418a.742.742 0 00-.507-.704l-2.11-.704-5.1-3.86a.742.742 0 00-.447-.15h-4.454a.742.742 0 00-.448.15l-5.098 3.86-2.11.704a.742.742 0 00-.508.704v2.226c0 .282.16.539.41.664l1.264.632 1.295 2.59v2.275a.74.74 0 00.372.642 7.37 7.37 0 00-.372 2.326c0 2.024.821 3.934 2.245 5.318l-5.445 2.156a6.654 6.654 0 00-3.067 2.456 6.653 6.653 0 00-1.155 3.754v6.8c0 .41.333.743.742.743h28.204c.41 0 .742-.332.742-.742v-6.8c0-1.345-.4-2.643-1.156-3.755zm-6.18-2.092l-4.54 7.522v-2.247c0-.48-.158-.954-.445-1.336l-1.31-1.747a2.226 2.226 0 001.014-1.866v-1.083a7.331 7.331 0 001.578-.708l3.704 1.465zM11.5 8.055a.742.742 0 00-.332-.332l-1.074-.537V5.953l1.719-.573a.742.742 0 00.213-.112l4.997-3.784h3.954l4.997 3.784a.743.743 0 00.213.112l1.72.573v1.233l-1.075.537a.742.742 0 00-.332.332l-1.28 2.558H12.78L11.5 8.055zm1.562 4.043h11.875v1.17l-1.94.637a12.81 12.81 0 01-8.035-.008l-1.434-.474a.74.74 0 00-.466-.252v-1.073zm0 4.675c0-.635.099-1.253.293-1.844l1.14.378a14.335 14.335 0 008.964.01l1.186-.39a5.935 5.935 0 01-2.31 6.76l-.034.022a5.869 5.869 0 01-1.981.855 6.03 6.03 0 01-2.64 0 5.933 5.933 0 01-4.617-5.79zm6.68 7.385v.78a.743.743 0 01-1.484 0v-.78a7.496 7.496 0 001.484 0zm-4.548-1.013a7.33 7.33 0 001.58.709v1.084a2.212 2.212 0 001.012 1.866l-1.31 1.745a2.239 2.239 0 00-.445 1.337v2.247l-4.54-7.522 3.703-1.466zM5.64 36.515v-6.058a5.167 5.167 0 013.283-4.83l1.167-.462 5.985 9.916.867 1.435H5.64zm14.843-1.923l-1.16 1.924h-.648l-1.16-1.923v-4.707c0-.16.052-.318.148-.446L19 27.66l1.336 1.782a.745.745 0 01.148.445v4.706zm.573 1.924l6.851-11.35 1.167.46a5.168 5.168 0 013.284 4.832v6.058H21.057z" fill="#fff"/><path d="M30.133 33.324h-1.485a.742.742 0 000 1.485h1.485a.742.742 0 000-1.485zM19 3.191a2.972 2.972 0 00-2.969 2.97A2.972 2.972 0 0019 9.128a2.972 2.972 0 002.969-2.969A2.972 2.972 0 0019 3.191zm0 4.454a1.486 1.486 0 01-1.484-1.485c0-.818.665-1.484 1.484-1.484a1.485 1.485 0 010 2.969z" fill="#fff"/></svg>