<svg width="36" height="36" fill="none" xmlns="http://www.w3.org/2000/svg"><g clip-path="url(#clip0)" fill="#fff"><path d="M36 16.492V4.861A4.865 4.865 0 0031.14 0H19.506a.75.75 0 00-.53.22l-2.273 2.273a34.021 34.021 0 00-1.177-.077c-5.002-.243-9.27.63-10.875 2.223-.642.638-.756 1.28-.738 1.705.063 1.536 1.9 2.917 5.084 3.854l-7.58 7.58A4.826 4.826 0 000 21.215c0 1.302.504 2.522 1.419 3.437l9.848 9.848H10.5a.75.75 0 000 1.5h15a.75.75 0 000-1.5h-7.197L35.78 17.023a.75.75 0 00.22-.53zM5.412 6.282c-.002-.068-.01-.273.297-.58 1.035-1.026 4.468-2.018 9.58-1.795l-5.069 5.07C6.743 8.102 5.438 6.89 5.412 6.282zM17.161 33.52a3.336 3.336 0 01-2.376.979 3.337 3.337 0 01-2.377-.98L2.48 23.592a3.336 3.336 0 01-.98-2.376c0-.9.349-1.745.98-2.376L17.265 4.053c2.17.227 4.174.663 5.77 1.267 1.058.4 1.771.814 2.219 1.186a2.99 2.99 0 00-.785 2.847l.006.023v.002a3.005 3.005 0 002.904 2.243c1.654 0 3-1.346 3-3a3.003 3.003 0 00-3.77-2.9c-.635-.67-1.658-1.28-3.044-1.804-1.412-.534-3.113-.945-4.955-1.209L19.818 1.5H31.14a3.364 3.364 0 013.36 3.36v11.322L17.162 33.52zM27.373 7.345a2.071 2.071 0 00-.022-.222l.028-.002c.827 0 1.5.673 1.5 1.5s-.673 1.5-1.5 1.5a1.5 1.5 0 01-1.242-.66c1.046-.742 1.26-1.541 1.236-2.116z"/><path d="M32.163 6.337a.75.75 0 00-.491.94 4.505 4.505 0 01-4.294 5.844 4.505 4.505 0 01-4.5-4.5.75.75 0 00-1.5 0c0 3.309 2.691 6 6 6 3.308 0 6-2.691 6-6a5.98 5.98 0 00-.275-1.792.75.75 0 00-.94-.492zm-.998-.602a.748.748 0 00.54-1.27 5.957 5.957 0 00-.384-.367.75.75 0 00-.985 1.132c.099.086.195.178.288.274.147.154.344.23.54.23zM21.884 23.06c.138-.193.262-.392.367-.595a3.828 3.828 0 00-.316-4.032c-.781-1.05-1.99-1.533-3.234-1.295-.891.171-1.74.653-2.561 1.119-.189.107-.367.208-.546.306-1.098.599-2.147.641-2.805.113-.543-.436-.723-1.192-.483-2.021.07-.24.192-.473.354-.696l1.24 1.24a.748.748 0 001.061 0 .75.75 0 000-1.06l-1.196-1.196a5.68 5.68 0 011.723-.77.75.75 0 10-.358-1.456c-.8.197-1.683.59-2.447 1.143l-.573-.573a.75.75 0 00-1.061 1.06l.539.54a3.9 3.9 0 00-.723 1.35c-.408 1.41-.03 2.793.985 3.609 1.146.92 2.815.933 4.462.034l.173-.096 3.317 3.316c-.722.567-1.54.844-2.049.683a.75.75 0 10-.453 1.43c.253.08.515.117.782.117.95 0 1.955-.472 2.781-1.168l.793.792a.748.748 0 001.06 0 .75.75 0 000-1.06l-.832-.833zm-.964-1.287c-.036.07-.076.14-.117.207l-2.949-2.948c.391-.195.774-.352 1.129-.42.676-.13 1.313.132 1.75.717a2.32 2.32 0 01.187 2.444zM9.597 25.575a.75.75 0 10-1.061 1.06l.307.308a.748.748 0 001.06 0 .75.75 0 000-1.06l-.306-.308zm6.781 3.595l-1.591 1.591-3.182-3.182a.75.75 0 00-1.061 1.06l3.182 3.183c.292.292.676.438 1.06.438.385 0 .769-.146 1.061-.438l1.591-1.591a.75.75 0 10-1.06-1.06z"/></g><defs><clipPath id="clip0"><path fill="#fff" d="M0 0h36v36H0z"/></clipPath></defs></svg>