<svg width="25" height="21" fill="none" xmlns="http://www.w3.org/2000/svg"><path d="M24.98 6.52a8.656 8.656 0 00-.184-1.324c-.251-1.13-.73-2.133-1.423-2.978C22.187.772 20.787.29 20.728.27a.488.488 0 00-.496.114C16.13 4.394 14.82 8.096 13.864 10.8c-.265.748-.515 1.454-.788 2.067-.957 2.151-2.739 2.915-3.974 2.915-.719 0-1.59-.28-1.677-1.064a.488.488 0 00-.553-.43c-.94.133-2.6.697-3.949 1.342-1.89.904-2.872 1.789-2.92 2.631-.026.447.118.839.426 1.166.891.944 3.23 1.329 8.075 1.329 2.926 0 4.836-.46 6.194-1.491 1.289-.98 1.987-2.375 2.872-4.142.41-.819.866-1.73 1.443-2.719.537.747.936 2.182 1.143 4.144a31.25 31.25 0 01.152 3.705.489.489 0 00.488.503h1.117c.385 0 .699-.018.938-.24.264-.246.278-.602.29-.916.088-2.22.605-5.481 1.538-9.691.268-1.208.368-2.342.3-3.388zm-6.482 4.842c-.753 1.23-1.31 2.342-1.802 3.323-1.697 3.391-2.549 5.093-8.192 5.093-2.747 0-6.5-.106-7.365-1.023a.55.55 0 01-.161-.439c.015-.257.53-.927 2.366-1.806 1.183-.566 2.438-.989 3.237-1.173.344.867 1.293 1.42 2.521 1.42 1.527 0 3.718-.915 4.867-3.494.288-.648.544-1.372.815-2.138.957-2.704 2.143-6.057 5.901-9.815a5.7 5.7 0 011.932 1.527c.763.93 1.216 2.055 1.36 3.364-.483.19-.922.398-1.33.63-1.62.919-2.86 2.274-4.149 4.53zm5.228-1.665c-.946 4.266-1.47 7.585-1.56 9.864a3.659 3.659 0 01-.013.211 3.812 3.812 0 01-.24.006h-.622a32.086 32.086 0 00-.163-3.324c-.128-1.216-.325-2.239-.59-3.063.294-.438.622-.873.937-1.282a.488.488 0 10-.774-.596c-.199.26-.403.528-.603.804a3.626 3.626 0 00-.558-.804c1.136-1.917 2.193-3.04 3.588-3.832.281-.16.578-.307.899-.445a11.963 11.963 0 01-.301 2.46z" fill="#000"/><path d="M8.852 17.912h-.01c-.98.019-1.944.009-2.864-.03a.488.488 0 10-.042.975 45.987 45.987 0 002.925.031.488.488 0 00-.009-.976zm1.933.365a.487.487 0 00-.512-.463l-.023.001a.488.488 0 00.045.976l.028-.002a.488.488 0 00.462-.512zm11.579-7.867a.488.488 0 00-.69-.012l-.008.007a.488.488 0 00.668.713l.018-.018a.488.488 0 00.012-.69z" fill="#000"/></svg>