<svg width="15" height="25" fill="none" xmlns="http://www.w3.org/2000/svg"><path d="M14.75 22.262a.488.488 0 10-.975.036l.055 1.514-3.21.186-2.632-16.74v-.524a2.446 2.446 0 001.953-2.392V2.974h.6c.44.935 1.362 1.865 2.636 2.655l.436 12.277c.01.263.226.47.488.47h.017c.27-.01.48-.235.471-.505l-.546-15.394V.488a.488.488 0 00-.49-.488H6.817a.488.488 0 100 .977h2.148v1.02H1.934V.977h.488a.488.488 0 100-.977h-.976a.488.488 0 00-.489.488v1.989l-.78 21.777c-.01.266.194.49.459.505l4.128.24a.487.487 0 00.511-.412L7.5 10.44l2.225 14.147a.488.488 0 00.51.412l4.13-.24a.488.488 0 00.459-.505l-.073-1.992zM11.66 2.974h1.423l.052 1.453c-.644-.464-1.147-.959-1.476-1.453zM9.94.977h3.125v1.02H9.941V.977zm-.976 3.365c0 .636-.408 1.18-.977 1.38V2.975h.977v1.368zM3.337 2.974c-.332.492-.837.99-1.472 1.451l.052-1.451h1.42zm1.042 21.024l-3.21-.186.652-18.183c1.272-.788 2.195-1.718 2.638-2.655h2.553v4.284l-2.633 16.74z" fill="#000"/><path d="M14.15 19.597a.488.488 0 10.06.975.488.488 0 00-.06-.975zM4.621.977a.488.488 0 100-.977.488.488 0 000 .977z" fill="#000"/></svg>