<svg width="25" height="25" fill="none" xmlns="http://www.w3.org/2000/svg"><path d="M24.572 5.262L19.738.428a1.466 1.466 0 00-2.072 0l-.488.489a.489.489 0 00.69.69l.49-.488c.19-.19.5-.19.69 0l4.833 4.833a.484.484 0 01.142.346c0 .131-.05.254-.142.345l-8.977 8.977a.484.484 0 01-.345.142.484.484 0 01-.345-.142L9.38 10.786a.485.485 0 01-.142-.345c0-.131.05-.254.142-.345l5.727-5.727a.488.488 0 10-.69-.69L8.69 9.405a1.455 1.455 0 00-.428 1.036c0 .392.152.76.428 1.036l1.375 1.374-.559.558a.677.677 0 01-.746.138.488.488 0 00-.528.088l-7.437 6.85a2.477 2.477 0 00-.794 1.79A2.686 2.686 0 00.78 24.22a2.684 2.684 0 001.944.78 2.476 2.476 0 001.79-.794.488.488 0 10-.718-.662 1.509 1.509 0 01-1.092.48 1.7 1.7 0 01-1.234-.494 1.703 1.703 0 01-.494-1.234c.009-.427.179-.815.48-1.092l7.23-6.659a1.66 1.66 0 001.51-.444l.558-.558.703.703-.558.558a1.66 1.66 0 00-.444 1.51L6.443 20.67a.488.488 0 00.719.662l4.203-4.564a.488.488 0 00.088-.527.677.677 0 01.138-.747l.558-.558 1.375 1.375c.275.275.643.427 1.035.427.392 0 .76-.152 1.036-.428l8.977-8.976c.276-.276.428-.644.428-1.036s-.152-.76-.428-1.036z" fill="#000"/><path d="M5.135 22.093a.488.488 0 10.69.69.488.488 0 00-.69-.69zm8.283-10.386a.488.488 0 10.977 0 .488.488 0 00-.977 0zm5.812-2.148a.488.488 0 10-.977 0 .488.488 0 00.977 0zM14.688 7.85a.488.488 0 10.976 0 .488.488 0 00-.976 0zm5.761-2.344a.488.488 0 10-.977 0 .488.488 0 00.977 0zm-4.305-2.374a.488.488 0 100-.977.488.488 0 000 .977z" fill="#000"/></svg>