<svg width="60" height="60" fill="none" xmlns="http://www.w3.org/2000/svg"><g clip-path="url(#clip0)" fill="#F04E23"><path d="M59.392 12.977L36.024.146a1.172 1.172 0 00-1.128 0l-8.808 4.836a1.176 1.176 0 00-.503.276l-14.056 7.72a1.168 1.168 0 00-.608 1.026v15.52A15.512 15.512 0 004.57 33.38a15.596 15.596 0 00-2.988 17.872 1.171 1.171 0 102.106-1.029 13.253 13.253 0 012.539-15.186 13.162 13.162 0 019.368-3.88c3.54 0 6.867 1.378 9.37 3.88a13.162 13.162 0 013.88 9.368c0 3.54-1.379 6.866-3.881 9.369a13.252 13.252 0 01-15.186 2.54 1.171 1.171 0 10-1.029 2.105 15.6 15.6 0 0017.872-2.988 15.59 15.59 0 003.226-4.678l5.05 2.772a1.171 1.171 0 001.127 0l23.368-12.83c.375-.207.608-.6.608-1.028v-8.144a1.172 1.172 0 10-2.344 0v7.45l-21.02 11.543V27.527l6.937-3.81v6.04a1.171 1.171 0 001.737 1.026l5.007-2.756c.375-.206.607-.6.607-1.026v-7.32l6.732-3.696v6.163a1.172 1.172 0 102.344 0v-8.144c0-.427-.233-.821-.608-1.027zM35.46 2.51l20.933 11.495-6.603 3.626L28.857 6.135 35.46 2.51zm0 22.99L14.527 14.004l6.845-3.759L42.306 21.74l-6.846 3.759zm9.28-5.096L23.807 8.908l2.615-1.436 20.934 11.495-2.616 1.436zM26.621 33.38a15.49 15.49 0 00-11.025-4.567c-.788 0-1.566.058-2.331.172v-13L34.292 27.53v22.99l-3.65-2.005a15.67 15.67 0 00.546-4.11A15.49 15.49 0 0026.62 33.38zm21.96-7.072l-2.664 1.466v-5.343l2.664-1.463v5.34z"/><path d="M58.828 25.657c-.308 0-.61.126-.828.343a1.18 1.18 0 00-.344.83 1.175 1.175 0 002.001.827A1.18 1.18 0 0060 26.83c0-.308-.125-.61-.343-.829a1.182 1.182 0 00-.829-.343zM11.656 45.576a1.172 1.172 0 00.829-2l-.812-.812h6.926a3.05 3.05 0 013.047 3.047 3.05 3.05 0 01-3.047 3.047h-4.104a1.172 1.172 0 100 2.343h4.104a5.396 5.396 0 005.39-5.39 5.396 5.396 0 00-5.39-5.39h-6.926l.812-.813a1.172 1.172 0 00-1.658-1.657l-2.812 2.812a1.173 1.173 0 000 1.658l2.812 2.812c.23.229.53.343.829.343zM5.4 55.775c-.334 0-.665-.142-.896-.417l-.003-.002a1.171 1.171 0 111.653.144 1.17 1.17 0 01-.755.275z"/></g><defs><clipPath id="clip0"><path fill="#fff" d="M0 0h60v60H0z"/></clipPath></defs></svg>