<svg width="60" height="60" fill="none" xmlns="http://www.w3.org/2000/svg"><path d="M55.894 24.51a3.325 3.325 0 01-2.253-2.191 3.325 3.325 0 01.535-3.098c1.586-2.06 1.623-4.75.095-6.854-1.529-2.104-4.1-2.9-6.55-2.029a3.325 3.325 0 01-3.11-.448 3.325 3.325 0 01-1.388-2.82c.072-2.6-1.48-4.798-3.953-5.602-2.472-.803-5.02.064-6.49 2.209A3.325 3.325 0 0130 5.142a3.325 3.325 0 01-2.78-1.465c-1.47-2.145-4.018-3.012-6.49-2.209-2.473.804-4.025 3.003-3.953 5.602a3.325 3.325 0 01-1.388 2.82 3.325 3.325 0 01-3.11.448c-2.45-.871-5.021-.075-6.55 2.028-1.528 2.104-1.49 4.795.095 6.855.689.895.884 2.024.535 3.098a3.325 3.325 0 01-2.253 2.191C1.612 25.245 0 27.4 0 30s1.612 4.755 4.106 5.49a3.325 3.325 0 012.253 2.192 3.325 3.325 0 01-.535 3.097c-1.586 2.06-1.623 4.751-.095 6.855 1.529 2.103 4.1 2.9 6.55 2.028a3.325 3.325 0 013.11.449 3.325 3.325 0 011.388 2.82c-.072 2.599 1.48 4.797 3.953 5.6.612.2 1.23.297 1.834.296 1.834 0 3.55-.89 4.656-2.504A3.325 3.325 0 0130 54.858c1.129 0 2.142.534 2.78 1.465 1.47 2.145 4.018 3.012 6.49 2.209 2.473-.804 4.025-3.002 3.953-5.602a3.325 3.325 0 011.388-2.82 3.325 3.325 0 013.111-.448c2.45.871 5.02.075 6.549-2.028 1.528-2.104 1.49-4.795-.095-6.855a3.325 3.325 0 01-.535-3.097 3.325 3.325 0 012.253-2.192C58.388 34.755 60 32.6 60 30s-1.612-4.755-4.106-5.49zm-.665 8.723a5.72 5.72 0 00-2.918 8.981c1.134 1.473.772 3.051.056 4.037-.716.986-2.105 1.817-3.856 1.194a5.72 5.72 0 00-7.64 5.55c.051 1.858-1.169 2.922-2.327 3.3-1.16.376-2.772.232-3.822-1.301a5.721 5.721 0 00-9.443 0c-1.05 1.533-2.663 1.677-3.822 1.3-1.16-.376-2.38-1.44-2.328-3.298a5.72 5.72 0 00-5.72-5.882c-.646 0-1.295.109-1.92.331-1.75.623-3.14-.208-3.856-1.194-.716-.986-1.078-2.564.056-4.037a5.72 5.72 0 00-2.918-8.98C2.988 32.707 2.353 31.218 2.353 30s.635-2.707 2.418-3.233a5.72 5.72 0 002.918-8.98c-1.134-1.473-.772-3.051-.056-4.037.716-.986 2.106-1.817 3.856-1.194a5.72 5.72 0 007.64-5.55c-.051-1.859 1.169-2.923 2.328-3.3 1.158-.376 2.771-.232 3.822 1.301a5.721 5.721 0 009.443 0c1.05-1.533 2.663-1.677 3.821-1.3 1.16.376 2.38 1.44 2.328 3.298a5.72 5.72 0 007.64 5.55c1.75-.622 3.14.21 3.856 1.195.716.986 1.078 2.564-.056 4.037a5.72 5.72 0 002.918 8.98c1.783.526 2.418 2.015 2.418 3.233 0 1.22-.635 2.708-2.418 3.233z" fill="#F04E23"/><path d="M30 11.422a18.42 18.42 0 00-11.221 3.77 18.719 18.719 0 00-6.6 9.541 1.176 1.176 0 102.257.666 16.35 16.35 0 015.765-8.333A16.08 16.08 0 0130 13.775a1.177 1.177 0 000-2.353zm14.308 28.556a1.176 1.176 0 00-1.654.18 16.162 16.162 0 01-12.653 6.067 1.176 1.176 0 100 2.353 18.504 18.504 0 0014.487-6.946 1.176 1.176 0 00-.18-1.654zm1.575-1.468a1.196 1.196 0 100-2.392 1.196 1.196 0 000 2.392zm-18.179.667l-7.971-7.971c-.344-.343-.896-.086-1.288.307-.405.404-.65.944-.307 1.287l4.93 4.93-6.94-2.207c-1.104-.344-1.46-.233-2.037.343-.404.405-.637.957-.294 1.3l7.96 7.96c.33.33.894.11 1.3-.295.392-.393.625-.97.294-1.3l-4.93-4.93 7.566 2.293c.589.172 1.043-.037 1.423-.417.392-.392.625-.968.294-1.3zm6.856-7.223c-.38-.38-.894-.528-1.213-.209l-3.47 3.47-2.466-2.464 1.864-1.864c.344-.343.172-.834-.11-1.116-.331-.331-.822-.454-1.14-.135L26.16 31.5l-2.453-2.453 3.47-3.47c.32-.32.172-.834-.208-1.215-.331-.33-.846-.527-1.19-.183l-4.366 4.365c-.355.356-.527.871-.196 1.202l7.96 7.96c.33.33.845.159 1.201-.197l4.366-4.366c.343-.343.147-.858-.184-1.19zm8.683-8.241L37.959 13.57a.744.744 0 00-.123-.172c-.355-.356-1.202-.073-1.656.38-.245.245-.38.552-.208.847l4.71 8.584-5.31-3.225c-.38-.233-.871-.013-1.215.33-.355.356-.576.847-.343 1.227l3.225 5.31-8.584-4.71c-.295-.17-.601-.036-.847.21-.453.453-.735 1.3-.38 1.655.05.05.123.098.172.123l10.142 5.285c.478.258 1.116-.037 1.582-.503.454-.453.76-1.103.478-1.557l-2.514-4.108 4.096 2.526c.454.282 1.104-.025 1.558-.478.466-.467.748-1.092.502-1.582z" fill="#F04E23"/></svg>