<svg width="60" height="54" fill="none" xmlns="http://www.w3.org/2000/svg"><path d="M58.828 13.278h-6.767c.1-2.573-.125-4.883-.671-6.883-.81-2.965-2.618-5.012-5.093-5.767-.081-.025-2.006-.585-4.75-.02-2.34.483-5.772 1.906-9.114 5.912a6.412 6.412 0 00-2.48-.497h-.141a6.43 6.43 0 00-2.344.441c-3.334-3.973-6.756-5.383-9.087-5.86-2.733-.559-4.65 0-4.735.025-2.47.754-4.277 2.8-5.087 5.766-.547 2-.772 4.31-.672 6.883H1.172C.525 13.278 0 13.802 0 14.45v9.382c0 .647.525 1.172 1.172 1.172h2.122v24.482a4.162 4.162 0 004.158 4.158h45.096a4.162 4.162 0 004.158-4.158V25.004h2.122c.647 0 1.172-.525 1.172-1.172V14.45c0-.647-.525-1.172-1.172-1.172zM41.888 2.932c2.15-.473 3.659-.08 3.74-.058 2.25.692 3.16 2.89 3.5 4.139.483 1.765.683 3.913.587 6.265H36.402c.017-.164.03-.328.035-.493l4.769-2.408a1.172 1.172 0 10-1.056-2.092l-4.09 2.065a6.557 6.557 0 00-1.652-2.538c2.258-2.645 4.77-4.285 7.48-4.88zM37.265 22.66h-14.53v-7.04h14.53v7.039zM29.953 8.367c2.285 0 4.144 1.88 4.144 4.191 0 .243-.02.483-.061.72h-8.307a4.2 4.2 0 01-.062-.72c0-2.31 1.86-4.19 4.145-4.19h.14zM10.819 7.013c.342-1.25 1.25-3.447 3.501-4.139.082-.022 1.583-.413 3.724.054 2.682.585 5.172 2.195 7.414 4.79a6.56 6.56 0 00-1.725 2.553L19.8 8.285a1.172 1.172 0 00-1.057 2.092l4.583 2.314c.004.197.016.393.038.587h-13.13c-.096-2.351.104-4.5.586-6.265zm-8.475 8.609H20.39v7.038H2.344v-7.038zm3.294 33.864V25.004h17.576V51.3H7.452c-1 0-1.814-.814-1.814-1.814zm48.724 0c0 1-.814 1.814-1.814 1.814H36.786V39.568a1.172 1.172 0 00-2.343 0V51.3h-8.886V25.004h8.886v3.97a1.172 1.172 0 002.343 0v-3.97h17.576v24.482zm3.294-26.826H39.61v-7.04h18.047v7.039z" fill="#F04E23"/><path d="M35.615 35.421c-.49 0-.935-.317-1.102-.777a1.18 1.18 0 01.344-1.288 1.181 1.181 0 011.377-.102c.41.255.624.751.53 1.224-.107.54-.597.943-1.149.943z" fill="#F04E23"/></svg>