<svg width="43" height="44" fill="none" xmlns="http://www.w3.org/2000/svg"><path d="M28.558 16.413L20.16 25.82l-4.26-4.26a.746.746 0 10-1.056 1.055l4.82 4.82c.14.14.33.218.528.218h.021a.746.746 0 00.536-.25l8.924-9.995a.746.746 0 10-1.114-.995z" fill="#000"/><path d="M42.809 21.876a.739.739 0 00.023-.177c0-1.989-2.063-3.017-3.884-3.924-1.292-.644-2.628-1.31-2.984-2.15-.362-.856.15-2.252.643-3.603.688-1.882 1.4-3.828.087-5.14-1.288-1.287-3.17-.852-4.992-.428-1.274.295-2.593.6-3.471.23-.857-.363-1.57-1.488-2.259-2.576-1-1.577-2.131-3.365-4.096-3.365-1.968 0-3.079 1.827-4.058 3.439-.68 1.119-1.382 2.275-2.238 2.637-.876.37-2.208.035-3.497-.289-1.836-.46-3.734-.94-5.024.353-1.304 1.303-.672 3.259-.06 5.151.436 1.35.888 2.746.522 3.61-.356.843-1.632 1.503-2.868 2.142C2.903 18.69.92 19.716.92 21.7c0 .062.01.121.024.178a.738.738 0 00-.024.177c0 1.984 1.984 3.01 3.734 3.914 1.235.639 2.512 1.299 2.868 2.142.365.864-.086 2.26-.523 3.61-.611 1.892-1.244 3.847.06 5.15 1.291 1.293 3.19.816 5.025.353 1.289-.323 2.622-.658 3.497-.288.855.362 1.558 1.518 2.238 2.637.98 1.611 2.09 3.438 4.058 3.438 1.964 0 3.097-1.788 4.096-3.365.69-1.088 1.402-2.212 2.257-2.575.882-.372 2.198-.067 3.473.23 1.82.421 3.704.86 4.99-.429 1.315-1.312.602-3.258-.086-5.14-.494-1.35-1.005-2.747-.643-3.602.356-.84 1.692-1.506 2.984-2.15 1.82-.907 3.884-1.936 3.884-3.925a.73.73 0 00-.023-.18zm-4.526 2.766c-1.535.765-3.122 1.556-3.693 2.904-.591 1.398.022 3.076.615 4.697.552 1.508 1.073 2.933.433 3.572-.701.703-2.11.376-3.598.03-1.507-.349-3.064-.71-4.39-.15-1.287.544-2.126 1.87-2.938 3.151-.87 1.373-1.692 2.67-2.835 2.67-1.13 0-1.932-1.32-2.783-2.72-.802-1.32-1.633-2.687-2.932-3.236-1.336-.566-2.915-.169-4.443.216-1.498.375-2.912.733-3.605.039-.658-.658-.19-2.104.304-3.636.521-1.61 1.06-3.274.478-4.651-.566-1.34-2.087-2.125-3.557-2.886-1.505-.778-2.927-1.512-2.927-2.589 0-.061-.01-.12-.023-.178a.739.739 0 00.023-.177c0-1.076 1.421-1.81 2.926-2.588 1.471-.76 2.992-1.547 3.558-2.887.58-1.376.043-3.04-.478-4.65-.495-1.532-.963-2.979-.304-3.637.691-.693 2.106-.337 3.604.04 1.528.383 3.106.782 4.443.216 1.3-.55 2.13-1.916 2.933-3.237.85-1.4 1.653-2.72 2.782-2.72 1.143 0 1.965 1.296 2.835 2.67.812 1.282 1.652 2.607 2.938 3.152 1.327.56 2.884.199 4.39-.15 1.49-.346 2.897-.673 3.6.03.639.638.117 2.063-.434 3.572-.593 1.621-1.206 3.299-.615 4.697.57 1.348 2.158 2.14 3.693 2.904 1.572.783 3.057 1.524 3.057 2.588 0 .062.01.121.024.178a.74.74 0 00-.024.177c0 1.066-1.485 1.806-3.057 2.589z" fill="#000"/></svg>