<svg width="58" height="52" viewBox="0 0 58 52" fill="none" xmlns="http://www.w3.org/2000/svg">
<path d="M40.1089 26C40.1089 25.7322 40.0025 25.4753 39.8131 25.2859C39.6237 25.0965 39.3669 24.9901 39.099 24.9901H30.0099V11.1881C30.0099 10.9203 29.9035 10.6634 29.7141 10.474C29.5247 10.2846 29.2679 10.1782 29 10.1782C28.7322 10.1782 28.4753 10.2846 28.2859 10.474C28.0965 10.6634 27.9901 10.9203 27.9901 11.1881V26C27.9901 26.2678 28.0965 26.5247 28.2859 26.7141C28.4753 26.9035 28.7322 27.0099 29 27.0099H39.099C39.3669 27.0099 39.6237 26.9035 39.8131 26.7141C40.0025 26.5247 40.1089 26.2678 40.1089 26Z" fill="#FF2B00"/>
<path d="M5.28081 21.8325C5.43239 21.8319 5.58191 21.7973 5.71844 21.7315L14.2151 17.5842C14.4357 17.456 14.5996 17.2492 14.674 17.0052C14.7483 16.7611 14.7276 16.498 14.6159 16.2687C14.5042 16.0393 14.3098 15.8607 14.0719 15.7688C13.8339 15.6769 13.57 15.6784 13.3331 15.7731L6.87645 18.9307C8.38346 14.2278 11.3497 10.1275 15.3448 7.22454C19.3399 4.32162 24.1561 2.76713 29.0944 2.78664C34.0328 2.80615 38.8365 4.39864 42.8086 7.33305C46.7806 10.2674 49.7144 14.3911 51.1842 19.1057C51.4405 19.9325 51.6495 20.7732 51.8103 21.6238C51.8567 21.8525 51.9804 22.0584 52.1606 22.2067C52.3408 22.3551 52.5666 22.4369 52.8 22.4384H52.9953C53.2571 22.3847 53.4875 22.2306 53.6373 22.0091C53.787 21.7877 53.8441 21.5165 53.7965 21.2535C53.6239 20.3436 53.3991 19.4444 53.1232 18.5604C51.5501 13.3937 48.3542 8.87137 44.009 5.66375C39.6639 2.45612 34.4008 0.733938 29 0.752467C23.7027 0.771552 18.5441 2.44756 14.2471 5.54563C9.95016 8.6437 6.73018 13.0086 5.03844 18.0285L2.0424 11.8883C1.99087 11.7594 1.91333 11.6425 1.8146 11.5449C1.71587 11.4473 1.59808 11.3711 1.46858 11.3211C1.33909 11.2711 1.20067 11.2483 1.06197 11.2541C0.923273 11.26 0.787272 11.2944 0.662462 11.3552C0.537652 11.416 0.426713 11.5018 0.336574 11.6074C0.246435 11.713 0.179031 11.836 0.13857 11.9688C0.0981104 12.1016 0.0854635 12.2413 0.10142 12.3792C0.117376 12.5171 0.161592 12.6502 0.231307 12.7703L4.3719 21.2669C4.45518 21.4369 4.58455 21.58 4.74526 21.68C4.90596 21.78 5.09154 21.8328 5.28081 21.8325Z" fill="black"/>
<path d="M57.8764 39.8019L53.7291 31.2784C53.6116 31.0387 53.404 30.8553 53.1517 30.7683C52.8994 30.6812 52.6228 30.6976 52.3826 30.8138L43.8859 34.9544C43.7666 35.0128 43.6599 35.094 43.5719 35.1936C43.484 35.2932 43.4165 35.4092 43.3734 35.5348C43.3302 35.6605 43.3123 35.7934 43.3205 35.926C43.3287 36.0586 43.363 36.1883 43.4214 36.3077C43.4797 36.427 43.561 36.5337 43.6606 36.6217C43.7602 36.7096 43.8761 36.7771 44.0018 36.8202C44.1275 36.8634 44.2604 36.8813 44.393 36.8731C44.5256 36.8649 44.6553 36.8306 44.7746 36.7722L50.8812 33.7896C49.1748 38.5967 45.9335 42.7083 41.6577 45.4898C37.3819 48.2713 32.3094 49.568 27.2233 49.1797C22.1372 48.7913 17.3203 46.7395 13.5164 43.3411C9.71247 39.9427 7.133 35.3866 6.17622 30.3762C6.15147 30.2436 6.10083 30.1171 6.02721 30.0041C5.95358 29.891 5.85841 29.7936 5.74713 29.7173C5.63585 29.641 5.51063 29.5874 5.37863 29.5595C5.24663 29.5317 5.11043 29.53 4.97781 29.5548C4.84518 29.5796 4.71874 29.6302 4.60568 29.7038C4.49263 29.7774 4.39519 29.8726 4.31891 29.9839C4.24264 30.0952 4.18903 30.2204 4.16115 30.3524C4.13327 30.4844 4.13167 30.6206 4.15642 30.7532C5.18816 36.2421 8.01032 41.2342 12.1814 44.9484C16.3524 48.6626 21.637 50.8894 27.2084 51.2803C32.7797 51.6712 38.3235 50.2042 42.9724 47.1089C47.6212 44.0136 51.1129 39.4645 52.901 34.1734L56.0653 40.657C56.147 40.8287 56.2758 40.9737 56.4367 41.075C56.5977 41.1763 56.7841 41.2298 56.9742 41.2293C57.1267 41.2295 57.2769 41.1926 57.4119 41.1215C57.6447 41.0041 57.8231 40.8012 57.9096 40.5552C57.9962 40.3092 57.9843 40.0393 57.8764 39.8019Z" fill="black"/>
<path d="M27.9901 40.8119V45.5248C27.9901 45.7926 28.0965 46.0495 28.2859 46.2389C28.4753 46.4283 28.7322 46.5347 29 46.5347C29.2679 46.5347 29.5247 46.4283 29.7141 46.2389C29.9035 46.0495 30.0099 45.7926 30.0099 45.5248V40.8119C30.0099 40.5441 29.9035 40.2872 29.7141 40.0978C29.5247 39.9084 29.2679 39.802 29 39.802C28.7322 39.802 28.4753 39.9084 28.2859 40.0978C28.0965 40.2872 27.9901 40.5441 27.9901 40.8119Z" fill="black"/>
<path d="M17.8305 35.3989L14.4979 38.7652C14.3295 38.9595 14.2411 39.2103 14.2503 39.4672C14.2595 39.7241 14.3656 39.9679 14.5474 40.1497C14.7292 40.3315 14.973 40.4376 15.2299 40.4468C15.4868 40.456 15.7376 40.3675 15.9319 40.1992L19.2646 36.8329C19.4329 36.6386 19.5213 36.3878 19.5122 36.1309C19.503 35.874 19.3968 35.6302 19.215 35.4484C19.0333 35.2666 18.7894 35.1605 18.5325 35.1513C18.2756 35.1421 18.0248 35.2306 17.8305 35.3989Z" fill="black"/>
</svg>
