<svg width="33" height="55" fill="none" xmlns="http://www.w3.org/2000/svg"><path d="M26.273 21.455l-.06 8.161-10.02 6.761-8.16-5.603-.06-8.04 9.9-6.579 8.4 5.3z" fill="#FF2B00"/><path d="M29.993.99H3.413C1.853.927.533 2.206.533 3.79v47.448c.06 1.584 1.32 2.802 2.88 2.802h26.58c1.56.06 2.88-1.218 2.88-2.802V3.791c-.06-1.584-1.32-2.863-2.88-2.802zM2.273 8.906h28.8v34.11h-28.8V8.906zm1.08-6.09h26.58a.982.982 0 011.08.974v3.29h-28.8V3.79c.12-.61.6-1.035 1.14-.975zm26.64 49.336H3.413a.982.982 0 01-1.08-.975v-6.334h28.8v6.334c-.12.61-.6 1.036-1.14.975z" fill="#000"/><path d="M16.973 50.325c.828 0 1.5-.681 1.5-1.522s-.672-1.523-1.5-1.523c-.829 0-1.5.682-1.5 1.523 0 .84.671 1.523 1.5 1.523z" fill="#000"/><path d="M26.333 21.76v-.122l-.06-.062-8.04-5.42a.378.378 0 00-.36 0l-2.82 1.888-2.58 1.766c-.06 0-.06.061-.12.061l-4.38 2.985-.06.06v7.675c0 .122.06.244.12.304l8.04 5.421s.06 0 .06.061h.12s.06 0 .06-.06l9.9-6.7c.12-.062.12-.183.12-.305v-7.553zm-8.34-4.995l7.44 5.055-2.34 1.584-7.32-5.117 2.22-1.522zm-1.92 11.329l-7.44-5.056 3.84-2.619 7.32 5.116-3.72 2.559zm-.96-9.441l7.32 5.116-2.04 1.401-7.32-5.116 2.04-1.401zm5.64 7.065l1.98-1.34-.06 3.168-1.92 1.279v-3.107zm-12.36-2.01l7.38 4.995v6.76l-7.38-4.994v-6.76zm8.04 11.695v-6.761l3.66-2.497v3.289c0 .121.06.243.18.304.06 0 .12.061.18.061s.12 0 .18-.06l2.58-1.706c.12-.061.12-.183.12-.244l.06-3.837 2.28-1.584v6.761l-9.24 6.274z" fill="#231F20" stroke="#000" stroke-miterlimit="10"/><path d="M15.113 30.347c.12 0 .24-.06.3-.122.12-.182.06-.365-.12-.487l-3.78-2.558c-.18-.122-.36-.06-.48.122-.12.183-.06.365.12.487l3.78 2.558h.18zm.24 1.158l-2.16-1.462c-.18-.122-.36-.061-.48.122-.12.182-.06.365.12.487l2.16 1.462c.06.06.12.06.18.06.12 0 .24-.06.3-.121.06-.244 0-.487-.12-.548z" fill="#231F20" stroke="#000" stroke-miterlimit="10"/></svg>