<svg width="60" height="58" fill="none" xmlns="http://www.w3.org/2000/svg"><path d="M57.166 33.345a9.57 9.57 0 00-6.612-2.808V17.114a.97.97 0 00-.445-.82L25.763.17a.997.997 0 00-1.111 0L.446 16.195a.983.983 0 00-.446.826v22.52a.976.976 0 00.453.84l24.824 16.138c.337.22.774.22 1.111 0l15.964-11.02c.07-.052.135-.111.193-.178l6.745 11.76c.177.303.499.495.852.508a.992.992 0 00.844-.47l7.55-11.923a.707.707 0 00.08-.159 9.51 9.51 0 00-1.43-11.693h-.02zm-31.33-1.368L14.821 24.71 36.885 9.92l11.228 7.431-22.277 14.626zm-.665-29.793l9.891 6.546-22.037 14.778L3 16.902 25.17 2.184zM1.996 18.58l22.616 14.97v20.16L1.996 39.006V18.58zm24.612 35.37V33.846l21.95-14.415v11.264c-4.553.852-7.856 4.797-7.868 9.4a7.484 7.484 0 00.838 3.64.892.892 0 00-.266.126L26.608 53.949zm31.377-13.834a7.594 7.594 0 01-1.184 4.036c-.029.049-.053.1-.074.152l-6.525 10.352-6.26-10.972a1.022 1.022 0 00-.292-.417c-.466-.377-.965-1.526-.965-3.15 0-4.2 3.428-7.604 7.657-7.604 4.214-.008 7.636 3.378 7.643 7.564v.04z" fill="#000"/><path d="M50.342 35.459c-2.328 0-4.217 1.87-4.224 4.181-.011 2.31 1.865 4.191 4.19 4.202h.027c2.331-.092 4.145-2.043 4.053-4.358-.087-2.186-1.852-3.939-4.053-4.026h.007zm2.208 4.195a2.22 2.22 0 01-2.222 2.206 2.215 2.215 0 01-1.57-.66 2.147 2.147 0 01-.665-1.566c0-1.219.995-2.206 2.222-2.206a2.22 2.22 0 012.235 2.206v.02z" fill="#FF2B00"/></svg>