<svg width="55" height="37" fill="none" xmlns="http://www.w3.org/2000/svg"><path d="M50.716.627H5.052C2.734.627.879 2.51.879 4.864v27.368c0 2.354 1.855 4.238 4.173 4.238h45.664c2.318 0 4.173-1.884 4.173-4.238V4.864c0-2.354-1.855-4.237-4.173-4.237zM5.052 2.392h45.664c1.333 0 2.434 1.119 2.434 2.472v1.942H2.618V4.864c0-1.353 1.101-2.472 2.434-2.472zM53.15 12.927H2.618V8.572H53.15v4.355zm-2.434 21.777H5.052c-1.333 0-2.434-1.118-2.434-2.472V14.693H53.15v17.539c0 1.354-1.1 2.472-2.434 2.472z" fill="#000"/><path d="M9.282 25.052c-1.68 0-3.013 1.353-3.013 3.06s1.333 3.06 3.013 3.06 3.014-1.353 3.014-3.06c0-1.648-1.333-3.06-3.014-3.06zm0 4.414c-.695 0-1.275-.589-1.275-1.295s.58-1.295 1.275-1.295 1.275.589 1.275 1.295-.58 1.295-1.275 1.295zm30.945-2.06H15.715c-.464 0-.87.412-.87.883 0 .47.406.883.87.883h24.512c.464 0 .87-.412.87-.883 0-.471-.348-.883-.87-.883z" fill="#FF2B00"/></svg>