<svg width="61" height="68" fill="none" xmlns="http://www.w3.org/2000/svg"><path fill="#FF2B00" d="M12.698 24.06h19.847v4.791H12.698z"/><path d="M60.235 51.405l-7.026-7.014a.642.642 0 00-.47-.2h-.006a.65.65 0 00-.475.2l-1.154 1.15-2.077-2.072a14.765 14.765 0 004.085-10.206c0-8.174-6.647-14.821-14.823-14.821-8.171 0-14.818 6.647-14.818 14.82 0 8.18 6.65 14.83 14.818 14.83 3.742 0 7.156-1.4 9.772-3.693l2.089 2.096-.963.963a.678.678 0 000 .96l7.023 7.015a.647.647 0 00.47.196.679.679 0 00.476-.196l3.07-3.068a.674.674 0 00.202-.481.65.65 0 00-.193-.479zM24.824 33.263c0-7.433 6.043-13.477 13.473-13.477 7.433 0 13.48 6.047 13.48 13.477 0 7.435-6.053 13.476-13.48 13.476-7.427 0-13.473-6.041-13.473-13.476zM56.694 54l-6.071-6.069 2.119-2.121 6.074 6.068L56.694 54z" fill="#010101" stroke="#000" stroke-width=".5"/><path d="M34.48 31.589a18.884 18.884 0 01-1.898-7.004v-.02a21.166 21.166 0 01-.044-.973c.05-5.012 2.94-20.234 2.968-20.389a.7.7 0 00-.376-.757L32.05.908a.694.694 0 00-.658.016.697.697 0 00-.354.556c-.105 1.342-.429 2.877-.788 4.263a94.63 94.63 0 01-7.765.32c-2.58 0-5.189-.11-7.767-.32-.429-1.649-.7-3.104-.788-4.263a.696.696 0 00-.351-.556.692.692 0 00-.662-.016l-3.084 1.54a.703.703 0 00-.376.758c.033.177 3.341 17.604 2.935 21.24 0 .01 0 .02-.003.031a18.933 18.933 0 01-1.903 7.109C8.313 36.004 4.164 45.657.77 60.68c-.067.29.06.594.318.75l6.868 4.206a.702.702 0 00.617.058.707.707 0 00.42-.453l.462-1.519c2.415.487 4.88.844 7.344 1.057l-.091.794a.698.698 0 00.487.75c1.729.542 3.51.813 5.291.813 1.782 0 3.56-.271 5.292-.814a.698.698 0 00.487-.75l-.095-.79a65.95 65.95 0 007.344-1.057l.46 1.519a.714.714 0 00.42.453.692.692 0 00.617-.058l6.868-4.207a.697.697 0 00.318-.75C40.803 45.66 36.654 36.004 34.48 31.59zM23.186 7.46a97.409 97.409 0 006.66-.279 52.37 52.37 0 01-.727 2.265 52.535 52.535 0 01-5.933.42V7.46zm-1.402 0v2.407a52.533 52.533 0 01-5.933-.42 48.865 48.865 0 01-.73-2.266c2.212.172 4.447.263 6.663.28zM10.935 3.466l1.71-.854c.185 1.36.545 2.956 1.07 4.76.492 1.687.943 2.904.963 2.957a.697.697 0 00.561.45c2.393.327 4.83.496 7.244.496 2.415 0 4.852-.166 7.245-.495a.712.712 0 00.564-.451c.066-.186 1.552-4.207 2.033-7.717l1.707.854c-.52 2.775-2.846 15.451-2.89 20.112v.034a62.152 62.152 0 01-17.314 0c-.047-4.692-2.373-17.363-2.893-20.146zM25.37 29.075c-2.235-.089-10-.288-12.221-.6.302-1.13.506-2.291.609-3.456 2.04.283 9.623.468 11.675.55l-.063 3.506zm-.302-3.505a63.697 63.697 0 006.146-.55 20.43 20.43 0 00.606 3.454 66.322 66.322 0 01-6.688.6l-.064-3.504zm-2.617.052h.069-.069zm14.602 38.35l-6.328-20.865a.7.7 0 10-1.342.406l5.72 18.862a64.295 64.295 0 01-7.097 1.013L26.107 47.43a.7.7 0 10-1.391.163L26.8 65.147a16.273 16.273 0 01-8.633 0l2.006-16.843a.699.699 0 00-.614-.777.698.698 0 00-.777.614l-1.815 15.247a64.248 64.248 0 01-7.1-1.013l5.717-18.862a.7.7 0 10-1.342-.406L7.917 63.97 2.25 60.5c3.341-14.602 7.374-23.98 9.496-28.292a20.18 20.18 0 00.987-2.378 69.05 69.05 0 009.753.697 68.96 68.96 0 009.748-.697c.282.807.608 1.601.987 2.378 2.125 4.313 6.158 13.69 9.499 28.292l-5.668 3.471z" fill="#000" stroke="#000" stroke-width=".25"/></svg>