<svg width="49" height="48" fill="none" xmlns="http://www.w3.org/2000/svg"><path d="M48.634 19.378L25.476.523c-.317-.257-.825-.257-1.206 0L1.113 19.378a.922.922 0 00-.381.773v26.384c0 .515.444.965.952.965h46.315c.508 0 .952-.45.952-.965V20.151c.063-.322-.063-.58-.317-.773zM2.699 21.76L16.72 33.214 2.7 44.669v-22.91zm22.206 7.208L45.27 45.57H4.602l20.303-16.603zm8.184 4.183l14.022-11.455V44.54L33.089 33.15zM24.905 2.518l21.381 17.44-14.72 11.969-6.09-4.955c-.317-.258-.825-.258-1.206 0l-6.09 4.955-14.72-11.97 21.445-17.44z" fill="#000"/><path d="M32.138 13.65h-.317l.253-.128c-1.205-2.767-3.806-4.44-6.915-4.44-4.188 0-7.614 3.475-7.614 7.722 0 4.248 3.426 7.723 7.614 7.723 1.586 0 3.108-.515 4.44-1.416l-.316-.515a7.083 7.083 0 01-4.06 1.287c-3.871 0-6.98-3.218-6.98-7.079 0-3.86 3.172-7.079 6.98-7.079 2.854 0 5.138 1.48 6.344 3.99v4.119c0 .9-.698 1.673-1.65 1.673-.888 0-1.65-.837-1.713-1.738.063-.321.127-.643.127-.965 0-1.802-1.46-3.346-3.3-3.346-1.776 0-3.298 1.48-3.298 3.346 0 1.802 1.459 3.347 3.299 3.347 1.142 0 2.157-.58 2.728-1.48.38.836 1.205 1.48 2.094 1.48 1.205 0 2.22-1.03 2.22-2.253l.064-4.247zm-7.043 5.921c-1.459 0-2.665-1.222-2.665-2.703 0-1.48 1.206-2.702 2.665-2.702 1.46 0 2.665 1.222 2.665 2.703 0 1.48-1.206 2.702-2.665 2.702z" fill="#FF2B00" stroke="#FF2B00" stroke-width="2" stroke-miterlimit="10"/></svg>