<svg width="50" height="64" fill="none" xmlns="http://www.w3.org/2000/svg"><path d="M26.136 1.673v-.346H12.16V11h7.635V7.2h6v4.145h7.637V1.673h-7.296z" fill="#FF2B00"/><path d="M38.545 23.713c-.409 0-.818.069-1.227.276v-.345c0-2.073-1.636-3.731-3.682-3.731h-.204a3.66 3.66 0 00-1.705.414 3.672 3.672 0 00-3.613-2.97c-.614 0-1.228.138-1.773.414v-5.39h6.477c.546 0 1.023-.483 1.023-1.035V1.258c0-.552-.477-1.036-1.023-1.036H11.682c-.546 0-1.023.484-1.023 1.036v10.157c0 .552.477 1.036 1.023 1.036h7.159v25.356l-6-4.974c-2.523-2.142-6.136-1.935-8.455.345-.34.346-.409.968-.068 1.382l14.523 18.862v8.705c0 .553.477 1.037 1.023 1.037.545 0 1.022-.484 1.022-1.037v-9.05c0-.208-.068-.484-.204-.622L6.5 34.077a4.16 4.16 0 015.046.345l7.704 6.356c.41.346 1.091.277 1.432-.138.136-.207.204-.414.204-.622V8.996c0-.898.75-1.658 1.637-1.658h.204c.887 0 1.637.76 1.637 1.658v22.04c0 .553.477 1.037 1.022 1.037.546 0 1.023-.484 1.023-1.037V21.018c.068-.898.887-1.589 1.773-1.589.886 0 1.636.76 1.636 1.658v9.95c0 .552.477 1.036 1.023 1.036.545 0 1.023-.484 1.023-1.037v-7.461c0-.898.75-1.659 1.636-1.659h.205c.886 0 1.636.76 1.636 1.659v7.462c0 .552.477 1.036 1.023 1.036.545 0 1.022-.484 1.022-1.037v-3.8c-.068-.69.41-1.381 1.091-1.45h.137c.818 0 1.5.69 1.5 1.45v17.895c0 2.833-1.091 5.596-3.137 7.6-.204.207-.34.484-.272.76v7.946c0 .552.477 1.036 1.022 1.036.546 0 1.023-.484 1.023-1.036v-7.531c2.182-2.35 3.41-5.528 3.41-8.775V27.236c-.069-2.003-1.637-3.592-3.614-3.523zM22.727 5.266h-.204c-2.046 0-3.682 1.658-3.682 3.73v1.382h-6.136V2.364h19.09v8.014h-5.454V8.996a3.593 3.593 0 00-3.614-3.73zm25.841-.83H38.341c-.546 0-1.023.484-1.023 1.037 0 .552.477 1.036 1.023 1.036h10.227c.546 0 1.023-.484 1.023-1.036 0-.553-.477-1.037-1.023-1.037z" fill="#000"/><path d="M38.477 10.655c-.409-.415-1.09-.346-1.431.069-.341.414-.341 1.036 0 1.381l9.136 9.259c.477.345 1.09.207 1.432-.208a1.047 1.047 0 000-1.243l-9.137-9.258zM8.75 14.04a.98.98 0 00-1.432 0L.5 20.95a1.079 1.079 0 00-.068 1.45 1.045 1.045 0 001.432.07s.068 0 .068-.07l6.818-6.91c.41-.414.477-1.035.068-1.45H8.75z" fill="#000"/></svg>