<svg width="47" height="51" fill="none" xmlns="http://www.w3.org/2000/svg"><path d="M23.715 29.321c-7.956 0-14.406-6.454-14.406-14.41 0-7.954 6.45-14.406 14.406-14.406S38.123 6.957 38.123 14.91c0 7.956-6.452 14.41-14.408 14.41zm0-26.756c-6.819 0-12.348 5.527-12.348 12.348 0 6.82 5.53 12.35 12.348 12.35 6.819 0 12.35-5.53 12.35-12.35 0-6.82-5.531-12.348-12.35-12.348zm-.26 32.931a26.154 26.154 0 01-13.46-3.706 1.024 1.024 0 01-.282-1.425 1.03 1.03 0 011.337-.335 24.218 24.218 0 0024.807 0 1.021 1.021 0 011.425.283c.318.47.196 1.108-.28 1.43a.4.4 0 01-.085.047 26.162 26.162 0 01-13.462 3.706z" fill="#010101"/><path d="M36.992 30.11a14.2 14.2 0 01-.883 1.911 21.685 21.685 0 018.593 16.325H2.218a21.692 21.692 0 018.638-16.385 14.04 14.04 0 01-.865-1.896A23.776 23.776 0 00.13 49.379a1.03 1.03 0 001.029 1.028h44.593a1.03 1.03 0 001.028-1.027 23.776 23.776 0 00-9.788-19.27z" fill="#010101"/><path d="M36.349 41.364a3.803 3.803 0 11-7.606 0 3.803 3.803 0 017.606 0z" fill="#fff" stroke="#FF2B00" stroke-width="3"/></svg>