<svg width="58" height="52" fill="none" xmlns="http://www.w3.org/2000/svg"><path d="M40.109 26a1.01 1.01 0 00-1.01-1.01h-9.09V11.188a1.01 1.01 0 00-2.019 0V26A1.01 1.01 0 0029 27.01h10.099a1.01 1.01 0 001.01-1.01z" fill="#FF2B00"/><path d="M5.28 21.832c.152 0 .302-.035.438-.1l8.497-4.148a1.01 1.01 0 00-.882-1.81L6.876 18.93a23.234 23.234 0 0144.308.175c.257.826.466 1.667.626 2.518a1.017 1.017 0 00.99.814h.195a1.023 1.023 0 00.802-1.184 24.14 24.14 0 00-.674-2.694A25.126 25.126 0 0029 .752 25.382 25.382 0 005.038 18.03l-2.996-6.14a1.01 1.01 0 10-1.81.881l4.14 8.497a1.01 1.01 0 00.909.566zm52.596 17.97l-4.147-8.524a1.01 1.01 0 00-1.346-.464l-8.497 4.14a1.014 1.014 0 00-.225 1.668 1.011 1.011 0 001.114.15l6.106-2.982a23.227 23.227 0 01-44.705-3.414 1.027 1.027 0 10-2.02.377 25.254 25.254 0 0048.745 3.42l3.164 6.484a1.003 1.003 0 00.91.572 1.01 1.01 0 00.902-1.427z" fill="#000"/><path d="M27.99 40.812v4.713a1.01 1.01 0 002.02 0v-4.713a1.01 1.01 0 00-2.02 0zm-10.16-5.413l-3.332 3.366a1.016 1.016 0 001.434 1.434l3.333-3.366a1.017 1.017 0 00-1.434-1.434z" fill="#000"/></svg>