<svg width="45" height="50" fill="none" xmlns="http://www.w3.org/2000/svg"><path d="M22.653 27.288a.781.781 0 00-.281-.01 1.865 1.865 0 01-1.65-1.849.82.82 0 00-1.64 0 3.509 3.509 0 002.58 3.379v.82a.82.82 0 001.64 0v-.77a3.502 3.502 0 00-.717-6.93 1.862 1.862 0 111.862-1.863.82.82 0 001.64 0 3.509 3.509 0 00-2.785-3.428v-.747a.82.82 0 00-1.64 0v.797a3.502 3.502 0 00.923 6.88 1.861 1.861 0 01.068 3.72z" fill="#000"/><path d="M10.692 22.81c0 6.569 5.324 11.893 11.893 11.893 6.568 0 11.893-5.324 11.893-11.893 0-6.568-5.325-11.892-11.893-11.892-6.566.007-11.886 5.327-11.893 11.893zm11.893-10.252c5.662 0 10.252 4.59 10.252 10.253 0 5.662-4.59 10.252-10.252 10.252-5.663 0-10.253-4.59-10.253-10.253.006-5.66 4.593-10.246 10.253-10.252z" fill="#000"/><path d="M38.52 36.725l-6.424 3.036a5.233 5.233 0 00-4.461-2.753l-5.931-.163a6.263 6.263 0 01-2.695-.696l-.604-.313a10.645 10.645 0 00-9.86.01l.038-1.367a.82.82 0 00-.797-.842l-6.504-.18a.82.82 0 00-.842.798L.047 48.527a.82.82 0 00.797.842l6.504.18h.022a.82.82 0 00.82-.798l.02-.683 1.689-.905a2.898 2.898 0 012.163-.236l10.089 2.831c.018.005.035.01.053.013a10.942 10.942 0 006.789-.769.751.751 0 00.101-.056l14.629-9.462a.82.82 0 00.269-1.092 4.143 4.143 0 00-5.471-1.667zM1.71 47.752l.347-12.632 4.864.134-.348 12.632-4.864-.134zm26.544-.214a9.298 9.298 0 01-5.687.634l-10.062-2.824a4.535 4.535 0 00-3.38.37l-.864.462.231-8.399a9.015 9.015 0 019.159-.488l.603.312a7.923 7.923 0 003.405.88l5.931.163a3.597 3.597 0 013.42 2.866l-8.836-.244a.82.82 0 00-.045 1.64l9.75.269h.023a.82.82 0 00.82-.798 5.205 5.205 0 00-.08-1.064l6.59-3.114a2.506 2.506 0 012.853.388l-13.831 8.947zm1.302-38.926V4.92a.82.82 0 00-1.64 0v3.69a.82.82 0 001.64 0zm-12.302 0V4.92a.82.82 0 00-1.64 0v3.69a.82.82 0 001.64 0zm6.151 0V.82a.82.82 0 00-1.64 0v7.792a.82.82 0 001.64 0z" fill="#000"/></svg>