<svg width="26" height="26" fill="none" xmlns="http://www.w3.org/2000/svg"><path d="M26 13c0 7.18-5.82 13-13 13S0 20.18 0 13 5.82 0 13 0s13 5.82 13 13z" fill="#D2D5D3"/><g clip-path="url(#clip0)"><path d="M20 8.66a6.002 6.002 0 01-1.654.452 2.854 2.854 0 001.263-1.586 5.737 5.737 0 01-1.82.695 2.87 2.87 0 00-4.965 1.963c0 .227.02.446.067.654a8.124 8.124 0 01-5.916-3.002 2.874 2.874 0 00.882 3.836 2.836 2.836 0 01-1.297-.354v.032c0 1.395.995 2.553 2.3 2.82a2.868 2.868 0 01-.753.094c-.184 0-.37-.01-.543-.049a2.898 2.898 0 002.681 2 5.767 5.767 0 01-3.558 1.224c-.236 0-.461-.01-.687-.04a8.08 8.08 0 004.403 1.288c5.281 0 8.169-4.375 8.169-8.167 0-.127-.004-.25-.01-.37A5.728 5.728 0 0020 8.66z" fill="#fff"/></g><defs><clipPath id="clip0"><path fill="#fff" transform="translate(6 6)" d="M0 0h14v14H0z"/></clipPath></defs></svg>