<svg width="24" height="16" fill="none" xmlns="http://www.w3.org/2000/svg"><path d="M23.848 7.533C23.633 7.24 18.524.352 12 .352S.366 7.24.152 7.532a.792.792 0 000 .935C.366 8.76 5.475 15.648 12 15.648c6.524 0 11.633-6.888 11.848-7.181a.791.791 0 000-.934zM12 14.066c-4.806 0-8.969-4.572-10.2-6.067C3.03 6.503 7.183 1.934 12 1.934c4.806 0 8.968 4.571 10.2 6.066-1.23 1.496-5.384 6.066-10.2 6.066z" fill="#B3B3B3"/><path d="M12 3.253A4.753 4.753 0 007.253 8 4.753 4.753 0 0012 12.747 4.753 4.753 0 0016.747 8 4.753 4.753 0 0012 3.253zm0 7.912A3.168 3.168 0 018.835 8 3.168 3.168 0 0112 4.835 3.168 3.168 0 0115.165 8 3.168 3.168 0 0112 11.165z" fill="#B3B3B3"/></svg>