<svg width="26" height="26" fill="none" xmlns="http://www.w3.org/2000/svg"><path d="M26 13c0 7.18-5.82 13-13 13S0 20.18 0 13 5.82 0 13 0s13 5.82 13 13z" fill="#D2D5D3"/><g clip-path="url(#clip0)"><path d="M19.875 16.13c-.037-.062-.27-.568-1.39-1.608-1.173-1.088-1.015-.912.397-2.794.86-1.146 1.204-1.846 1.096-2.145-.102-.286-.735-.21-.735-.21l-2.103.012s-.156-.021-.272.048a.592.592 0 00-.186.226s-.333.887-.778 1.641c-.937 1.592-1.312 1.676-1.466 1.577-.356-.23-.267-.926-.267-1.42 0-1.542.234-2.185-.455-2.351-.23-.055-.398-.092-.983-.098-.75-.008-1.387.002-1.747.178-.24.117-.424.38-.311.394.139.018.454.085.621.312.216.293.208.953.208.953s.125 1.816-.29 2.042c-.284.155-.673-.161-1.509-1.606-.428-.74-.751-1.558-.751-1.558s-.063-.152-.174-.233a.872.872 0 00-.323-.13l-2 .012s-.301.008-.411.139c-.098.116-.008.356-.008.356s1.566 3.664 3.34 5.511c1.626 1.693 3.472 1.582 3.472 1.582h.837s.253-.028.381-.167c.12-.128.115-.367.115-.367s-.017-1.123.505-1.288c.513-.163 1.173 1.085 1.873 1.565.528.363.93.284.93.284l1.87-.027s.978-.06.514-.83z" fill="#fff"/></g><defs><clipPath id="clip0"><path fill="#fff" transform="translate(6 6)" d="M0 0h14v14H0z"/></clipPath></defs></svg>